<?xml version="1.0" encoding="UTF-8" standalone="no"?>
<!DOCTYPE svg PUBLIC "-//W3C//DTD SVG 1.1//EN"
"http://www.w3.org/Graphics/SVG/1.1/DTD/svg11.dtd">
<svg viewBox="0 0 935 1210" version="1.1" xmlns="http://www.w3.org/2000/svg" xmlns:xlink="http://www.w3.org/1999/xlink">
<defs>
<clipPath id="c0_92"><path d="M192.5,725.1l0,-293.9l605,0l0,293.9Z" /></clipPath>
<style type="text/css"><![CDATA[
.g1_92{
fill: #FFFFFF;
}
.g2_92{
}
]]></style>
</defs>
<g clip-path="url(#c0_92)">
<path d="M192.3,725.1l605.2,0l0,-293.9l-605.2,0l0,293.9Z" class="g1_92" />
</g>
<path d="M224.4,435.4l-5.5,0.6l0.2,0l-5.1,1.6l-4.8,2.4l0.2,0l-4.1,3.5l-3.3,4l0,-0.2l-2.5,4.6l-1.7,5.3l0,-0.1l-0.5,5.5l0,226.7l0.5,5.5l1.7,5.2l0,-0.2l2.5,4.8l3.3,4l4.1,3.3l-0.2,-0.2l4.8,2.6l5.1,1.6l-0.2,0l5.5,0.6l541.2,0l5.5,-0.6l5.3,-1.6l-0.2,0.2l4.6,-2.6l4,-3.3l3.5,-4l-0.1,0l2.3,-4.8l0,0.2l1.7,-5.2l0.5,-5.5l0,-226.7l-0.5,-5.5l0,0.1l-1.7,-5.3l-2.3,-4.6l0.1,0.2l-3.5,-4l-4,-3.5l-4.6,-2.4l0.2,0L771.1,436l-5.5,-0.6l-541.2,0l0,-0.7l541.2,0l5.5,0.5l0.2,0l5.3,1.7l4.6,2.4l0.2,0.2l4,3.4l3.5,4.1l2.4,4.6l0,0.1l1.6,5.4l0.6,5.5l0,226.7l-0.6,5.5l0,0.2l-1.6,5.2l-2.4,4.7l0,0.2l-3.5,4l-4,3.3l-0.2,0l-4.6,2.6l-5.3,1.7l-0.2,0l-5.5,0.5l-541.2,0l-5.5,-0.5L213.8,715l-0.2,0l-4.8,-2.6l-4,-3.3l-3.3,-4l-0.2,-0.2l-2.6,-4.7L197.1,695l0,-0.2l-0.6,-5.5l0,-226.7l0.6,-5.5l1.6,-5.4l0.2,-0.1l2.6,-4.6l3.3,-4.1l4,-3.4l0,-0.2l4.8,-2.4l0.2,0l5.1,-1.7l5.5,-0.5Z" class="g2_92" />
<path d="M224.4,435.4l0,-0.7Z" class="g2_92" />
<path d="M53.5,154.4l1.5,0l0,-13.8l-1.5,0l0,13.8Z" class="g2_92" />
<path d="M53.5,771.6l1.5,0L55,418.2l-1.5,0l0,353.4Z" class="g2_92" />
</svg>