<?xml version="1.0" encoding="UTF-8" standalone="no"?>
<!DOCTYPE svg PUBLIC "-//W3C//DTD SVG 1.1//EN"
"http://www.w3.org/Graphics/SVG/1.1/DTD/svg11.dtd">
<svg viewBox="0 0 935 1210" version="1.1" xmlns="http://www.w3.org/2000/svg" xmlns:xlink="http://www.w3.org/1999/xlink">
<defs>
<style type="text/css"><![CDATA[
.g1_332{
}
]]></style>
</defs>
<path d="M192.1,321.9l0.8,0l0,-200.9l-0.8,0l0,200.9Z" class="g1_332" />
<path d="M555.1,322.7l0.8,0l0,-202.4l-0.8,0l0,202.4Z" class="g1_332" />
<path d="M676.1,322.7l0.8,0l0,-202.4l-0.8,0l0,202.4Z" class="g1_332" />
<path d="M797.1,321.9l0.8,0l0,-200.9l-0.8,0l0,200.9Z" class="g1_332" />
<path d="M192.1,121l605.8,0l0,-0.7l-605.8,0l0,0.7Z" class="g1_332" />
<path d="M192.1,146.3l605.8,0l0,-0.7l-605.8,0l0,0.7Z" class="g1_332" />
<path d="M192.1,171.4l605.8,0l0,-0.7l-605.8,0l0,0.7Z" class="g1_332" />
<path d="M192.1,196.7l605.8,0l0,-0.7l-605.8,0l0,0.7Z" class="g1_332" />
<path d="M192.1,221.8l605.8,0l0,-0.7l-605.8,0l0,0.7Z" class="g1_332" />
<path d="M192.1,247.1l605.8,0l0,-0.7l-605.8,0l0,0.7Z" class="g1_332" />
<path d="M192.1,272.3l605.8,0l0,-0.8l-605.8,0l0,0.8Z" class="g1_332" />
<path d="M192.1,297.6l605.8,0l0,-0.8l-605.8,0l0,0.8Z" class="g1_332" />
<path d="M192.1,322.7l605.8,0l0,-0.8l-605.8,0l0,0.8Z" class="g1_332" />
<path d="M192.1,1136.3l0.8,0l0,-49.7l-0.8,0l0,49.7Z" class="g1_332" />
<path d="M645.9,1137l0.7,0l0,-51.1l-0.7,0l0,51.1Z" class="g1_332" />
<path d="M797.1,1136.3l0.8,0l0,-49.7l-0.8,0l0,49.7Z" class="g1_332" />
<path d="M192.1,1086.6l605.8,0l0,-0.7l-605.8,0l0,0.7Z" class="g1_332" />
<path d="M192.1,1111.9l605.8,0l0,-0.7l-605.8,0l0,0.7Z" class="g1_332" />
<path d="M192.1,1137l605.8,0l0,-0.7l-605.8,0l0,0.7Z" class="g1_332" />
<path d="M53.5,661.5l1.5,0l0,-13.8l-1.5,0l0,13.8Z" class="g1_332" />
<path d="M53.5,165l1.5,0l0,-13l-1.5,0l0,13Z" class="g1_332" />
<path d="M53.5,190.1l1.5,0l0,-12.8l-1.5,0l0,12.8Z" class="g1_332" />
</svg>