<?xml version="1.0" encoding="UTF-8" standalone="no"?>
<!DOCTYPE svg PUBLIC "-//W3C//DTD SVG 1.1//EN"
"http://www.w3.org/Graphics/SVG/1.1/DTD/svg11.dtd">
<svg viewBox="0 0 935 1210" version="1.1" xmlns="http://www.w3.org/2000/svg" xmlns:xlink="http://www.w3.org/1999/xlink">
<defs>
<clipPath id="c0_119"><path d="M248.2,885.3l0,-252.1l603.6,0l0,252.1Z" /></clipPath>
<style type="text/css"><![CDATA[
.g1_119{
}
.g2_119{
fill: #FFFFFF;
}
]]></style>
</defs>
<path d="M246.8,1129.3l1.4,0l0,-93.8l-1.4,0l0,93.8Z" class="g1_119" />
<path d="M496.1,1130.8l0.7,0l0,-97l-0.7,0l0,97Z" class="g1_119" />
<path d="M850.3,1129.3l1.5,0l0,-93.8l-1.5,0l0,93.8Z" class="g1_119" />
<path d="M246.8,1035.3l605,0l0,-1.5l-605,0l0,1.5Z" class="g1_119" />
<path d="M246.8,1054.5l605,0l0,-1.4l-605,0l0,1.4Z" class="g1_119" />
<path d="M246.8,1073.2l605,0l0,-0.7l-605,0l0,0.7Z" class="g1_119" />
<path d="M246.8,1092.3l605,0l0,-0.7l-605,0l0,0.7Z" class="g1_119" />
<path d="M246.8,1111.4l605,0l0,-0.8l-605,0l0,0.8Z" class="g1_119" />
<path d="M246.8,1130.8l605,0l0,-1.5l-605,0l0,1.5Z" class="g1_119" />
<path d="M248.6,135.1l602.8,0l0,288l-602.8,0Z" class="g2_119" />
<path d="M280,142.3l-5.5,0.5l0.1,0l-5.1,1.5l-4.8,2.5l0.2,0l-4,3.5l-3.3,4.1l0,-0.2l-2.6,4.6l-1.6,5.1l0,-0.2l-0.6,5.7l0,209.2l0.6,5.7l1.6,5.1l0,-0.2l2.6,4.6l3.3,4l4,3.5l-0.2,-0.2l4.8,2.6l5.1,1.5l-0.1,0l5.5,0.5l541.1,0l5.6,-0.5l5.3,-1.5l-0.2,0.2l4.6,-2.6l4,-3.5l3.5,-4l-0.2,0l2.4,-4.6l0,0.2l1.6,-5.1l0.6,-5.7l0,-209.2l-0.6,-5.7l0,0.2l-1.6,-5.1l-2.4,-4.6l0.2,0.2l-3.5,-4.1l-4,-3.5l-4.6,-2.5l0.2,0l-5.3,-1.5l-5.6,-0.5l-541.1,0l0,-0.8l541.1,0l5.6,0.6l0.1,0l5.3,1.5l0,0.1l4.6,2.6l0.2,0l4.1,3.5l3.4,4l2.4,4.6l0,0.2l1.7,5.1l0.5,5.7l0,209.2l-0.5,5.7l0,0.2l-1.7,5.1l-2.4,4.6l0,0.1l-3.4,4.1l-4.1,3.5l-0.2,0l-4.6,2.5l-5.3,1.5l-0.1,0l-5.6,0.5l-541.1,0l-5.5,-0.5l-5.2,-1.5l-0.2,0l-4.7,-2.5l-4.1,-3.5L257,394.3l0,-0.1l-2.5,-4.6l-0.2,0l-1.7,-5.1l0,-0.2l-0.5,-5.7l0,-209.2l0.5,-5.7l1.7,-5.1l0.2,-0.2l2.5,-4.6l3.3,-4l4.1,-3.5l0,-0.2l4.7,-2.5l0.2,0l5.2,-1.5l5.5,-0.6Z" class="g1_119" />
<path d="M280,142.3l0,-0.8Z" class="g1_119" />
<g clip-path="url(#c0_119)">
<path d="M248.2,633.2l603.6,0l0,252.1l-603.6,0Z" class="g2_119" />
<path d="M280.5,642.9l-5.7,0.6l0.2,0l-5.1,1.7l-4.6,2.5l-4.2,3.3l0.2,-0.2l-3.3,4.3l-2.6,4.5l-1.5,5.2l0,-0.2l-0.5,5.5l0,256.1l0.5,5.5l1.5,5.1l0,-0.1l2.6,4.7l3.3,4.1l-0.2,0l4.2,3.3l4.6,2.5l0,-0.2l5.1,1.7l-0.2,0l5.7,0.5l541.2,0l5.5,-0.5l5.1,-1.7l-0.2,0l4.8,-2.5l0,0.2l4.1,-3.3l3.2,-4.1l-0.1,0l2.5,-4.7l0,0.1l1.7,-5.1l0.5,-5.5l0,-256.1l-0.5,-5.5l0,0.2l-1.7,-5.2l0.2,0l-2.6,-4.5L841,650.8l0,0.2l-4.1,-3.3l-4.8,-2.5l0.2,0l-5.1,-1.7l-5.5,-0.6l-541.2,0l0,-0.7l541.2,0l5.5,0.6l0.2,0l5.1,1.6l4.8,2.6l0.2,0.2l4,3.3l3.3,4.2l2.6,4.6l0,0.1l1.6,5.2l0.6,5.5l0,256.1l-0.6,5.5l0,0.2l-1.6,5.1l-2.6,4.8l0,0.2l-3.3,4l-4,3.3l-0.2,0l-4.8,2.6l-5.1,1.6l-0.2,0l-5.5,0.6l-541.2,0l-5.7,-0.6l-5.1,-1.6l-0.2,0l-4.6,-2.6L260.7,946l-3.3,-4l-0.2,-0.2L254.7,937l-1.5,-5.1l0,-0.2l-0.6,-5.5l0,-256.1l0.6,-5.5l1.5,-5.2l0.1,-0.1l2.6,-4.6l3.3,-4.2l4.2,-3.3l4.6,-2.6l0.2,-0.2l5.1,-1.6l5.7,-0.6Z" class="g1_119" />
</g>
<path d="M280.5,642.9l0,-0.7Z" class="g1_119" />
</svg>