<?xml version="1.0" encoding="UTF-8" standalone="no"?>
<!DOCTYPE svg PUBLIC "-//W3C//DTD SVG 1.1//EN"
"http://www.w3.org/Graphics/SVG/1.1/DTD/svg11.dtd">
<svg viewBox="0 0 935 1210" version="1.1" xmlns="http://www.w3.org/2000/svg" xmlns:xlink="http://www.w3.org/1999/xlink">
<defs>
<style type="text/css"><![CDATA[
.g1_406{
}
]]></style>
</defs>
<path d="M194.7,141L796,141l0,-1.5l-601.3,0l0,1.5Z" class="g1_406" />
<path d="M794.6,407.2l1.4,0l0,-266.9l-1.4,0l0,266.9Z" class="g1_406" />
<path d="M194,407.2l601.3,0l0,-1.5l-601.3,0l0,1.5Z" class="g1_406" />
<path d="M194,406.4l1.4,0l0,-266.9l-1.4,0l0,266.9Z" class="g1_406" />
<path d="M194.7,558.1l601.3,0l0,-1.5l-601.3,0l0,1.5Z" class="g1_406" />
<path d="M794.6,794.8l1.4,0l0,-237.5l-1.4,0l0,237.5Z" class="g1_406" />
<path d="M194,794.8l601.3,0l0,-1.5l-601.3,0l0,1.5Z" class="g1_406" />
<path d="M194,794l1.4,0l0,-237.4l-1.4,0L194,794Z" class="g1_406" />
</svg>