<?xml version="1.0" encoding="UTF-8" standalone="no"?>
<!DOCTYPE svg PUBLIC "-//W3C//DTD SVG 1.1//EN"
"http://www.w3.org/Graphics/SVG/1.1/DTD/svg11.dtd">
<svg viewBox="0 0 935 1210" version="1.1" xmlns="http://www.w3.org/2000/svg" xmlns:xlink="http://www.w3.org/1999/xlink">
<defs>
<style type="text/css"><![CDATA[
.g1_205{
}
]]></style>
</defs>
<path d="M137.1,1108.1l0.8,0l0,-424.8l-0.8,0l0,424.8Z" class="g1_205" />
<path d="M427.4,1108.8l0.7,0l0,-426.2l-0.7,0l0,426.2Z" class="g1_205" />
<path d="M475.4,1108.8l0.7,0l0,-426.2l-0.7,0l0,426.2Z" class="g1_205" />
<path d="M523.2,1108.8l0.8,0l0,-426.2l-0.8,0l0,426.2Z" class="g1_205" />
<path d="M571.3,1108.8l0.7,0l0,-426.2l-0.7,0l0,426.2Z" class="g1_205" />
<path d="M619.1,1108.8l0.7,0l0,-426.2l-0.7,0l0,426.2Z" class="g1_205" />
<path d="M683.1,1108.8l0.7,0l0,-426.2l-0.7,0l0,426.2Z" class="g1_205" />
<path d="M773.1,1108.8l0.8,0l0,-426.2l-0.8,0l0,426.2Z" class="g1_205" />
<path d="M850.7,1108.1l0.7,0l0,-424.8l-0.7,0l0,424.8Z" class="g1_205" />
<path d="M137.1,683.3l714.3,0l0,-0.8l-714.3,0l0,0.8Z" class="g1_205" />
<path d="M137.1,737.6l714.3,0l0,-0.8l-714.3,0l0,0.8Z" class="g1_205" />
<path d="M137.1,791.8l714.3,0l0,-0.7l-714.3,0l0,0.7Z" class="g1_205" />
<path d="M137.1,816.9l714.3,0l0,-0.7l-714.3,0l0,0.7Z" class="g1_205" />
<path d="M137.1,842.2l714.3,0l0,-0.7l-714.3,0l0,0.7Z" class="g1_205" />
<path d="M137.1,867.4l714.3,0l0,-0.8l-714.3,0l0,0.8Z" class="g1_205" />
<path d="M137.1,892.7l714.3,0l0,-0.8l-714.3,0l0,0.8Z" class="g1_205" />
<path d="M137.1,917.8l714.3,0l0,-0.8l-714.3,0l0,0.8Z" class="g1_205" />
<path d="M137.1,943.1l714.3,0l0,-0.8l-714.3,0l0,0.8Z" class="g1_205" />
<path d="M137.1,968.2l714.3,0l0,-0.8l-714.3,0l0,0.8Z" class="g1_205" />
<path d="M137.1,993.5l714.3,0l0,-0.7l-714.3,0l0,0.7Z" class="g1_205" />
<path d="M137.1,1018.6l714.3,0l0,-0.7l-714.3,0l0,0.7Z" class="g1_205" />
<path d="M137.1,1058.4l714.3,0l0,-0.7l-714.3,0l0,0.7Z" class="g1_205" />
<path d="M137.1,1083.5l714.3,0l0,-0.7l-714.3,0l0,0.7Z" class="g1_205" />
<path d="M137.1,1108.8l714.3,0l0,-0.7l-714.3,0l0,0.7Z" class="g1_205" />
</svg>