<?xml version="1.0" encoding="UTF-8" standalone="no"?>
<!DOCTYPE svg PUBLIC "-//W3C//DTD SVG 1.1//EN"
"http://www.w3.org/Graphics/SVG/1.1/DTD/svg11.dtd">
<svg viewBox="0 0 935 1210" version="1.1" xmlns="http://www.w3.org/2000/svg" xmlns:xlink="http://www.w3.org/1999/xlink">
<defs>
<style type="text/css"><![CDATA[
.g1_173{
}
]]></style>
</defs>
<path d="M137.5,347.2l0,-0.7Z" class="g1_173" />
<path d="M137.5,347.2l715,0l0,-0.7l-715,0l0,0.7Z" class="g1_173" />
<path d="M246.8,909.9l1.4,0l0,-149.8l-1.4,0l0,149.8Z" class="g1_173" />
<path d="M397.8,911.4l0.8,0l0,-152.8l-0.8,0l0,152.8Z" class="g1_173" />
<path d="M548.4,909.9l1.4,0l0,-149.8l-1.4,0l0,149.8Z" class="g1_173" />
<path d="M246.8,760.1l303,0l0,-1.5l-303,0l0,1.5Z" class="g1_173" />
<path d="M246.8,785.2l303,0l0,-1.5l-303,0l0,1.5Z" class="g1_173" />
<path d="M246.8,810.2l303,0l0,-0.8l-303,0l0,0.8Z" class="g1_173" />
<path d="M246.8,835.3l303,0l0,-0.8l-303,0l0,0.8Z" class="g1_173" />
<path d="M246.8,860.6l303,0l0,-0.8l-303,0l0,0.8Z" class="g1_173" />
<path d="M246.8,885.7l303,0l0,-0.8l-303,0l0,0.8Z" class="g1_173" />
<path d="M246.8,911.4l303,0l0,-1.5l-303,0l0,1.5Z" class="g1_173" />
<path d="M108.5,803.5l1.5,0l0,-12.8l-1.5,0l0,12.8Z" class="g1_173" />
<path d="M108.5,1021.4l1.5,0l0,-13.8l-1.5,0l0,13.8Z" class="g1_173" />
</svg>