<?xml version="1.0" encoding="UTF-8" standalone="no"?>
<!DOCTYPE svg PUBLIC "-//W3C//DTD SVG 1.1//EN"
"http://www.w3.org/Graphics/SVG/1.1/DTD/svg11.dtd">
<svg viewBox="0 0 935 1210" version="1.1" xmlns="http://www.w3.org/2000/svg" xmlns:xlink="http://www.w3.org/1999/xlink">
<defs>
<style type="text/css"><![CDATA[
.g1_71{
fill: #FFFFFF;
}
.g2_71{
fill: none;
stroke: #000000;
stroke-width: 0.36666667;
stroke-linecap: round;
stroke-linejoin: round;
}
.g3_71{
fill: none;
stroke: #000000;
stroke-width: 1.0999999;
stroke-linecap: round;
stroke-linejoin: round;
}
]]></style>
</defs>
<path d="M300.8,997.1l498.4,0l0,-272.2l-498.4,0l0,272.2Z" class="g1_71" />
<path d="M302.5,912.9l137.5,0l0,-137.5l-137.5,0l0,137.5Z" class="g1_71" />
<path d="M302.5,912.9l137.5,0l0,-137.5l-137.5,0l0,137.5Z" class="g2_71" />
<image preserveAspectRatio="none" x="340" y="796" width="63" height="24" xlink:href="img/1.png" />
<image preserveAspectRatio="none" x="340" y="825" width="63" height="24" xlink:href="img/2.png" />
<image preserveAspectRatio="none" x="337" y="855" width="69" height="24" xlink:href="img/3.png" />
<image preserveAspectRatio="none" x="337" y="884" width="69" height="24" xlink:href="img/4.png" />
<path d="M316.2,995.4l110.1,0l0,-55l-110.1,0l0,55Z" class="g1_71" />
<path d="M316.2,995.4l110.1,0l0,-55l-110.1,0l0,55Z" class="g2_71" />
<image preserveAspectRatio="none" x="353" y="964" width="37" height="23" xlink:href="img/5.png" />
<path d="M371.2,912.9l0,27.5" class="g3_71" />
<path d="M481.3,844.1l137.5,0l0,-68.7l-137.5,0l0,68.7Z" class="g1_71" />
<path d="M481.3,844.1l137.5,0l0,-68.7l-137.5,0l0,68.7Z" class="g2_71" />
<image preserveAspectRatio="none" x="519" y="806" width="62" height="24" xlink:href="img/6.png" />
<path d="M495,995.4l110,0l0,-55l-110,0l0,55Z" class="g1_71" />
<path d="M495,995.4l110,0l0,-55l-110,0l0,55Z" class="g2_71" />
<image preserveAspectRatio="none" x="532" y="964" width="37" height="23" xlink:href="img/7.png" />
<path d="M550,844.1l0,96.3" class="g3_71" />
<path d="M660,844.1l137.5,0l0,-68.7l-137.5,0l0,68.7Z" class="g1_71" />
<path d="M660,844.1l137.5,0l0,-68.7l-137.5,0l0,68.7Z" class="g2_71" />
<image preserveAspectRatio="none" x="698" y="806" width="63" height="24" xlink:href="img/8.png" />
<path d="M673.8,995.4l110,0l0,-55l-110,0l0,55Z" class="g1_71" />
<path d="M673.8,995.4l110,0l0,-55l-110,0l0,55Z" class="g2_71" />
<image preserveAspectRatio="none" x="711" y="964" width="36" height="24" xlink:href="img/9.png" />
<path d="M728.8,844.1l0,96.3" class="g3_71" />
<image preserveAspectRatio="none" x="318" y="733" width="106" height="21" xlink:href="img/10.png" />
<image preserveAspectRatio="none" x="330" y="750" width="41" height="40" xlink:href="img/11.png" />
<image preserveAspectRatio="none" x="380" y="750" width="5" height="38" xlink:href="img/12.png" />
<image preserveAspectRatio="none" x="386" y="752" width="20" height="27" xlink:href="img/13.png" />
<image preserveAspectRatio="none" x="407" y="750" width="5" height="38" xlink:href="img/14.png" />
<image preserveAspectRatio="none" x="511" y="725" width="78" height="40" xlink:href="img/15.png" />
<image preserveAspectRatio="none" x="529" y="741" width="41" height="41" xlink:href="img/16.png" />
<image preserveAspectRatio="none" x="508" y="758" width="41" height="40" xlink:href="img/17.png" />
<image preserveAspectRatio="none" x="559" y="758" width="4" height="38" xlink:href="img/18.png" />
<image preserveAspectRatio="none" x="564" y="760" width="22" height="27" xlink:href="img/19.png" />
<image preserveAspectRatio="none" x="586" y="758" width="5" height="38" xlink:href="img/20.png" />
<image preserveAspectRatio="none" x="690" y="725" width="77" height="40" xlink:href="img/21.png" />
<image preserveAspectRatio="none" x="708" y="741" width="41" height="41" xlink:href="img/22.png" />
<image preserveAspectRatio="none" x="687" y="758" width="41" height="40" xlink:href="img/23.png" />
<image preserveAspectRatio="none" x="738" y="758" width="4" height="38" xlink:href="img/24.png" />
<image preserveAspectRatio="none" x="743" y="760" width="22" height="27" xlink:href="img/25.png" />
<image preserveAspectRatio="none" x="765" y="758" width="4" height="38" xlink:href="img/26.png" />
</svg>