<?xml version="1.0" encoding="UTF-8" standalone="no"?>
<!DOCTYPE svg PUBLIC "-//W3C//DTD SVG 1.1//EN"
"http://www.w3.org/Graphics/SVG/1.1/DTD/svg11.dtd">
<svg viewBox="0 0 935 1210" version="1.1" xmlns="http://www.w3.org/2000/svg" xmlns:xlink="http://www.w3.org/1999/xlink">
<defs>
<style type="text/css"><![CDATA[
.g1_333{
}
]]></style>
</defs>
<path d="M247.1,372.3l0.8,0l0,-251.3l-0.8,0l0,251.3Z" class="g1_333" />
<path d="M700.9,373.1l0.7,0l0,-252.8l-0.7,0l0,252.8Z" class="g1_333" />
<path d="M852.1,372.3l0.8,0l0,-251.3l-0.8,0l0,251.3Z" class="g1_333" />
<path d="M247.1,121l605.8,0l0,-0.7l-605.8,0l0,0.7Z" class="g1_333" />
<path d="M247.1,146.3l605.8,0l0,-0.7l-605.8,0l0,0.7Z" class="g1_333" />
<path d="M247.1,171.4l605.8,0l0,-0.7l-605.8,0l0,0.7Z" class="g1_333" />
<path d="M247.1,196.7l605.8,0l0,-0.7l-605.8,0l0,0.7Z" class="g1_333" />
<path d="M247.1,221.8l605.8,0l0,-0.7l-605.8,0l0,0.7Z" class="g1_333" />
<path d="M247.1,247.1l605.8,0l0,-0.7l-605.8,0l0,0.7Z" class="g1_333" />
<path d="M247.1,272.3l605.8,0l0,-0.8l-605.8,0l0,0.8Z" class="g1_333" />
<path d="M247.1,297.6l605.8,0l0,-0.8l-605.8,0l0,0.8Z" class="g1_333" />
<path d="M247.1,322.7l605.8,0l0,-0.8l-605.8,0l0,0.8Z" class="g1_333" />
<path d="M247.1,348l605.8,0l0,-0.8l-605.8,0l0,0.8Z" class="g1_333" />
<path d="M247.1,373.1l605.8,0l0,-0.7l-605.8,0l0,0.7Z" class="g1_333" />
<path d="M247.1,1004.7l0.8,0l0,-150.5l-0.8,0l0,150.5Z" class="g1_333" />
<path d="M700.9,1005.4l0.7,0l0,-152l-0.7,0l0,152Z" class="g1_333" />
<path d="M852.1,1004.7l0.8,0l0,-150.5l-0.8,0l0,150.5Z" class="g1_333" />
<path d="M247.1,854.2l605.8,0l0,-0.8l-605.8,0l0,0.8Z" class="g1_333" />
<path d="M247.1,879.3l605.8,0l0,-0.8l-605.8,0l0,0.8Z" class="g1_333" />
<path d="M247.1,904.6l605.8,0l0,-0.8l-605.8,0l0,0.8Z" class="g1_333" />
<path d="M247.1,929.7l605.8,0l0,-0.8l-605.8,0l0,0.8Z" class="g1_333" />
<path d="M247.1,955l605.8,0l0,-0.8l-605.8,0l0,0.8Z" class="g1_333" />
<path d="M247.1,980.1l605.8,0l0,-0.7l-605.8,0l0,0.7Z" class="g1_333" />
<path d="M247.1,1005.4l605.8,0l0,-0.7l-605.8,0l0,0.7Z" class="g1_333" />
<path d="M108.5,473.5l1.5,0l0,-13.7l-1.5,0l0,13.7Z" class="g1_333" />
<path d="M108.5,341.4l1.5,0l0,-12.9l-1.5,0l0,12.9Z" class="g1_333" />
<path d="M108.5,366.7l1.5,0l0,-13.1l-1.5,0l0,13.1Z" class="g1_333" />
<path d="M108.5,998.8l1.5,0L110,986l-1.5,0l0,12.8Z" class="g1_333" />
</svg>