<?xml version="1.0" encoding="UTF-8" standalone="no"?>
<!DOCTYPE svg PUBLIC "-//W3C//DTD SVG 1.1//EN"
"http://www.w3.org/Graphics/SVG/1.1/DTD/svg11.dtd">
<svg viewBox="0 0 935 1210" version="1.1" xmlns="http://www.w3.org/2000/svg" xmlns:xlink="http://www.w3.org/1999/xlink">
<defs>
<style type="text/css"><![CDATA[
.g1_421{
}
]]></style>
</defs>
<path d="M137.5,685.9l0,-0.8Z" class="g1_421" />
<path d="M137.5,685.9l715,0l0,-0.8l-715,0l0,0.8Z" class="g1_421" />
<path d="M249.7,141L851,141l0,-1.5l-601.3,0l0,1.5Z" class="g1_421" />
<path d="M849.6,603.5l1.4,0l0,-463.2l-1.4,0l0,463.2Z" class="g1_421" />
<path d="M249,603.5l601.3,0l0,-1.4l-601.3,0l0,1.4Z" class="g1_421" />
<path d="M249,602.8l1.4,0l0,-463.3l-1.4,0l0,463.3Z" class="g1_421" />
<path d="M108.5,653.4l1.5,0L110,103l-1.5,0l0,550.4Z" class="g1_421" />
</svg>