<?xml version="1.0" encoding="UTF-8" standalone="no"?>
<!DOCTYPE svg PUBLIC "-//W3C//DTD SVG 1.1//EN"
"http://www.w3.org/Graphics/SVG/1.1/DTD/svg11.dtd">
<svg viewBox="0 0 935 1210" version="1.1" xmlns="http://www.w3.org/2000/svg" xmlns:xlink="http://www.w3.org/1999/xlink">
<defs>
<style type="text/css"><![CDATA[
.g1_89{
}
]]></style>
</defs>
<path d="M247.1,1126.2l0.8,0l0,-49.7l-0.8,0l0,49.7Z" class="g1_89" />
<path d="M549.6,1127l0.8,0l0,-51.2l-0.8,0l0,51.2Z" class="g1_89" />
<path d="M852.1,1126.2l0.8,0l0,-49.7l-0.8,0l0,49.7Z" class="g1_89" />
<path d="M247.1,1076.5l605.8,0l0,-0.7l-605.8,0l0,0.7Z" class="g1_89" />
<path d="M247.1,1101.8l605.8,0l0,-0.7l-605.8,0l0,0.7Z" class="g1_89" />
<path d="M247.1,1127l605.8,0l0,-0.8l-605.8,0l0,0.8Z" class="g1_89" />
</svg>