<?xml version="1.0" encoding="UTF-8" standalone="no"?>
<!DOCTYPE svg PUBLIC "-//W3C//DTD SVG 1.1//EN"
"http://www.w3.org/Graphics/SVG/1.1/DTD/svg11.dtd">
<svg viewBox="0 0 935 1210" version="1.1" xmlns="http://www.w3.org/2000/svg" xmlns:xlink="http://www.w3.org/1999/xlink">
<defs>
<clipPath id="c0_213"><path d="M335.9,157.1l0,-4.7l6.8,0l0,4.7Z" /></clipPath>
<clipPath id="c1_213"><path d="M341.8,153.3l0,-0.9l87.6,0l0,0.9Z" /></clipPath>
<clipPath id="c2_213"><path d="M428.5,157.1l0,-4.7l5.3,0l0,4.7Z" /></clipPath>
<clipPath id="c3_213"><path d="M448.3,313.9l0,-33.7l7.5,0l0,33.7Z" /></clipPath>
<clipPath id="c4_213"><path d="M318.3,314.1l0,-33.4l6.8,0l0,33.4Z" /></clipPath>
<clipPath id="c5_213"><path d="M318.3,317.4l0,-4l0.9,0l0,4Z" /></clipPath>
<clipPath id="c6_213"><path d="M454.5,317l0,-4.2l1.3,0l0,4.2Z" /></clipPath>
<clipPath id="c7_213"><path d="M318.3,314.1l0,-1.3l0.2,0l0,1.3Z" /></clipPath>
<clipPath id="c8_213"><path d="M455.6,314.1l0,-1.3l0.2,0l0,1.3Z" /></clipPath>
<clipPath id="c9_213"><path d="M648.9,157.1l0,-4.7l6.8,0l0,4.7Z" /></clipPath>
<clipPath id="c10_213"><path d="M654.7,153.3l0,-0.9l87.7,0l0,0.9Z" /></clipPath>
<clipPath id="c11_213"><path d="M741.5,157.1l0,-4.7l5.3,0l0,4.7Z" /></clipPath>
<clipPath id="c12_213"><path d="M761.3,313.9l0,-33.7l7.5,0l0,33.7Z" /></clipPath>
<clipPath id="c13_213"><path d="M631.3,314.1l0,-33.4l6.8,0l0,33.4Z" /></clipPath>
<clipPath id="c14_213"><path d="M631.3,317.4l0,-4l0.9,0l0,4Z" /></clipPath>
<clipPath id="c15_213"><path d="M767.5,317l0,-4.2l1.3,0l0,4.2Z" /></clipPath>
<clipPath id="c16_213"><path d="M631.3,314.1l0,-1.3l0.2,0l0,1.3Z" /></clipPath>
<clipPath id="c17_213"><path d="M768.6,314.1l0,-1.3l0.2,0l0,1.3Z" /></clipPath>
<clipPath id="c18_213"><path d="M507.9,707.2l0,-4.8l6.8,0l0,4.8Z" /></clipPath>
<clipPath id="c19_213"><path d="M513.7,703.3l0,-0.9l87.7,0l0,0.9Z" /></clipPath>
<clipPath id="c20_213"><path d="M600.5,707.2l0,-4.8l5.3,0l0,4.8Z" /></clipPath>
<clipPath id="c21_213"><path d="M620.3,863.9l0,-33.7l7.5,0l0,33.7Z" /></clipPath>
<clipPath id="c22_213"><path d="M490.3,864.1l0,-33.4l6.8,0l0,33.4Z" /></clipPath>
<clipPath id="c23_213"><path d="M490.3,867.4l0,-4l0.9,0l0,4Z" /></clipPath>
<clipPath id="c24_213"><path d="M302.3,867.3l0,-715l495.4,0l0,715Z" /></clipPath>
<clipPath id="c25_213"><path d="M626.5,867l0,-4.2l1.3,0l0,4.2Z" /></clipPath>
<clipPath id="c26_213"><path d="M490.3,864.1l0,-1.3l0.2,0l0,1.3Z" /></clipPath>
<clipPath id="c27_213"><path d="M627.6,864.1l0,-1.3l0.2,0l0,1.3Z" /></clipPath>
<style type="text/css"><![CDATA[
.g1_213{
fill: #FFFFFF;
}
.g2_213{
fill: none;
stroke: #000000;
stroke-width: 0.36666667;
stroke-linecap: round;
stroke-linejoin: round;
}
.g3_213{
}
.g4_213{
fill: #252525;
}
.g5_213{
fill: #D8D8D8;
}
.g6_213{
fill: #A5A5A5;
}
.g7_213{
fill: #999999;
}
.g8_213{
fill: #323232;
}
]]></style>
</defs>
<path d="M302.3,867.4l495.4,0l0,-715.1l-495.4,0l0,715.1Z" class="g1_213" />
<path d="M607.1,683l178.7,0l0,-144.5l-178.7,0l0,144.5Z" class="g1_213" />
<path d="M607.1,683l178.7,0l0,-144.5l-178.7,0l0,144.5Z" class="g2_213" />
<path d="M304.6,683l192.5,0l0,-144.5l-192.5,0l0,144.5Z" class="g1_213" />
<path d="M304.6,683l192.5,0l0,-144.5l-192.5,0l0,144.5Z" class="g2_213" />
<path d="M607.1,483.5l178.7,0l0,-137.5l-178.7,0l0,137.5Z" class="g1_213" />
<path d="M607.1,483.5l178.7,0l0,-137.5l-178.7,0l0,137.5Z" class="g2_213" />
<path d="M318.3,483.5l165,0l0,-137.5l-165,0l0,137.5Z" class="g1_213" />
<path d="M318.3,483.5l165,0l0,-137.5l-165,0l0,137.5ZM359.6,242.8l0,41.2" class="g2_213" />
<path d="M428.3,208.5l55,0" class="g2_213" />
<path fill-rule="evenodd" d="M332.1,283.3l0,-30.6l0.1,-1l0.4,-0.3l1.5,-0.4l104.1,0l0.9,0.2l0.9,0.4l0.4,0.5l0.2,1.3l0,31.2l-0.2,0.3l-0.5,0.2l-106.7,0l-0.6,-0.3l-0.4,-0.6l-0.1,-0.9Z" class="g1_213" />
<path d="M331.5,252.7l0,30.6l1.1,0l0,-30.6l-0.2,-0.4l-0.3,-0.2l-0.4,0.2l-0.2,0.4Z" class="g3_213" />
<path d="M334.1,250.5l-0.9,0l-0.8,0.3l-0.9,0.8l0,1.1l1.1,0l0.2,-0.6l0,-0.4l0.7,0l0.6,-0.1l0.3,-0.2l0.2,-0.4l-0.2,-0.4l-0.3,-0.1Z" class="g3_213" />
<path d="M438.2,250.5l-104.1,0l0,1.1l104.1,0l0.6,-0.6l-0.6,-0.5Z" class="g3_213" />
<path d="M441.1,253.4L441,252.1L440.4,251l-1.1,-0.5l-1.1,0l0,1.1l0.9,0.1l0.6,0.2l0.2,0.4l0.1,1.1l0.2,0.4l0.8,0l0.1,-0.4Z" class="g3_213" />
<path d="M441.1,283.8l0,-30.4l-1.1,0l0,30.4l0.2,0.4l0.4,0.2l0.4,-0.2l0.1,-0.4Z" class="g3_213" />
<path d="M439.1,285.9l0.9,0l0.6,-0.4l0.5,-0.7l0,-1l-1.1,0l0,0.6l-0.3,0.2l-0.6,0l-0.3,0.2l0,0.7l0.3,0.4Z" class="g3_213" />
<path d="M333.9,285.9l105.2,0l0,-1.3l-105.2,0l-0.4,0.2l0,0.7l0.4,0.4Z" class="g3_213" />
<path d="M331.5,283.3l0,1.1l0.7,0.9l1,0.4l0.7,0.2l0,-1.3l-0.6,-0.2l-0.3,0l-0.2,-0.2l-0.2,-0.9l-0.2,-0.4l-0.3,-0.2l-0.4,0.2l-0.2,0.4Z" class="g3_213" />
<path fill-rule="evenodd" d="M332.1,251.7l0.5,-0.5l0.9,-1.7l1.7,-2l1.8,-2.2l1.7,-2.2l1.8,-1.8l1.1,-1.5l0.5,-0.3l87.7,0l0.5,0.3l1.5,1.5l1.6,2l1.9,2.2l2,2.2l3.3,4.4l0,1.3l-0.2,-1.3L440,251.6l-0.9,-0.4L438.2,251l-104.1,0l-1.5,0.4l-0.4,0.3l-0.1,1l0,-1Z" class="g1_213" />
<path d="M342.1,238.7l-0.9,0.8l-1.3,1.4l-1.6,1.9l-1.7,2.2l-2,2.3l-1.4,1.9l-1.1,1.6l-0.6,0.9l1.1,0l0.4,-0.1l1.1,-1.7l1.4,-2l2.1,-2.2l1.6,-2.2l1.7,-1.8l1.1,-1.5l0.1,-0.2l0.4,-0.2l0.2,-0.3l-0.2,-0.4l-0.4,-0.4Z" class="g3_213" />
<path d="M429.8,238.7l-87.7,0l0,1.3l87.7,0l0.3,-0.2l0.2,-0.3l-0.2,-0.4l-0.3,-0.4Z" class="g3_213" />
<path d="M441.1,252.1L440.6,251l-1.3,-1.5l-1.5,-2.2l-2,-2.2L434,242.9l-1.8,-2l-1.5,-1.4l-0.9,-0.8l0,1.3l0.3,0.2l1.1,1.5l1.9,2l1.8,2.2l2,2.2l1.5,2.2l1.3,1.4l0.3,0.4l0.2,0.4l0.4,0.2l0.4,-0.2l0.1,-0.4Z" class="g3_213" />
<path d="M440,253.4l1.1,0l0,-1.3l-1.1,0l0,1.3l1.1,0l-1.1,0l0.2,0.4l0.8,0l0.1,-0.4Z" class="g3_213" />
<path d="M438.2,251.6l0.9,0.1l0.6,0.2l0.2,0.4l0.1,1.1l1.1,0L441,252.1L440.4,251l-1.1,-0.5l-1.1,0l-0.4,0.1l-0.1,0.4l0.1,0.4l0.4,0.2Z" class="g3_213" />
<path d="M334.1,251.6l104.1,0l0,-1.1l-104.1,0l-0.4,0.1l0,0.8l0.4,0.2Z" class="g3_213" />
<path d="M331.5,252.7l1.1,0l0.2,-0.6l0,-0.4l0.7,0l0.6,-0.1l0,-1.1l-0.9,0l-0.8,0.3l-0.9,0.8l0,1.1l1.1,0l-1.1,0l0.2,0.3l0.4,0.2l0.3,-0.2l0.2,-0.3Z" class="g3_213" />
<path d="M331.5,251.7l0,1l1.1,0l0,-1l-0.5,-0.5l-0.6,0.5Z" class="g3_213" />
<path fill-rule="evenodd" d="M333.7,270.8l0,-17.6l0.4,-0.3l0.5,-0.4l102.9,0l0.7,0.4l0.6,0.5l0,18.5l-0.2,0.4l-0.4,0.2l-103.6,0l-0.5,-0.2l-0.4,-0.6l0,-0.9Z" class="g1_213" />
<path d="M332.8,253.8l0,17l1.6,0l0,-17l-0.1,-0.6L333.7,253l-0.5,0.2l-0.4,0.6Z" class="g3_213" />
<path d="M335.5,251.6l-0.9,0.1l-0.9,0.4l-0.5,0.7l-0.4,1l1.6,0l0,-0.4l0.4,0l0.7,-0.2l0.6,-0.2l0.2,-0.5l-0.2,-0.8l-0.6,-0.1Z" class="g3_213" />
<path d="M436.6,251.6l-101.1,0l0,1.6l101.1,0l0.5,-0.2l0.2,-0.5l-0.2,-0.8l-0.5,-0.1Z" class="g3_213" />
<path d="M439.7,254.5l-0.2,-1.3l-0.7,-1.1l-1.1,-0.4l-1.1,-0.1l0,1.6l0.9,0.2l0.3,0l0,0.2l0.2,0.9l0.2,0.5l0.6,0.2l0.5,-0.2l0.4,-0.5Z" class="g3_213" />
<path d="M439.7,271.4l0,-16.9l-1.7,0l0,16.9l0.2,0.5l0.6,0.2l0.5,-0.2l0.4,-0.5Z" class="g3_213" />
<path d="M437.5,273.4l0.7,0l0.9,-0.6l0.6,-0.7l0,-0.7l-1.7,0l0,0.3l0.2,0l-0.7,0l-0.6,0.2l-0.3,0.6l0.3,0.5l0.6,0.4Z" class="g3_213" />
<path d="M335.4,273.4l102.1,0l0,-1.7l-102.1,0l-0.8,0.2l-0.2,0.6l0.2,0.5l0.8,0.4Z" class="g3_213" />
<path d="M332.8,270.8l0.2,1.3l0.7,0.7l0.7,0.6l1,0l0,-1.7l-0.8,0l0,-0.1l-0.2,-0.8l-0.1,-0.5l-0.6,-0.2l-0.5,0.2l-0.4,0.5Z" class="g3_213" />
<path d="M421.5,252.5l-0.2,-0.8l-0.5,-0.1l-0.7,0.1l-0.2,0.8Z" class="g3_213" />
<path d="M420.8,272.5l0.7,0l0,-20l-1.6,0l0,20l0.9,0Z" class="g3_213" />
<path d="M419.9,272.5l0.2,0.5l0.7,0.4l0.5,-0.4l0.2,-0.5Z" class="g3_213" />
<path d="M390.4,252.5L390,251.7l-0.6,-0.1l-0.5,0.1l-0.2,0.8Z" class="g3_213" />
<path d="M389.4,272.5l1,0l0,-20l-1.7,0l0,20l0.7,0Z" class="g3_213" />
<path d="M388.7,272.5l0.2,0.5l0.5,0.4L390,273l0.4,-0.5Z" class="g3_213" />
<path d="M358.8,252.5l-0.2,-0.8l-0.7,-0.1l-0.5,0.1l-0.2,0.8Z" class="g3_213" />
<path d="M357.9,272.5l0.9,0l0,-20l-1.6,0l0,20l0.7,0Z" class="g3_213" />
<path d="M357.2,272.5l0.2,0.5l0.5,0.4l0.7,-0.4l0.2,-0.5Z" class="g3_213" />
<path fill-rule="evenodd" d="M345.3,262.7l1.2,-0.1l1.1,-1l0.8,-1.1l0.2,-1.2l-0.2,-1.5l-0.8,-1.1L346.5,256l-1.2,-0.2l-4.6,0l-0.8,0.2l-1.1,0.7l-0.7,1.1l-0.4,1.5l0.2,0.7l0.2,0.5l0.4,0.8l0.9,0.9l0.5,0.4l0.8,0l0.5,0.1l4.1,0Z" class="g3_213" />
<path d="M333.7,264.9l-0.4,0.2l-0.1,0.4l0.1,0.4l0.4,0.1Z" class="g3_213" />
<path d="M379.7,265.5l0.6,-0.6l-46.6,0l0,1.1l46.6,0l0.5,-0.5l-0.5,0.5l0.3,-0.1l0.2,-0.4l-0.2,-0.4l-0.3,-0.2Z" class="g3_213" />
<path d="M380.3,262.9l-0.6,0.6l0,2l1.1,0l0,-2l-0.5,0.7l0.5,-0.7l-0.5,-0.6l-0.6,0.6Z" class="g3_213" />
<path d="M387.8,263.5l-0.6,-0.6l-6.9,0l0,1.3l6.9,0l-0.5,-0.7l0.5,0.7l0.4,-0.4l0.2,-0.3l-0.6,-0.6Z" class="g3_213" />
<path d="M387.2,264.9l0.6,0.6l0,-2l-1.1,0l0,2l0.5,0.5l-0.5,-0.5l0.2,0.4l0.7,0l0.2,-0.4Z" class="g3_213" />
<path d="M438.8,265.5l0,-0.6l-51.6,0l0,1.1l51.6,0l0,-0.5Z" class="g3_213" />
<path d="M438.8,266l0.3,-0.1l0.2,-0.4l-0.2,-0.4l-0.3,-0.2Z" class="g3_213" />
<path d="M380.6,267.3l6.3,0l0,-3.3l-6.3,0l0,3.3Z" class="g4_213" />
<path fill-rule="evenodd" d="M387.4,262.6l-8.6,0l0,1.1l-10.3,0l0,-1.3l-8.6,0l0,-1.9l8.6,0l0,-1.4l10.3,0l0,1.3l8.6,0l0,2.2Z" class="g3_213" />
<path d="M427.8,264.9l4.4,0l0,-7.3l-4.4,0l0,7.3Z" class="g3_213" />
<path d="M333.5,283.3l104.9,0l0,-7.3l-104.9,0l0,7.3Z" class="g5_213" />
<path fill-rule="evenodd" d="M336.6,229.2l0,-73.5l0.6,-1.1l0.5,-0.8l1.5,-1.1l0.9,-0.1l0.8,-0.2l88.5,0l0.9,0.2l0.8,0.1l0.7,0.6l0.4,0.4l0.3,0.7l0.4,0.9l0,73.3l-0.4,0.8l-0.3,0.9l-0.4,0.5l-0.6,0.6l-0.7,0.5l-0.5,0.2l-0.8,0.2l-89.4,0l-1.5,-0.4l-1.1,-0.5l-0.6,-0.9l0,-1.3Z" class="g1_213" />
<path d="M335.9,157l0,72.2l1.3,0l0,-72.2l-0.4,-0.4l-0.2,-0.4l-0.7,0.8Z" class="g3_213" />
<g clip-path="url(#c0_213)">
<path d="M341.8,151.6l-1.9,0.4l-1.8,0.7l-0.7,0.8l-0.8,0.9l-0.3,1.1l-0.4,1.5l1.3,0l0,-1.1l0.4,-1l0.5,-0.7l0.6,-0.5l0.7,-0.4l0.9,-0.4l0.6,-0.2l0.9,0.2l0.5,-0.5L342.1,152l-0.3,-0.4Z" class="g3_213" />
</g>
<g clip-path="url(#c1_213)">
<path d="M428.5,151.6l-86.7,0l0,1.3l86.7,0l0.4,-0.3l0.3,-0.2l-0.7,-0.8Z" class="g3_213" />
</g>
<g clip-path="url(#c2_213)">
<path d="M433.4,156.2l-0.1,-0.9l-0.2,-1.1l-0.4,-0.7l-0.5,-0.6l-1,-0.5L430.5,152l-1.1,-0.2l-0.9,-0.2l0,1.3l0.9,-0.2l0.9,0.2l1.1,0.8l0.4,0.3l0.4,0.6l0.1,0.7l0,0.9l0.2,0.4l0.4,0.2l0.4,-0.2l0.1,-0.4Z" class="g3_213" />
</g>
<path d="M433.4,227.9l0,-71.7l-1.1,0l0,71.7l0.2,0.4l0.8,0l0.1,-0.4Z" class="g3_213" />
<path d="M429.2,232.9l0.9,-0.4l0.6,-0.2l0.9,-0.5l0.6,-0.6l0.5,-0.7l0.4,-0.9l0.2,-0.8l0.1,-0.9l-1.1,0l0,0.7l-0.1,0.8l-0.8,1.1l-0.5,0.5l-0.6,0.4l-0.5,0.2l-0.6,0l-0.3,0.3l0,0.6l0.3,0.4Z" class="g3_213" />
<path d="M339.8,232.9l89.4,0l0,-1.3l-89.4,0l-0.4,0.3l0,0.6l0.4,0.4Z" class="g3_213" />
<path d="M335.9,229.2l0.4,1.5l0.5,1.1l1.3,0.7l1.7,0.4l0,-1.3l-1.3,0L337.6,231l-0.4,-0.7l0,-1.1l-0.6,-0.6l-0.3,0.2l-0.4,0.4Z" class="g3_213" />
<path fill-rule="evenodd" d="M338.8,227.4l0,-69l0.2,-1.1l0.4,-0.9l0.5,-0.9l0.8,-0.6l0.7,-0.3l0.9,-0.4l0.8,-0.2l84.5,0l0.5,0.2l0.8,0.4l0.5,0.3l0.6,0.6l0.3,0.5l0.4,1.9l0,68.2l-0.2,0.7l-0.2,0.7l-0.3,0.8l-0.6,0.7l-0.9,0.9l-0.7,0.2l-0.6,0.2l-85.2,0l-1.5,-0.4l-0.9,-0.5L339,228.6l-0.2,-1.2Z" class="g6_213" />
<path d="M338.3,158.4l0,69l1.1,0l0,-69l-0.6,-0.5l-0.5,0.5Z" class="g3_213" />
<path d="M343.8,153.5l-0.7,0.2l-1.9,0.3l-0.7,0.6l-0.9,0.7l-0.8,0.9l-0.3,0.9l-0.2,1.3l1.1,0l0,-0.9l0.4,-0.9l0.5,-0.7l0.6,-0.4l0.7,-0.6l0.9,-0.1l0.6,-0.2l0.7,0l0.4,-0.2l0.1,-0.4l-0.1,-0.3l-0.4,-0.2Z" class="g3_213" />
<path d="M426.7,153.5l-82.9,0l0,1.1l82.9,0l0.3,-0.2l0.2,-0.4L427,153.7l-0.3,-0.2Z" class="g3_213" />
<path d="M431.2,157.9L431.1,157l-0.4,-1.1l-0.4,-0.6l-0.5,-0.7L429.2,154l-0.9,-0.2l-0.7,-0.1l-0.9,-0.2l0,1.1l0.9,0l1.1,0.3l0.5,0.4l0.2,0.4l0.4,0.5l0.3,0.8l0,0.9l0.2,0.3l0.8,0l0.1,-0.3Z" class="g3_213" />
<path d="M431.2,226.1l0,-68.2l-1.1,0l0,68.2l0.2,0.3l0.8,0l0.1,-0.3Z" class="g3_213" />
<path d="M427.2,230.8l0.7,-0.1l0.8,-0.4l0.7,-0.6l0.4,-0.3l0.5,-0.9l0.8,-1.5l0.1,-0.9l-1.1,0l0,0.5l-0.7,1.5l-0.2,0.5l-1.1,0.8l-0.5,0.2l-0.4,0l-0.4,0.3l-0.1,0.4l0.1,0.4l0.4,0.1Z" class="g3_213" />
<path d="M342,230.8l85.2,0l0,-1.2l-85.2,0l-0.4,0.3l0,0.8l0.4,0.1Z" class="g3_213" />
<path d="M338.3,227.4l0.2,1.2l0.7,1.1l1.1,0.8l1.7,0.3l0,-1.2l-1.3,0L339.9,229l-0.5,-0.5l0,-1.1L339.2,227l-0.4,-0.4l-0.3,0.4l-0.2,0.4Z" class="g3_213" />
<path fill-rule="evenodd" d="M354.1,215.6l0,-47.8l0.3,-1.3l0.8,-0.9l1.2,-0.6l58,0l0.7,0.6l0.7,0.7l0.2,0.9l0,47.5l-0.2,1.1l-0.7,0.7l-0.5,0.8l-1,0.3l-57.5,0l-0.9,-0.1l-0.6,-0.4l-0.4,-0.7l-0.1,-0.8Z" class="g3_213" />
<path fill-rule="evenodd" d="M411.4,234.3l0.6,-2l-52.8,0l0.5,2l51.7,0Z" class="g7_213" />
<path d="M412,232.9l-0.6,-0.8l-0.5,2l0.9,0.4l0.6,-2.2L412,231.6l0.4,0.7l0,-0.4L412,231.8l-0.2,0l-0.4,0.3Z" class="g3_213" />
<path d="M359.6,232.1l-0.4,0.8l52.8,0l0,-1.3l-52.8,0l-0.6,0.7l0.6,-0.7l-0.4,0.3l-0.2,0.4l0.6,0.6Z" class="g3_213" />
<path d="M359.7,233.8l0.4,0.3l-0.5,-2l-1,0.2l0.6,2.2l0.5,0.4l-0.5,-0.4l0.7,0.4l0.2,-0.4l0,-0.4Z" class="g3_213" />
<path d="M410.9,234.1l0.5,-0.3l-51.7,0l0,1.1l51.7,0l0.4,-0.4l-0.4,0.4l0.4,-0.2l0.2,-0.4L411.8,234l-0.4,-0.2Z" class="g3_213" />
<path d="M356.8,246.8l56.8,0l0,-5.1l-56.8,0l0,5.1Z" class="g7_213" />
<path d="M413.6,242.4l-0.5,-0.7l0,5.1l1.1,0l0,-5.1l-0.6,-0.6l0.6,0.6L414,241.3l-0.4,-0.2l-0.3,0.2l-0.2,0.4Z" class="g3_213" />
<path d="M357.4,241.7l-0.6,0.7l56.8,0l0,-1.3l-56.8,0l-0.5,0.6l0.5,-0.6l-0.4,0.2l0,0.7l0.4,0.4Z" class="g3_213" />
<path d="M356.8,246.2l0.6,0.6l0,-5.1l-1.1,0l0,5.1l0.5,0.5l-0.5,-0.5l0.1,0.4l0.4,0.1l0.4,-0.1l0.2,-0.4Z" class="g3_213" />
<path d="M413.1,246.8l0.5,-0.6l-56.8,0l0,1.1l56.8,0l0.6,-0.5l-0.6,0.5l0.4,-0.1l0.2,-0.4L414,246.4l-0.4,-0.2Z" class="g3_213" />
<path fill-rule="evenodd" d="M359.2,236.5l52.2,0l2.2,5.2l-56.8,0l2.4,-5.2Z" class="g8_213" />
<path d="M411.8,236.2l-0.4,-0.4l-52.2,0l0,1.3l52.2,0l-0.5,-0.4l0.5,0.4l0.4,-0.2l0.2,-0.4l-0.2,-0.3l-0.4,-0.4Z" class="g3_213" />
<path d="M413.6,242.4l0.6,-0.9l-2.4,-5.3l-0.9,0.5l2.4,5.3l0.3,-0.9l-0.3,0.9l0.2,0.2l0.3,0l0.4,-0.4l0,-0.3Z" class="g3_213" />
<path d="M356.4,241.5l0.4,0.9l56.8,0l0,-1.3l-56.8,0l0.6,0.9l-0.6,-0.9l-0.4,0.2l0,0.7l0.4,0.4Z" class="g3_213" />
<path d="M359.2,235.8l-0.6,0.4l-2.2,5.3l1,0.5l2.2,-5.3l-0.4,0.4l0.4,-0.4l0,-0.4L359.4,236l-0.4,0l-0.4,0.2Z" class="g3_213" />
<path fill-rule="evenodd" d="M405.6,234.3l-0.2,0.6l-0.4,0.5l-0.9,0.9l-1.5,1.1l-0.9,0.4l-1.1,0.6l-1.3,0.3l-2.9,0.8l-1.8,0.3l-1.9,0.2l-1.8,0.4l-9.3,0L379.5,240l-1.8,-0.2l-3.3,-0.7l-2.6,-0.7l-1.1,-0.6l-0.9,-0.4l-0.9,-0.5l-0.7,-0.6l-0.9,-0.9l-0.2,-0.5l-0.4,-0.6l38.9,0Z" class="g8_213" />
<path d="M386.3,241.1l2.4,0l2.2,-0.4l3.7,-0.3l2,-0.4l1.5,-0.4l1.2,-0.3l1.3,-0.6l1.3,-0.3l0.9,-0.6l0.9,-0.4l1.9,-1.8l0.2,-0.5l0.3,-0.6l-0.9,-0.4l-0.4,0.4l-0.1,0.7l-0.4,0.2l-1.1,1.1l-0.7,0.4l-1,0.5l-1.1,0.4l-1.2,0.6l-3,0.7l-1.6,0.4l-3.7,0.3l-4.6,0L386,240l-0.2,0.4l0.2,0.3l0.3,0.4Z" class="g3_213" />
<path d="M366.7,233.8l-0.4,0.7l0.2,0.6l0.8,1.1l0.7,0.5l0.7,0.7l1.9,1l1.1,0.3l1.2,0.6l3,0.7l1.8,0.4l1.8,0.2l2.1,0.1l2.2,0.4l2.5,0l0,-1.3l-4.7,0l-2.1,-0.2l-1.8,-0.1l-1.6,-0.4l-1.5,-0.4l-1.3,-0.3L372,237.8l-0.9,-0.4L370,236.9l-0.9,-0.4l-1.3,-1.3l-0.5,-1.1l-0.6,0.8l0.6,-0.8L367.1,234l-0.4,0l-0.4,0.1l0,0.4Z" class="g3_213" />
<path d="M406.1,234.5l-0.5,-0.7l-38.9,0l0,1.1l38.9,0l-0.4,-0.8l0.4,0.8l0.3,-0.2l0.2,-0.4L405.9,234l-0.3,-0.2Z" class="g3_213" />
<path fill-rule="evenodd" d="M455.6,313.4l-6.8,-32.5l-124.6,0l-5.9,32.5l0,3.4l137,0l0.3,-3.4Z" class="g1_213" />
<g clip-path="url(#c3_213)">
<path d="M448.8,281.5l-0.5,-0.6l6.6,32.6l1.3,-0.3l-6.8,-32.5l-0.6,-0.5l0.6,0.5l-0.2,-0.3l-0.5,-0.2l-0.4,0.7Z" class="g3_213" />
</g>
<path d="M324.7,280.9l-0.5,0.6l124.6,0l0,-1.3l-124.6,0l-0.8,0.5l0.8,-0.5l-0.6,0.2l-0.2,0.5l0.2,0.4l0.6,0.2Z" class="g3_213" />
<g clip-path="url(#c4_213)">
<path d="M318.9,313.4l0,0.1l5.8,-32.6l-1.3,-0.2l-5.8,32.5l0,0.2l0,-0.2l0.2,0.5l0.3,0.2l0.4,0l0.4,-0.4Z" class="g3_213" />
</g>
<g clip-path="url(#c5_213)">
<path d="M318.3,316.1l0.6,0.7l0,-3.4l-1.3,0l0,3.4l0.7,0.6l-0.7,-0.6l0.2,0.4l0.5,0.2l0.4,-0.2l0.2,-0.4Z" class="g3_213" />
</g>
<path d="M454.5,316.8l0.8,-0.7l-137,0l0,1.3l137,0l0.5,-0.6l-0.5,0.6l0.5,-0.2l0,-0.9l-0.5,-0.2Z" class="g3_213" />
<g clip-path="url(#c6_213)">
<path d="M454.9,313.5l0,-0.1l-0.4,3.4l1.3,0l0.4,-3.4l0,-0.2l0,0.2l-0.6,-0.6l-0.3,0.2l-0.4,0.4Z" class="g3_213" />
</g>
<g clip-path="url(#c7_213)">
<path d="M318.3,312.8l-0.4,0.2l-0.1,0.4l0.1,0.3l0.4,0.2Z" class="g3_213" />
</g>
<path d="M455.6,313.4l0,-0.6l-137.3,0l0,1.1l137.3,0l0,-0.5Z" class="g3_213" />
<g clip-path="url(#c8_213)">
<path d="M455.6,313.9l0.2,-0.2l0.2,-0.3L455.8,313l-0.2,-0.2Z" class="g3_213" />
</g>
<path fill-rule="evenodd" d="M424.1,284.8l0.4,4.2l18.8,0l-0.9,-4.2l-18.3,0Z" class="g1_213" />
<path d="M424.5,288.4l0.3,0.6l-0.3,-4.2l-1,0l0.4,4.2l0.6,0.3L423.9,289l0.2,0.3l0.7,0l0,-0.3Z" class="g3_213" />
<path d="M443,289l0.3,-0.6l-18.8,0l0,0.9l18.8,0l0.6,-0.3l-0.6,0.3l0.4,0l0.2,-0.3l-0.2,-0.4l-0.4,-0.2Z" class="g3_213" />
<path d="M442.4,285.1l-0.3,-0.3L443,289l0.9,0L443,284.8l-0.6,-0.6l0.6,0.6l-0.2,-0.4l-0.4,-0.2l-0.2,0.2l-0.1,0.4Z" class="g3_213" />
<path d="M424.5,284.8l-0.4,0.3l18.3,0l0,-0.9l-18.3,0l-0.6,0.6l0.6,-0.6l-0.4,0.2l-0.2,0.4l0.2,0.3l0.4,0Z" class="g3_213" />
<path fill-rule="evenodd" d="M425.4,293l2.2,16l19,0l-2.5,-16l-18.7,0Z" class="g1_213" />
<path d="M427.6,308.6l0.5,0.4l-2.2,-16l-0.9,0l2.2,16l0.4,0.5L427.2,309l0,0.3l0.4,0.2l0.3,-0.2l0.2,-0.3Z" class="g3_213" />
<path d="M446.3,309l0.3,-0.4l-19,0l0,0.9l19,0l0.6,-0.5l-0.6,0.5l0.4,-0.2l0.2,-0.3L447,308.6l-0.4,0Z" class="g3_213" />
<path d="M444.1,293.4L443.5,293l2.8,16l0.9,0l-2.8,-16l-0.3,-0.5l0.3,0.5l0,-0.4l-0.3,-0.1l-0.4,0.1l-0.2,0.4Z" class="g3_213" />
<path d="M425.9,293l-0.5,0.4l18.7,0l0,-0.9l-18.7,0L425,293l0.4,-0.5l-0.2,0.1L425,293l0.4,0.4Z" class="g3_213" />
<path fill-rule="evenodd" d="M421.2,293l2.3,16l-6.9,0L416,305.7l-5.8,0l0.1,3.3l-59.7,0l0.2,-3.3l-6.5,0l-0.5,3.3l-6.4,0l2,-16l81.8,0Z" class="g1_213" />
<path d="M423.5,309.5l0.4,-0.5l-2.2,-16l-0.9,0l2.2,16l0.5,-0.4L423,309l0.2,0.3l0.3,0.2l0.4,-0.2l0,-0.3Z" class="g3_213" />
<path d="M416,309l0.6,0.5l6.9,0l0,-0.9l-6.9,0l0.3,0.4l-0.3,-0.4l-0.4,0L416,309l0.2,0.3l0.4,0.2Z" class="g3_213" />
<path d="M416,306l-0.3,-0.3L416,309l0.9,0l-0.3,-3.3L416,305.1l0.6,0.6l-0.2,-0.4L416,305.1l-0.2,0.2l-0.1,0.4Z" class="g3_213" />
<path d="M410.5,305.7l-0.3,0.3l5.8,0l0,-0.9l-5.8,0l-0.6,0.6l0.6,-0.6l-0.4,0.2l-0.2,0.4l0.2,0.3l0.4,0Z" class="g3_213" />
<path d="M410.3,309.5l0.6,-0.5l-0.4,-3.3l-0.9,0l0.2,3.3l0.5,-0.4l-0.5,0.4l0.2,0.3l0.3,0.2l0.4,-0.2l0.2,-0.3Z" class="g3_213" />
<path d="M350.2,309l0.4,0.5l59.7,0l0,-0.9l-59.7,0l0.5,0.4l-0.5,-0.4l-0.4,0l0,0.7l0.4,0.2Z" class="g3_213" />
<path d="M350.8,306l-0.4,-0.3l-0.2,3.3l0.9,0l0.2,-3.3l-0.5,-0.6l0.5,0.6l-0.2,-0.4l-0.3,-0.2l-0.2,0.2l-0.2,0.4Z" class="g3_213" />
<path d="M344.9,305.7l-0.6,0.3l6.5,0l0,-0.9l-6.5,0l-0.3,0.6l0.3,-0.6l-0.3,0.2l0,0.7l0.3,0Z" class="g3_213" />
<path d="M343.8,309.5l0.5,-0.5l0.6,-3.3l-0.9,0l-0.6,3.3l0.4,-0.4l-0.4,0.4l0,0.3l0.4,0.2l0.4,-0.2l0.1,-0.3Z" class="g3_213" />
<path d="M336.8,309l0.6,0.5l6.4,0l0,-0.9l-6.4,0l0.3,0.4l-0.3,-0.4l-0.4,0l-0.2,0.4l0.2,0.3l0.4,0.2Z" class="g3_213" />
<path d="M339.4,292.6L339,293l-2.2,16l0.9,0l2.2,-16l-0.5,0.6l0.5,-0.6l-0.1,-0.4l-0.8,0l0,0.4Z" class="g3_213" />
<path d="M421.7,293l-0.5,-0.4l-81.8,0l0,1l81.8,0L420.8,293l0.4,0.6l0.3,-0.2l0.2,-0.4l-0.2,-0.4l-0.3,0Z" class="g3_213" />
<path fill-rule="evenodd" d="M335.5,293l-2.2,16l-8.9,0l2.7,-16l8.4,0Z" class="g1_213" />
<path d="M333.3,309.5l0.4,-0.5l2.4,-16l-0.9,0l-2.4,16l0.5,-0.4l-0.5,0.4l0.2,0.3l0.3,0.2l0.4,-0.2l0,-0.3Z" class="g3_213" />
<path d="M324,309l0.4,0.5l8.9,0l0,-0.9l-8.9,0l0.5,0.4l-0.5,-0.4l-0.2,0L324,309l0.2,0.3l0.2,0.2Z" class="g3_213" />
<path d="M327.1,292.6l-0.5,0.4L324,309l0.9,0l2.6,-16l-0.4,0.6l0.4,-0.6l0,-0.4l-0.8,0l-0.1,0.4Z" class="g3_213" />
<path d="M336.1,293l-0.6,-0.4l-8.4,0l0,1l8.4,0L335.2,293l0.3,0.6l0.4,-0.2l0.2,-0.4l-0.2,-0.4l-0.4,0Z" class="g3_213" />
<path fill-rule="evenodd" d="M334.3,284.8l-0.8,4.2l-5.8,0l0.9,-4.2l5.7,0Z" class="g1_213" />
<path d="M333.5,289.3l0.4,-0.3l0.7,-4.2l-0.9,0L333,289l0.5,-0.6L333,289l0.2,0.3l0.5,0l0.2,-0.3Z" class="g3_213" />
<path d="M327.3,289l0.4,0.3l5.8,0l0,-0.9l-5.8,0l0.5,0.6l-0.5,-0.6l-0.4,0.2l0,0.7l0.4,0Z" class="g3_213" />
<path d="M328.6,284.2l-0.4,0.6l-0.9,4.2l0.9,0l0.9,-4.2l-0.5,0.3l0.5,-0.3l-0.2,-0.4l-0.3,-0.2l-0.4,0.2l0,0.4Z" class="g3_213" />
<path d="M334.6,284.8l-0.3,-0.6l-5.7,0l0,0.9l5.7,0l-0.6,-0.3l0.6,0.3l0.3,0l0,-0.7l-0.3,-0.2Z" class="g3_213" />
<path d="M326.6,290.6l-0.4,0.2l-0.2,0.4l0.2,0.3l0.4,0.2Z" class="g3_213" />
<path d="M445.5,291.2l0,-0.6l-118.9,0l0,1.1l118.9,0l0,-0.5Z" class="g3_213" />
<path d="M445.5,291.7l0.4,-0.2l0,-0.7l-0.4,-0.2Z" class="g3_213" />
<path fill-rule="evenodd" d="M645,283.3l0,-30.6l0.2,-1l0.4,-0.3L647,251l104.2,0l0.9,0.2l0.9,0.4l0.4,0.5l0.2,1.3l0,31.2l-0.2,0.3l-0.6,0.2l-106.7,0l-0.5,-0.3l-0.4,-0.6L645,283.3Z" class="g1_213" />
<path d="M644.5,252.7l0,30.6l1.1,0l0,-30.6l-0.2,-0.4L645,252.1l-0.3,0.2l-0.2,0.4Z" class="g3_213" />
<path d="M647,250.5l-0.9,0l-0.7,0.3l-0.9,0.8l0,1.1l1.1,0l0.2,-0.6l0,-0.4l0.7,0l0.5,-0.1l0.4,-0.2l0.2,-0.4l-0.2,-0.4L647,250.5Z" class="g3_213" />
<path d="M751.2,250.5l-104.2,0l0,1.1l104.2,0l0.5,-0.6l-0.5,-0.5Z" class="g3_213" />
<path d="M754.1,253.4l-0.2,-1.3L753.4,251l-1.1,-0.5l-1.1,0l0,1.1l0.9,0.1l0.5,0.2l0.2,0.4l0.2,1.1l0.2,0.4l0.7,0l0.2,-0.4Z" class="g3_213" />
<path d="M754.1,283.8l0,-30.4l-1.1,0l0,30.4l0.2,0.4l0.4,0.2l0.3,-0.2l0.2,-0.4Z" class="g3_213" />
<path d="M752.1,285.9l0.9,0l0.6,-0.4l0.5,-0.7l0,-1l-1.1,0l0,0.6l-0.4,0.2l-0.5,0l-0.4,0.2l0,0.7l0.4,0.4Z" class="g3_213" />
<path d="M646.9,285.9l105.2,0l0,-1.3l-105.2,0l-0.4,0.2l0,0.7l0.4,0.4Z" class="g3_213" />
<path d="M644.5,283.3l0,1.1l0.7,0.9l0.9,0.4l0.8,0.2l0,-1.3l-0.6,-0.2l-0.4,0l-0.1,-0.2l-0.2,-0.9l-0.2,-0.4L645,282.7l-0.3,0.2l-0.2,0.4Z" class="g3_213" />
<path fill-rule="evenodd" d="M645,251.7l0.6,-0.5l0.9,-1.7l1.6,-2l1.9,-2.2l1.6,-2.2l1.9,-1.8l1.1,-1.5l0.5,-0.3l87.6,0l0.6,0.3l1.5,1.5l1.6,2l1.8,2.2l2.1,2.2l3.3,4.4l0,1.3l-0.2,-1.3L753,251.6l-0.9,-0.4L751.2,251L647,251l-1.4,0.4l-0.4,0.3l-0.2,1l0,-1Z" class="g1_213" />
<path d="M655.1,238.7l-0.9,0.8l-1.3,1.4l-1.6,1.9l-1.7,2.2l-2,2.3l-1.5,1.9l-1.1,1.6l-0.5,0.9l1.1,0l0.3,-0.1l1.1,-1.7l1.5,-2l2,-2.2l1.7,-2.2l1.6,-1.8l1.1,-1.5l0.2,-0.2l0.4,-0.2l0.2,-0.3l-0.2,-0.4l-0.4,-0.4Z" class="g3_213" />
<path d="M742.7,238.7l-87.6,0l0,1.3l87.6,0l0.4,-0.2l0.2,-0.3l-0.2,-0.4l-0.4,-0.4Z" class="g3_213" />
<path d="M754.1,252.1L753.6,251l-1.3,-1.5l-1.5,-2.2l-2,-2.2L747,242.9l-1.9,-2l-1.4,-1.4l-1,-0.8l0,1.3l0.4,0.2l1.1,1.5l1.8,2l1.9,2.2l2,2.2l1.5,2.2l1.2,1.4l0.4,0.4l0.2,0.4l0.4,0.2l0.3,-0.2l0.2,-0.4Z" class="g3_213" />
<path d="M753,253.4l1.1,0l0,-1.3l-1.1,0l0,1.3l1.1,0l-1.1,0l0.2,0.4l0.7,0l0.2,-0.4Z" class="g3_213" />
<path d="M751.2,251.6l0.9,0.1l0.5,0.2l0.2,0.4l0.2,1.1l1.1,0l-0.2,-1.3L753.4,251l-1.1,-0.5l-1.1,0l-0.4,0.1l-0.2,0.4l0.2,0.4l0.4,0.2Z" class="g3_213" />
<path d="M647,251.6l104.2,0l0,-1.1l-104.2,0l-0.3,0.1l0,0.8l0.3,0.2Z" class="g3_213" />
<path d="M644.5,252.7l1.1,0l0.2,-0.6l0,-0.4l0.7,0l0.5,-0.1l0,-1.1l-0.9,0l-0.7,0.3l-0.9,0.8l0,1.1l1.1,0l-1.1,0l0.2,0.3l0.3,0.2l0.4,-0.2l0.2,-0.3Z" class="g3_213" />
<path d="M644.5,251.7l0,1l1.1,0l0,-1L645,251.2l-0.5,0.5Z" class="g3_213" />
<path fill-rule="evenodd" d="M646.7,270.8l0,-17.6l0.3,-0.3l0.6,-0.4l102.8,0l0.8,0.4l0.5,0.5l0,18.5l-0.2,0.4l-0.3,0.2l-103.6,0L647,272.3l-0.3,-0.6l0,-0.9Z" class="g1_213" />
<path d="M645.8,253.8l0,17l1.6,0l0,-17l-0.2,-0.6L646.7,253l-0.6,0.2l-0.3,0.6Z" class="g3_213" />
<path d="M648.5,251.6l-0.9,0.1l-0.9,0.4l-0.6,0.7l-0.3,1l1.6,0l0,-0.4l0.4,0l0.7,-0.2l0.6,-0.2l0.1,-0.5l-0.1,-0.8l-0.6,-0.1Z" class="g3_213" />
<path d="M749.5,251.6l-101,0l0,1.6l101,0l0.6,-0.2l0.2,-0.5l-0.2,-0.8l-0.6,-0.1Z" class="g3_213" />
<path d="M752.6,254.5l-0.1,-1.3l-0.8,-1.1l-1.1,-0.4l-1.1,-0.1l0,1.6l0.9,0.2l0.4,0l0,0.2l0.2,0.9l0.2,0.5l0.5,0.2l0.6,-0.2l0.3,-0.5Z" class="g3_213" />
<path d="M752.6,271.4l0,-16.9l-1.6,0l0,16.9l0.2,0.5l0.5,0.2l0.6,-0.2l0.3,-0.5Z" class="g3_213" />
<path d="M750.4,273.4l0.8,0l0.9,-0.6l0.5,-0.7l0,-0.7l-1.6,0l0,0.3l0.2,0l-0.8,0l-0.5,0.2l-0.4,0.6l0.4,0.5l0.5,0.4Z" class="g3_213" />
<path d="M648.3,273.4l102.1,0l0,-1.7l-102.1,0l-0.7,0.2l-0.2,0.6l0.2,0.5l0.7,0.4Z" class="g3_213" />
<path d="M645.8,270.8l0.1,1.3l0.8,0.7l0.7,0.6l0.9,0l0,-1.7l-0.7,0l0,-0.1l-0.2,-0.8l-0.2,-0.5l-0.5,-0.2l-0.6,0.2l-0.3,0.5Z" class="g3_213" />
<path d="M734.5,252.5l-0.2,-0.8l-0.5,-0.1l-0.8,0.1l-0.2,0.8Z" class="g3_213" />
<path d="M733.8,272.5l0.7,0l0,-20l-1.7,0l0,20l1,0Z" class="g3_213" />
<path d="M732.8,272.5L733,273l0.8,0.4l0.5,-0.4l0.2,-0.5Z" class="g3_213" />
<path d="M703.3,252.5L703,251.7l-0.6,-0.1l-0.5,0.1l-0.2,0.8Z" class="g3_213" />
<path d="M702.4,272.5l0.9,0l0,-20l-1.6,0l0,20l0.7,0Z" class="g3_213" />
<path d="M701.7,272.5l0.2,0.5l0.5,0.4L703,273l0.3,-0.5Z" class="g3_213" />
<path d="M671.8,252.5l-0.2,-0.8l-0.7,-0.1l-0.6,0.1l-0.2,0.8Z" class="g3_213" />
<path d="M670.9,272.5l0.9,0l0,-20l-1.7,0l0,20l0.8,0Z" class="g3_213" />
<path d="M670.1,272.5l0.2,0.5l0.6,0.4l0.7,-0.4l0.2,-0.5Z" class="g3_213" />
<path fill-rule="evenodd" d="M658.2,262.7l1.3,-0.1l1.1,-1l0.7,-1.1l0.2,-1.2l-0.2,-1.5l-0.7,-1.1L659.5,256l-1.3,-0.2l-4.6,0l-0.7,0.2l-1.1,0.7l-0.7,1.1l-0.4,1.5l0.2,0.7l0.2,0.5l0.3,0.8l1,0.9l0.5,0.4l0.7,0l0.6,0.1l4,0Z" class="g3_213" />
<path d="M646.7,264.9l-0.4,0.2l-0.2,0.4l0.2,0.4l0.4,0.1Z" class="g3_213" />
<path d="M692.7,265.5l0.5,-0.6l-46.5,0l0,1.1l46.5,0l0.6,-0.5l-0.6,0.5l0.4,-0.1l0.2,-0.4l-0.2,-0.4l-0.4,-0.2Z" class="g3_213" />
<path d="M693.2,262.9l-0.5,0.6l0,2l1.1,0l0,-2l-0.6,0.7l0.6,-0.7l-0.6,-0.6l-0.5,0.6Z" class="g3_213" />
<path d="M700.8,263.5l-0.6,-0.6l-7,0l0,1.3l7,0l-0.5,-0.7l0.5,0.7l0.4,-0.4l0.2,-0.3l-0.6,-0.6Z" class="g3_213" />
<path d="M700.2,264.9l0.6,0.6l0,-2l-1.1,0l0,2l0.5,0.5l-0.5,-0.5l0.1,0.4l0.8,0l0.2,-0.4Z" class="g3_213" />
<path d="M751.7,265.5l0,-0.6l-51.5,0l0,1.1l51.5,0l0,-0.5Z" class="g3_213" />
<path d="M751.7,266l0.4,-0.1l0.2,-0.4l-0.2,-0.4l-0.4,-0.2Z" class="g3_213" />
<path d="M693.6,267.3l6.2,0l0,-3.3l-6.2,0l0,3.3Z" class="g4_213" />
<path fill-rule="evenodd" d="M700.4,262.6l-8.6,0l0,1.1l-10.3,0l0,-1.3l-8.6,0l0,-1.9l8.6,0l0,-1.4l10.3,0l0,1.3l8.6,0l0,2.2Z" class="g3_213" />
<path d="M740.7,264.9l4.4,0l0,-7.3l-4.4,0l0,7.3Z" class="g3_213" />
<path d="M646.5,283.3l104.9,0l0,-7.3l-104.9,0l0,7.3Z" class="g5_213" />
<path fill-rule="evenodd" d="M649.6,229.2l0,-73.5l0.6,-1.1l0.5,-0.8l1.5,-1.1l0.9,-0.1l0.7,-0.2l88.6,0l0.9,0.2l0.7,0.1l0.8,0.6l0.3,0.4l0.4,0.7l0.4,0.9l0,73.3l-0.4,0.8l-0.4,0.9l-0.3,0.5l-0.6,0.6l-0.7,0.5l-0.6,0.2l-0.7,0.2l-89.5,0l-1.4,-0.4l-1.1,-0.5l-0.6,-0.9l0,-1.3Z" class="g1_213" />
<path d="M648.9,157l0,72.2l1.3,0l0,-72.2l-0.4,-0.4l-0.2,-0.4l-0.7,0.8Z" class="g3_213" />
<g clip-path="url(#c9_213)">
<path d="M654.7,151.6l-1.8,0.4l-1.8,0.7l-0.8,0.8l-0.7,0.9l-0.4,1.1l-0.3,1.5l1.3,0l0,-1.1l0.3,-1l0.6,-0.7l0.5,-0.5l0.8,-0.4l0.9,-0.4l0.5,-0.2l0.9,0.2l0.6,-0.5L655.1,152l-0.4,-0.4Z" class="g3_213" />
</g>
<g clip-path="url(#c10_213)">
<path d="M741.5,151.6l-86.8,0l0,1.3l86.8,0l0.3,-0.3l0.4,-0.2l-0.7,-0.8Z" class="g3_213" />
</g>
<g clip-path="url(#c11_213)">
<path d="M746.4,156.2l-0.2,-0.9L746,154.2l-0.3,-0.7l-0.6,-0.6l-0.9,-0.5L743.5,152l-1.1,-0.2l-0.9,-0.2l0,1.3l0.9,-0.2l0.9,0.2l1.1,0.8l0.4,0.3l0.3,0.6l0.2,0.7l0,0.9l0.2,0.4l0.4,0.2l0.3,-0.2l0.2,-0.4Z" class="g3_213" />
</g>
<path d="M746.4,227.9l0,-71.7l-1.1,0l0,71.7l0.2,0.4l0.7,0l0.2,-0.4Z" class="g3_213" />
<path d="M742.2,232.9l0.9,-0.4l0.6,-0.2l0.9,-0.5l0.5,-0.6l0.6,-0.7l0.3,-0.9l0.2,-0.8l0.2,-0.9l-1.1,0l0,0.7l-0.2,0.8l-0.7,1.1l-0.6,0.5l-0.5,0.4l-0.6,0.2l-0.5,0l-0.4,0.3l0,0.6l0.4,0.4Z" class="g3_213" />
<path d="M652.7,232.9l89.5,0l0,-1.3l-89.5,0l-0.3,0.3l0,0.6l0.3,0.4Z" class="g3_213" />
<path d="M648.9,229.2l0.3,1.5l0.6,1.1l1.3,0.7l1.6,0.4l0,-1.3l-1.3,0L650.5,231l-0.3,-0.7l0,-1.1l-0.6,-0.6l-0.4,0.2l-0.3,0.4Z" class="g3_213" />
<path fill-rule="evenodd" d="M651.8,227.4l0,-69l0.2,-1.1l0.4,-0.9l0.5,-0.9l0.7,-0.6l0.8,-0.3l0.9,-0.4L656,154l84.5,0l0.6,0.2l0.7,0.4l0.6,0.3l0.5,0.6l0.4,0.5l0.4,1.9l0,68.2l-0.4,1.4l-0.4,0.8l-0.5,0.7l-0.9,0.9l-0.8,0.2l-0.5,0.2l-85.3,0l-1.4,-0.4l-1,-0.5L652,228.6l-0.2,-1.2Z" class="g6_213" />
<path d="M651.3,158.4l0,69l1.1,0l0,-69l-0.6,-0.5l-0.5,0.5Z" class="g3_213" />
<path d="M656.8,153.5l-0.8,0.2l-1.8,0.3l-0.7,0.6l-1,0.7l-0.7,0.9l-0.4,0.9l-0.1,1.3l1.1,0l0,-0.9l0.3,-0.9l0.6,-0.7l0.5,-0.4l0.8,-0.6l0.9,-0.1l0.5,-0.2l0.8,0l0.3,-0.2l0.2,-0.4l-0.2,-0.3l-0.3,-0.2Z" class="g3_213" />
<path d="M739.6,153.5l-82.8,0l0,1.1l82.8,0l0.4,-0.2l0.2,-0.4L740,153.7l-0.4,-0.2Z" class="g3_213" />
<path d="M744.2,157.9L744,157l-0.3,-1.1l-0.4,-0.6l-0.6,-0.7L742.2,154l-0.9,-0.2l-0.8,-0.1l-0.9,-0.2l0,1.1l0.9,0l1.1,0.3l0.6,0.4l0.2,0.4l0.3,0.5l0.4,0.8l0,0.9l0.2,0.3l0.7,0l0.2,-0.3Z" class="g3_213" />
<path d="M744.2,226.1l0,-68.2l-1.1,0l0,68.2l0.2,0.3l0.7,0l0.2,-0.3Z" class="g3_213" />
<path d="M740.2,230.8l0.7,-0.1l0.7,-0.4l0.8,-0.6l0.3,-0.3l0.6,-0.9L744,227l0.2,-0.9l-1.1,0l0,0.5l-0.7,1.5l-0.2,0.5l-1.1,0.8l-0.6,0.2l-0.3,0l-0.4,0.3l-0.2,0.4l0.2,0.4l0.4,0.1Z" class="g3_213" />
<path d="M654.9,230.8l85.3,0l0,-1.2l-85.3,0l-0.3,0.3l0,0.8l0.3,0.1Z" class="g3_213" />
<path d="M651.3,227.4l0.1,1.2l0.8,1.1l1.1,0.8l1.6,0.3l0,-1.2l-1.3,0L652.9,229l-0.5,-0.5l0,-1.1L652.2,227l-0.4,-0.4l-0.4,0.4l-0.1,0.4Z" class="g3_213" />
<path fill-rule="evenodd" d="M667,215.6l0,-47.8l0.4,-1.3l0.7,-0.9l1.3,-0.6l57.9,0l0.8,0.6l0.7,0.7l0.2,0.9l0,47.5l-0.2,1.1l-0.7,0.7l-0.6,0.8l-0.9,0.3l-57.6,0l-0.9,-0.1l-0.5,-0.4l-0.4,-0.7L667,215.6Z" class="g3_213" />
<path fill-rule="evenodd" d="M724.4,234.3l0.6,-2l-52.8,0l0.5,2l51.7,0Z" class="g7_213" />
<path d="M725,232.9l-0.6,-0.8l-0.5,2l0.9,0.4l0.5,-2.2L725,231.6l0.3,0.7l0,-0.4L725,231.8l-0.2,0l-0.4,0.3Z" class="g3_213" />
<path d="M672.5,232.1l-0.3,0.8l52.8,0l0,-1.3l-52.8,0l-0.6,0.7l0.6,-0.7l-0.4,0.3l-0.2,0.4l0.6,0.6Z" class="g3_213" />
<path d="M672.7,233.8l0.4,0.3l-0.6,-2l-0.9,0.2l0.6,2.2l0.5,0.4l-0.5,-0.4l0.7,0.4l0.2,-0.4l0,-0.4Z" class="g3_213" />
<path d="M723.9,234.1l0.5,-0.3l-51.7,0l0,1.1l51.7,0l0.4,-0.4l-0.4,0.4l0.4,-0.2l0.2,-0.4L724.8,234l-0.4,-0.2Z" class="g3_213" />
<path d="M669.8,246.8l56.8,0l0,-5.1l-56.8,0l0,5.1Z" class="g7_213" />
<path d="M726.6,242.4l-0.5,-0.7l0,5.1l1.1,0l0,-5.1l-0.6,-0.6l0.6,0.6L727,241.3l-0.4,-0.2l-0.4,0.2l-0.1,0.4Z" class="g3_213" />
<path d="M670.3,241.7l-0.5,0.7l56.8,0l0,-1.3l-56.8,0l-0.6,0.6l0.6,-0.6l-0.4,0.2l0,0.7l0.4,0.4Z" class="g3_213" />
<path d="M669.8,246.2l0.5,0.6l0,-5.1l-1.1,0l0,5.1l0.6,0.5l-0.6,-0.5l0.2,0.4l0.4,0.1l0.3,-0.1l0.2,-0.4Z" class="g3_213" />
<path d="M726.1,246.8l0.5,-0.6l-56.8,0l0,1.1l56.8,0l0.6,-0.5l-0.6,0.5l0.4,-0.1l0.2,-0.4L727,246.4l-0.4,-0.2Z" class="g3_213" />
<path fill-rule="evenodd" d="M672.2,236.5l52.2,0l2.2,5.2l-56.8,0l2.4,-5.2Z" class="g8_213" />
<path d="M724.8,236.2l-0.4,-0.4l-52.2,0l0,1.3l52.2,0l-0.5,-0.4l0.5,0.4l0.4,-0.2l0.2,-0.4l-0.2,-0.3l-0.4,-0.4Z" class="g3_213" />
<path d="M726.6,242.4l0.6,-0.9l-2.4,-5.3l-0.9,0.5l2.3,5.3l0.4,-0.9l-0.4,0.9l0.2,0.2l0.4,0l0.4,-0.4l0,-0.3Z" class="g3_213" />
<path d="M669.4,241.5l0.4,0.9l56.8,0l0,-1.3l-56.8,0l0.5,0.9l-0.5,-0.9l-0.4,0.2l0,0.7l0.4,0.4Z" class="g3_213" />
<path d="M672.2,235.8l-0.6,0.4l-2.2,5.3l0.9,0.5l2.2,-5.3l-0.3,0.4l0.3,-0.4l0,-0.4L672.3,236l-0.3,0l-0.4,0.2Z" class="g3_213" />
<path fill-rule="evenodd" d="M718.5,234.3l-0.1,0.6l-0.4,0.5l-0.9,0.9l-1.5,1.1l-0.9,0.4l-1.1,0.6l-1.3,0.3l-2.9,0.8l-1.9,0.3l-1.8,0.2l-1.8,0.4l-9.4,0l-2,-0.4l-1.8,-0.2l-3.3,-0.7l-2.6,-0.7l-1.1,-0.6l-0.9,-0.4l-0.9,-0.5l-0.8,-0.6l-0.9,-0.9L680,234.9l-0.3,-0.6l38.8,0Z" class="g8_213" />
<path d="M699.3,241.1l2.4,0l2.2,-0.4l3.6,-0.3l2.1,-0.4l1.4,-0.4l1.3,-0.3l1.3,-0.6l1.3,-0.3l0.9,-0.6l0.9,-0.4l1.8,-1.8l0.2,-0.5l0.4,-0.6l-0.9,-0.4l-0.4,0.4l-0.2,0.7l-0.3,0.2l-1.1,1.1l-0.8,0.4l-0.9,0.5l-1.1,0.4l-1.3,0.6l-2.9,0.7l-1.7,0.4l-3.6,0.3l-4.6,0l-0.4,0.2l-0.2,0.4l0.2,0.3l0.4,0.4Z" class="g3_213" />
<path d="M679.7,233.8l-0.4,0.7l0.2,0.6l0.7,1.1l0.8,0.5l0.7,0.7l1.8,1l1.1,0.3l1.3,0.6l2.9,0.7l1.9,0.4l1.8,0.2l2,0.1l2.2,0.4l2.6,0l0,-1.3l-4.8,0l-2,-0.2l-1.8,-0.1L689,239.1l-1.4,-0.4l-1.3,-0.3L685,237.8l-0.9,-0.4L683,236.9l-0.9,-0.4l-1.3,-1.3l-0.6,-1.1l-0.5,0.8l0.5,-0.8L680,234l-0.3,0l-0.4,0.1l0,0.4Z" class="g3_213" />
<path d="M719.1,234.5l-0.6,-0.7l-38.8,0l0,1.1l38.8,0l-0.3,-0.8l0.3,0.8l0.4,-0.2l0.2,-0.4L718.9,234l-0.4,-0.2Z" class="g3_213" />
<path fill-rule="evenodd" d="M768.6,313.4l-6.8,-32.5l-124.7,0l-5.8,32.5l0,3.4l136.9,0l0.4,-3.4Z" class="g1_213" />
<g clip-path="url(#c12_213)">
<path d="M761.8,281.5l-0.5,-0.6l6.6,32.6l1.2,-0.3l-6.7,-32.5l-0.6,-0.5l0.6,0.5l-0.2,-0.3l-0.6,-0.2l-0.3,0.7Z" class="g3_213" />
</g>
<path d="M637.7,280.9l-0.6,0.6l124.7,0l0,-1.3l-124.7,0l-0.7,0.5l0.7,-0.5l-0.5,0.2l-0.2,0.5l0.2,0.4l0.5,0.2Z" class="g3_213" />
<g clip-path="url(#c13_213)">
<path d="M631.8,313.4l0,0.1l5.9,-32.6l-1.3,-0.2l-5.9,32.5l0,0.2l0,-0.2l0.2,0.5l0.4,0.2l0.4,0l0.3,-0.4Z" class="g3_213" />
</g>
<g clip-path="url(#c14_213)">
<path d="M631.3,316.1l0.5,0.7l0,-3.4l-1.3,0l0,3.4l0.8,0.6l-0.8,-0.6l0.2,0.4l0.6,0.2l0.3,-0.2l0.2,-0.4Z" class="g3_213" />
</g>
<path d="M767.5,316.8l0.7,-0.7l-136.9,0l0,1.3l136.9,0l0.6,-0.6l-0.6,0.6l0.6,-0.2l0,-0.9l-0.6,-0.2Z" class="g3_213" />
<g clip-path="url(#c15_213)">
<path d="M767.9,313.5l0,-0.1l-0.4,3.4l1.3,0l0.3,-3.4l0,-0.2l0,0.2l-0.5,-0.6l-0.4,0.2l-0.3,0.4Z" class="g3_213" />
</g>
<g clip-path="url(#c16_213)">
<path d="M631.3,312.8l-0.4,0.2l-0.2,0.4l0.2,0.3l0.4,0.2Z" class="g3_213" />
</g>
<path d="M768.6,313.4l0,-0.6l-137.3,0l0,1.1l137.3,0l0,-0.5Z" class="g3_213" />
<g clip-path="url(#c17_213)">
<path d="M768.6,313.9l0.2,-0.2l0.2,-0.3L768.8,313l-0.2,-0.2Z" class="g3_213" />
</g>
<path fill-rule="evenodd" d="M737.1,284.8l0.3,4.2l18.9,0l-0.9,-4.2l-18.3,0Z" class="g1_213" />
<path d="M737.4,288.4l0.4,0.6l-0.4,-4.2l-0.9,0l0.4,4.2l0.5,0.3L736.9,289l0.2,0.3l0.7,0l0,-0.3Z" class="g3_213" />
<path d="M755.9,289l0.4,-0.6l-18.9,0l0,0.9l18.9,0l0.6,-0.3l-0.6,0.3l0.4,0l0.2,-0.3l-0.2,-0.4l-0.4,-0.2Z" class="g3_213" />
<path d="M755.4,285.1L755,284.8l0.9,4.2l1,0l-1,-4.2l-0.5,-0.6l0.5,0.6l-0.1,-0.4l-0.4,-0.2l-0.2,0.2l-0.2,0.4Z" class="g3_213" />
<path d="M737.4,284.8l-0.3,0.3l18.3,0l0,-0.9l-18.3,0l-0.6,0.6l0.6,-0.6l-0.4,0.2l-0.2,0.4l0.2,0.3l0.4,0Z" class="g3_213" />
<path fill-rule="evenodd" d="M738.3,293l2.2,16l19.1,0L757,293l-18.7,0Z" class="g1_213" />
<path d="M740.5,308.6l0.6,0.4l-2.2,-16l-0.9,0l2.2,16l0.3,0.5L740.2,309l0,0.3l0.3,0.2l0.4,-0.2l0.2,-0.3Z" class="g3_213" />
<path d="M759.2,309l0.4,-0.4l-19.1,0l0,0.9l19.1,0l0.6,-0.5l-0.6,0.5l0.4,-0.2l0.2,-0.3L760,308.6l-0.4,0Z" class="g3_213" />
<path d="M757,293.4L756.5,293l2.7,16l1,0l-2.8,-16L757,292.5l0.4,0.5l0,-0.4L757,292.5l-0.3,0.1l-0.2,0.4Z" class="g3_213" />
<path d="M738.9,293l-0.6,0.4l18.7,0l0,-0.9l-18.7,0L738,293l0.3,-0.5l-0.1,0.1L738,293l0.3,0.4Z" class="g3_213" />
<path fill-rule="evenodd" d="M734.1,293l2.4,16l-7,0L729,305.7l-5.9,0l0.2,3.3l-59.8,0l0.2,-3.3l-6.4,0l-0.5,3.3l-6.5,0l2.1,-16l81.7,0Z" class="g1_213" />
<path d="M736.5,309.5l0.4,-0.5l-2.2,-16l-0.9,0l2.2,16l0.5,-0.4L736,309l0.1,0.3l0.4,0.2l0.4,-0.2l0,-0.3Z" class="g3_213" />
<path d="M729,309l0.5,0.5l7,0l0,-0.9l-7,0l0.4,0.4l-0.4,-0.4l-0.3,0L729,309l0.2,0.3l0.3,0.2Z" class="g3_213" />
<path d="M729,306l-0.4,-0.3L729,309l0.9,0l-0.4,-3.3L729,305.1l0.5,0.6l-0.1,-0.4L729,305.1l-0.2,0.2l-0.2,0.4Z" class="g3_213" />
<path d="M723.5,305.7l-0.4,0.3l5.9,0l0,-0.9l-5.9,0l-0.5,0.6l0.5,-0.6l-0.3,0.2l-0.2,0.4l0.2,0.3l0.3,0Z" class="g3_213" />
<path d="M723.3,309.5l0.6,-0.5l-0.4,-3.3l-0.9,0l0.2,3.3l0.5,-0.4l-0.5,0.4l0.1,0.3l0.4,0.2l0.4,-0.2l0.2,-0.3Z" class="g3_213" />
<path d="M663.2,309l0.3,0.5l59.8,0l0,-0.9l-59.8,0l0.6,0.4l-0.6,-0.4l-0.3,0l0,0.7l0.3,0.2Z" class="g3_213" />
<path d="M663.7,306l-0.3,-0.3l-0.2,3.3l0.9,0l0.2,-3.3l-0.6,-0.6l0.6,0.6l-0.2,-0.4l-0.4,-0.2l-0.2,0.2l-0.1,0.4Z" class="g3_213" />
<path d="M657.9,305.7l-0.6,0.3l6.4,0l0,-0.9l-6.4,0l-0.4,0.6l0.4,-0.6l-0.4,0.2l0,0.7l0.4,0Z" class="g3_213" />
<path d="M656.8,309.5l0.5,-0.5l0.6,-3.3l-1,0l-0.5,3.3l0.4,-0.4l-0.4,0.4l0,0.3l0.4,0.2l0.3,-0.2l0.2,-0.3Z" class="g3_213" />
<path d="M649.8,309l0.5,0.5l6.5,0l0,-0.9l-6.5,0l0.4,0.4l-0.4,-0.4l-0.3,0l-0.2,0.4l0.2,0.3l0.3,0.2Z" class="g3_213" />
<path d="M652.4,292.6L652,293l-2.2,16l0.9,0l2.2,-16l-0.5,0.6l0.5,-0.6l-0.2,-0.4l-0.7,0l0,0.4Z" class="g3_213" />
<path d="M734.7,293l-0.6,-0.4l-81.7,0l0,1l81.7,0L733.8,293l0.3,0.6l0.4,-0.2l0.2,-0.4l-0.2,-0.4l-0.4,0Z" class="g3_213" />
<path fill-rule="evenodd" d="M648.5,293l-2.2,16l-9,0l2.8,-16l8.4,0Z" class="g1_213" />
<path d="M646.3,309.5l0.4,-0.5l2.4,-16l-1,0l-2.3,16l0.5,-0.4l-0.5,0.4l0.1,0.3l0.4,0.2l0.4,-0.2l0,-0.3Z" class="g3_213" />
<path d="M637,309l0.3,0.5l9,0l0,-0.9l-9,0l0.6,0.4l-0.6,-0.4l-0.2,0L637,309l0.1,0.3l0.2,0.2Z" class="g3_213" />
<path d="M640.1,292.6l-0.6,0.4L637,309l0.9,0l2.5,-16l-0.3,0.6l0.3,-0.6l0,-0.4l-0.7,0l-0.2,0.4Z" class="g3_213" />
<path d="M649.1,293l-0.6,-0.4l-8.4,0l0,1l8.4,0L648.1,293l0.4,0.6l0.4,-0.2l0.2,-0.4l-0.2,-0.4l-0.4,0Z" class="g3_213" />
<path fill-rule="evenodd" d="M647.2,284.8l-0.7,4.2l-5.9,0l0.9,-4.2l5.7,0Z" class="g1_213" />
<path d="M646.5,289.3l0.4,-0.3l0.7,-4.2l-0.9,0l-0.8,4.2l0.6,-0.6l-0.6,0.6l0.2,0.3l0.6,0l0.2,-0.3Z" class="g3_213" />
<path d="M640.3,289l0.3,0.3l5.9,0l0,-0.9l-5.9,0l0.6,0.6l-0.6,-0.6l-0.3,0.2l0,0.7l0.3,0Z" class="g3_213" />
<path d="M641.5,284.2l-0.3,0.6l-0.9,4.2l0.9,0l0.9,-4.2l-0.6,0.3l0.6,-0.3l-0.2,-0.4l-0.4,-0.2l-0.3,0.2l0,0.4Z" class="g3_213" />
<path d="M647.6,284.8l-0.4,-0.6l-5.7,0l0,0.9l5.7,0l-0.5,-0.3l0.5,0.3l0.4,0l0,-0.7l-0.4,-0.2Z" class="g3_213" />
<path d="M639.5,290.6l-0.3,0.2l-0.2,0.4l0.2,0.3l0.3,0.2Z" class="g3_213" />
<path d="M758.5,291.2l0,-0.6l-119,0l0,1.1l119,0l0,-0.5Z" class="g3_213" />
<path d="M758.5,291.7l0.4,-0.2l0,-0.7l-0.4,-0.2Z" class="g3_213" />
<path d="M380.3,317.4l-2.6,27.7l12.5,-8.8L387.6,364" class="g2_213" />
<path d="M696.5,319.4l2.8,30.1l10.8,-11.4l2.8,30.1" class="g2_213" />
<path fill-rule="evenodd" d="M504,833.3l0,-30.6l0.2,-0.9l0.4,-0.4L506,801l104.2,0l0.9,0.2l0.9,0.4l0.4,0.5l0.2,1.3l0,31.2l-0.2,0.4l-0.6,0.1l-106.7,0l-0.5,-0.3l-0.4,-0.6L504,833.3Z" class="g1_213" />
<path d="M503.5,802.7l0,30.6l1.1,0l0,-30.6l-0.2,-0.4L504,802.1l-0.3,0.2l-0.2,0.4Z" class="g3_213" />
<path d="M506,800.5l-0.9,0l-0.7,0.4l-0.9,0.7l0,1.1l1.1,0l0.2,-0.6l0,-0.3l0.7,0l0.5,-0.2l0.4,-0.2l0.2,-0.4l-0.2,-0.3L506,800.5Z" class="g3_213" />
<path d="M610.2,800.5l-104.2,0l0,1.1l104.2,0l0.5,-0.6l-0.5,-0.5Z" class="g3_213" />
<path d="M613.1,803.4l-0.2,-1.3L612.4,801l-1.1,-0.5l-1.1,0l0,1.1l0.9,0.2l0.6,0.2l0.1,0.3l0.2,1.1l0.2,0.4l0.7,0l0.2,-0.4Z" class="g3_213" />
<path d="M613.1,833.9l0,-30.5l-1.1,0l0,30.5l0.2,0.3l0.4,0.2l0.3,-0.2l0.2,-0.3Z" class="g3_213" />
<path d="M611.1,835.9l0.9,0l0.6,-0.4l0.5,-0.7l0,-0.9l-1.1,0l0,0.5l-0.3,0.2l-0.6,0l-0.4,0.2l0,0.7l0.4,0.4Z" class="g3_213" />
<path d="M505.9,835.9l105.2,0l0,-1.3l-105.2,0l-0.4,0.2l0,0.7l0.4,0.4Z" class="g3_213" />
<path d="M503.5,833.3l0,1.1l0.7,0.9l0.9,0.4l0.8,0.2l0,-1.3l-0.6,-0.2l-0.4,0l-0.1,-0.2l-0.2,-0.9l-0.2,-0.4L504,832.8l-0.3,0.1l-0.2,0.4Z" class="g3_213" />
<path fill-rule="evenodd" d="M504,801.8l0.6,-0.6l0.9,-1.6l1.6,-2l1.9,-2.2l1.6,-2.2l1.9,-1.9l1.1,-1.4l0.5,-0.4l87.7,0l0.5,0.4l1.5,1.4l1.6,2l1.9,2.2l2,2.2l3.3,4.4l0,1.3l-0.2,-1.3L612,801.6l-0.9,-0.4L610.2,801L506,801l-1.4,0.4l-0.4,0.4l-0.2,0.9l0,-0.9Z" class="g1_213" />
<path d="M514.1,788.8l-0.9,0.7l-1.3,1.5l-1.6,1.8l-1.7,2.2l-2,2.4l-1.5,1.8l-1.1,1.7l-0.5,0.9l1.1,0l0.3,-0.2l1.1,-1.7l1.5,-2l2,-2.2l1.7,-2.2l1.6,-1.8l1.1,-1.5l0.2,-0.2l0.4,-0.1l0.2,-0.4l-0.2,-0.4l-0.4,-0.3Z" class="g3_213" />
<path d="M601.8,788.8l-87.7,0l0,1.2l87.7,0l0.3,-0.1l0.2,-0.4l-0.2,-0.4l-0.3,-0.3Z" class="g3_213" />
<path d="M613.1,802.1L612.6,801l-1.3,-1.4l-1.5,-2.2l-2,-2.2L606,793l-1.9,-2l-1.4,-1.5l-0.9,-0.7l0,1.2l0.3,0.2l1.1,1.5l1.9,2l1.8,2.2l2,2.2l1.5,2.2l1.3,1.5l0.3,0.3l0.2,0.4l0.4,0.2l0.3,-0.2l0.2,-0.4Z" class="g3_213" />
<path d="M612,803.4l1.1,0l0,-1.3l-1.1,0l0,1.3l1.1,0l-1.1,0l0.2,0.4l0.7,0l0.2,-0.4Z" class="g3_213" />
<path d="M610.2,801.6l0.9,0.2l0.6,0.2l0.1,0.3l0.2,1.1l1.1,0l-0.2,-1.3L612.4,801l-1.1,-0.5l-1.1,0l-0.4,0.2l-0.2,0.3l0.2,0.4l0.4,0.2Z" class="g3_213" />
<path d="M506,801.6l104.2,0l0,-1.1l-104.2,0l-0.3,0.2l0,0.7l0.3,0.2Z" class="g3_213" />
<path d="M503.5,802.7l1.1,0l0.2,-0.6l0,-0.3l0.7,0l0.5,-0.2l0,-1.1l-0.9,0l-0.7,0.4l-0.9,0.7l0,1.1l1.1,0l-1.1,0l0.2,0.4l0.3,0.1l0.4,-0.1l0.2,-0.4Z" class="g3_213" />
<path d="M503.5,801.8l0,0.9l1.1,0l0,-0.9L504,801.2l-0.5,0.6Z" class="g3_213" />
<path fill-rule="evenodd" d="M505.7,820.8l0,-17.6l0.3,-0.3l0.6,-0.4l102.9,0l0.7,0.4l0.5,0.5l0,18.5l-0.1,0.4l-0.4,0.2l-103.6,0L506,822.3l-0.3,-0.5l0,-1Z" class="g1_213" />
<path d="M504.8,803.8l0,17l1.6,0l0,-17l-0.2,-0.6l-0.5,-0.1l-0.6,0.1l-0.3,0.6Z" class="g3_213" />
<path d="M507.5,801.6l-0.9,0.2l-0.9,0.3l-0.6,0.8l-0.3,0.9l1.6,0l0,-0.4l0.4,0l0.7,-0.2l0.6,-0.1l0.1,-0.6l-0.1,-0.7l-0.6,-0.2Z" class="g3_213" />
<path d="M608.5,801.6l-101,0l0,1.6l101,0l0.6,-0.1l0.2,-0.6l-0.2,-0.7l-0.6,-0.2Z" class="g3_213" />
<path d="M611.7,804.5l-0.2,-1.3l-0.8,-1.1l-1.1,-0.3l-1.1,-0.2l0,1.6l1,0.2l0.3,0l0,0.2l0.2,0.9l0.2,0.6l0.5,0.2l0.6,-0.2l0.4,-0.6Z" class="g3_213" />
<path d="M611.7,821.4l0,-16.9l-1.7,0l0,16.9l0.2,0.5l0.5,0.2l0.6,-0.2l0.4,-0.5Z" class="g3_213" />
<path d="M609.5,823.4l0.7,0l0.9,-0.5l0.6,-0.8l0,-0.7l-1.7,0l0,0.4l0.2,0l-0.7,0l-0.6,0.1l-0.4,0.6l0.4,0.5l0.6,0.4Z" class="g3_213" />
<path d="M507.3,823.4l102.2,0l0,-1.6l-102.2,0l-0.7,0.1l-0.2,0.6l0.2,0.5l0.7,0.4Z" class="g3_213" />
<path d="M504.8,820.8l0.1,1.3l0.8,0.8l0.7,0.5l0.9,0l0,-1.6l-0.7,0l0,-0.2l-0.2,-0.8l-0.2,-0.5l-0.5,-0.2l-0.6,0.2l-0.3,0.5Z" class="g3_213" />
<path d="M593.5,802.5l-0.2,-0.7l-0.5,-0.2l-0.8,0.2l-0.1,0.7Z" class="g3_213" />
<path d="M592.8,822.5l0.7,0l0,-20l-1.6,0l0,20l0.9,0Z" class="g3_213" />
<path d="M591.9,822.5L592,823l0.8,0.4l0.5,-0.4l0.2,-0.5Z" class="g3_213" />
<path d="M562.3,802.5L562,801.8l-0.6,-0.2l-0.5,0.2l-0.2,0.7Z" class="g3_213" />
<path d="M561.4,822.5l0.9,0l0,-20l-1.6,0l0,20l0.7,0Z" class="g3_213" />
<path d="M560.7,822.5l0.2,0.5l0.5,0.4L562,823l0.3,-0.5Z" class="g3_213" />
<path d="M530.8,802.5l-0.2,-0.7l-0.7,-0.2l-0.6,0.2l-0.1,0.7Z" class="g3_213" />
<path d="M529.9,822.5l0.9,0l0,-20l-1.6,0l0,20l0.7,0Z" class="g3_213" />
<path d="M529.2,822.5l0.1,0.5l0.6,0.4l0.7,-0.4l0.2,-0.5Z" class="g3_213" />
<path fill-rule="evenodd" d="M517.2,812.8l1.3,-0.2l1.1,-0.9l0.8,-1.1l0.1,-1.3l-0.1,-1.5l-0.8,-1.1L518.5,806l-1.3,-0.2l-4.5,0l-0.8,0.2l-1.1,0.7l-0.7,1.1l-0.4,1.5l0.2,0.7l0.2,0.6l0.4,0.7l0.9,0.9l0.5,0.4l0.8,0l0.5,0.2l4,0Z" class="g3_213" />
<path d="M505.7,815l-0.4,0.2l-0.2,0.3l0.2,0.4l0.4,0.2Z" class="g3_213" />
<path d="M551.7,815.5l0.6,-0.5l-46.6,0l0,1.1l46.6,0l0.5,-0.6l-0.5,0.6l0.3,-0.2l0.2,-0.4l-0.2,-0.3L552.3,815Z" class="g3_213" />
<path d="M552.3,813l-0.6,0.5l0,2l1.1,0l0,-2l-0.5,0.7l0.5,-0.7L552.3,813l-0.6,0.5Z" class="g3_213" />
<path d="M559.8,813.5L559.2,813l-6.9,0l0,1.2l6.9,0l-0.5,-0.7l0.5,0.7l0.4,-0.3l0.2,-0.4L559.2,813Z" class="g3_213" />
<path d="M559.2,815l0.6,0.5l0,-2l-1.1,0l0,2l0.5,0.6l-0.5,-0.6l0.2,0.4l0.7,0l0.2,-0.4Z" class="g3_213" />
<path d="M610.7,815.5l0,-0.5l-51.5,0l0,1.1l51.5,0l0,-0.6Z" class="g3_213" />
<path d="M610.7,816.1l0.4,-0.2l0.2,-0.4l-0.2,-0.3L610.7,815Z" class="g3_213" />
<path d="M552.6,817.4l6.3,0l0,-3.3l-6.3,0l0,3.3Z" class="g4_213" />
<path fill-rule="evenodd" d="M559.4,812.6l-8.6,0l0,1.1l-10.3,0l0,-1.3l-8.6,0l0,-1.8l8.6,0l0,-1.5l10.3,0l0,1.3l8.6,0l0,2.2Z" class="g3_213" />
<path d="M599.7,815l4.4,0l0,-7.4l-4.4,0l0,7.4Z" class="g3_213" />
<path d="M505.5,833.3l104.9,0l0,-7.3l-104.9,0l0,7.3Z" class="g5_213" />
<path fill-rule="evenodd" d="M508.6,779.2l0,-73.5l0.6,-1.1l0.5,-0.7l1.5,-1.1l0.9,-0.2l0.7,-0.2l88.6,0l0.9,0.2l0.7,0.2l0.8,0.5l0.3,0.4l0.4,0.7l0.4,0.9l0,73.4l-0.4,0.7l-0.4,0.9l-0.3,0.6l-0.6,0.5l-0.7,0.6l-0.6,0.2l-0.7,0.1l-89.5,0L510.3,782l-1.1,-0.6l-0.6,-0.9l0,-1.3Z" class="g1_213" />
<path d="M507.9,707l0,72.2l1.3,0l0,-72.2l-0.4,-0.4l-0.2,-0.3l-0.7,0.7Z" class="g3_213" />
<g clip-path="url(#c18_213)">
<path d="M513.7,701.7l-1.8,0.3l-1.8,0.8l-0.8,0.7l-0.7,0.9l-0.4,1.1l-0.3,1.5l1.3,0l0,-1.1l0.3,-0.9l0.6,-0.8l0.5,-0.5l0.8,-0.4l0.9,-0.4l0.5,-0.1l0.9,0.1l0.6,-0.5L514.1,702l-0.4,-0.3Z" class="g3_213" />
</g>
<g clip-path="url(#c19_213)">
<path d="M600.5,701.7l-86.7,0l0,1.2l86.7,0l0.3,-0.3l0.4,-0.2l-0.7,-0.7Z" class="g3_213" />
</g>
<g clip-path="url(#c20_213)">
<path d="M605.4,706.2l-0.2,-0.9l-0.1,-1.1l-0.4,-0.7l-0.6,-0.6l-0.9,-0.5L602.5,702l-1.1,-0.2l-0.9,-0.1l0,1.2l0.9,-0.1l0.9,0.1l1.1,0.8l0.4,0.3l0.3,0.6l0.2,0.7l0,0.9l0.2,0.4l0.4,0.2l0.3,-0.2l0.2,-0.4Z" class="g3_213" />
</g>
<path d="M605.4,777.9l0,-71.7l-1.1,0l0,71.7l0.2,0.4l0.7,0l0.2,-0.4Z" class="g3_213" />
<path d="M601.2,782.9l0.9,-0.4l0.6,-0.2l0.9,-0.5l0.5,-0.6l0.6,-0.7l0.4,-0.9l0.1,-0.7l0.2,-1l-1.1,0l0,0.8l-0.2,0.7l-0.7,1.1l-0.5,0.6l-0.6,0.3l-0.5,0.2l-0.6,0l-0.4,0.4l0,0.5l0.4,0.4Z" class="g3_213" />
<path d="M511.7,782.9l89.5,0l0,-1.3l-89.5,0l-0.3,0.4l0,0.5l0.3,0.4Z" class="g3_213" />
<path d="M507.9,779.2l0.3,1.5l0.6,1.1l1.3,0.7l1.6,0.4l0,-1.3l-1.3,0l-0.9,-0.5l-0.3,-0.8l0,-1.1l-0.6,-0.5l-0.4,0.2l-0.3,0.3Z" class="g3_213" />
<path fill-rule="evenodd" d="M510.8,777.4l0,-69l0.2,-1.1l0.4,-0.9l0.5,-0.9l0.7,-0.5l0.8,-0.4l0.9,-0.4L515,704l84.6,0l0.5,0.2l0.7,0.4l0.6,0.4l0.5,0.5l0.4,0.6l0.4,1.8l0,68.2l-0.2,0.7l-0.2,0.8l-0.4,0.7l-0.5,0.7l-0.9,1l-0.8,0.1l-0.5,0.2l-85.3,0L512.5,780l-1,-0.6L511,778.7l-0.2,-1.3Z" class="g6_213" />
<path d="M510.3,708.5l0,68.9l1.1,0l0,-68.9l-0.6,-0.6l-0.5,0.6Z" class="g3_213" />
<path d="M515.8,703.5l-0.8,0.2l-1.8,0.3l-0.7,0.6l-1,0.7l-0.7,0.9l-0.4,1l-0.1,1.2l1.1,0l0,-0.9l0.3,-0.9l0.6,-0.7l0.5,-0.4l0.8,-0.5l0.9,-0.2l0.5,-0.2l0.8,0l0.3,-0.2l0.2,-0.4l-0.2,-0.3l-0.3,-0.2Z" class="g3_213" />
<path d="M598.6,703.5l-82.8,0l0,1.1l82.8,0l0.4,-0.2l0.2,-0.4L599,703.7l-0.4,-0.2Z" class="g3_213" />
<path d="M603.2,707.9L603,707l-0.3,-1.1l-0.4,-0.6l-0.5,-0.7l-0.6,-0.5l-0.9,-0.2l-0.7,-0.2l-1,-0.2l0,1.1l1,0l1.1,0.4l0.5,0.3l0.2,0.4l0.4,0.6l0.3,0.7l0,0.9l0.2,0.4l0.7,0l0.2,-0.4Z" class="g3_213" />
<path d="M603.2,776.1l0,-68.2l-1.1,0l0,68.2l0.2,0.4l0.7,0l0.2,-0.4Z" class="g3_213" />
<path d="M599.2,780.9l0.7,-0.2l0.8,-0.4l0.7,-0.5l0.4,-0.4l0.5,-0.9L603,777l0.2,-0.9l-1.1,0l0,0.6l-0.7,1.4l-0.2,0.6l-1.1,0.7l-0.5,0.2l-0.4,0l-0.4,0.4l-0.2,0.3l0.2,0.4l0.4,0.2Z" class="g3_213" />
<path d="M513.9,780.9l85.3,0l0,-1.3l-85.3,0l-0.3,0.4l0,0.7l0.3,0.2Z" class="g3_213" />
<path d="M510.3,777.4l0.1,1.3l0.8,1.1l1.1,0.7l1.6,0.4l0,-1.3l-1.3,0L511.9,779l-0.5,-0.5l0,-1.1L511.2,777l-0.4,-0.3l-0.4,0.3l-0.1,0.4Z" class="g3_213" />
<path fill-rule="evenodd" d="M526,765.7l0,-47.9l0.4,-1.3l0.7,-0.9l1.3,-0.5l58,0l0.7,0.5l0.7,0.7l0.2,1l0,47.4l-0.2,1.1l-0.7,0.8l-0.6,0.7l-0.9,0.4l-57.5,0l-1,-0.2l-0.5,-0.4l-0.4,-0.7L526,765.7Z" class="g3_213" />
<path fill-rule="evenodd" d="M583.4,784.4l0.6,-2.1l-52.8,0l0.5,2.1l51.7,0Z" class="g7_213" />
<path d="M584,782.9l-0.6,-0.7l-0.5,2l0.9,0.3l0.5,-2.2L584,781.6l0.3,0.7l0,-0.3L584,781.8l-0.2,0l-0.4,0.4Z" class="g3_213" />
<path d="M531.5,782.2l-0.3,0.7l52.8,0l0,-1.3l-52.8,0l-0.6,0.7l0.6,-0.7l-0.4,0.4l-0.2,0.3l0.6,0.6Z" class="g3_213" />
<path d="M531.7,783.8l0.4,0.4l-0.6,-2l-0.9,0.1l0.6,2.2l0.5,0.4l-0.5,-0.4l0.7,0.4l0.2,-0.4l0,-0.3Z" class="g3_213" />
<path d="M582.9,784.2l0.5,-0.4l-51.7,0l0,1.1l51.7,0l0.4,-0.4l-0.4,0.4l0.4,-0.2l0.2,-0.3L583.8,784l-0.4,-0.2Z" class="g3_213" />
<path d="M528.8,796.8l56.8,0l0,-5.1l-56.8,0l0,5.1Z" class="g7_213" />
<path d="M585.6,792.4l-0.5,-0.7l0,5.1l1.1,0l0,-5.1l-0.6,-0.6l0.6,0.6L586,791.3l-0.4,-0.2l-0.3,0.2l-0.2,0.4Z" class="g3_213" />
<path d="M529.3,791.7l-0.5,0.7l56.8,0l0,-1.3l-56.8,0l-0.6,0.6l0.6,-0.6l-0.4,0.2l0,0.8l0.4,0.3Z" class="g3_213" />
<path d="M528.8,796.3l0.5,0.5l0,-5.1l-1.1,0l0,5.1l0.6,0.6l-0.6,-0.6l0.2,0.4l0.4,0.2l0.4,-0.2l0.1,-0.4Z" class="g3_213" />
<path d="M585.1,796.8l0.5,-0.5l-56.8,0l0,1.1l56.8,0l0.6,-0.6l-0.6,0.6l0.4,-0.2l0.2,-0.4L586,796.5l-0.4,-0.2Z" class="g3_213" />
<path fill-rule="evenodd" d="M531.2,786.6l52.2,0l2.2,5.1l-56.8,0l2.4,-5.1Z" class="g8_213" />
<path d="M583.8,786.2l-0.4,-0.4l-52.2,0l0,1.3l52.2,0l-0.5,-0.4l0.5,0.4l0.4,-0.2l0.2,-0.3l-0.2,-0.4l-0.4,-0.4Z" class="g3_213" />
<path d="M585.6,792.4l0.6,-0.9l-2.4,-5.3l-0.9,0.5l2.4,5.4l0.3,-1l-0.3,1l0.1,0.1l0.4,0l0.4,-0.3l0,-0.4Z" class="g3_213" />
<path d="M528.4,791.5l0.4,0.9l56.8,0l0,-1.3l-56.8,0l0.5,1l-0.5,-1l-0.4,0.2l0,0.8l0.4,0.3Z" class="g3_213" />
<path d="M531.2,785.8l-0.6,0.4l-2.2,5.3l0.9,0.6l2.2,-5.4l-0.3,0.4l0.3,-0.4l0,-0.3L531.4,786l-0.4,0l-0.4,0.2Z" class="g3_213" />
<path fill-rule="evenodd" d="M577.6,784.4l-0.2,0.5l-0.4,0.6l-0.9,0.9l-1.5,1.1l-0.9,0.3l-1.1,0.6l-1.3,0.4l-2.9,0.7l-1.8,0.4l-1.9,0.1l-1.8,0.4l-9.4,0l-2,-0.4l-1.8,-0.1l-3.3,-0.8l-2.6,-0.7l-1.1,-0.6l-0.9,-0.3l-0.9,-0.6l-0.7,-0.5l-1,-0.9l-0.1,-0.6l-0.4,-0.5l38.9,0Z" class="g8_213" />
<path d="M558.3,791.1l2.4,0l2.2,-0.3l3.7,-0.4l2,-0.4l1.4,-0.3l1.3,-0.4l1.3,-0.5l1.3,-0.4l0.9,-0.6l0.9,-0.3l1.9,-1.9l0.1,-0.5l0.4,-0.6l-0.9,-0.3l-0.4,0.3l-0.2,0.8l-0.3,0.2l-1.1,1.1l-0.8,0.3l-0.9,0.6l-1.1,0.3l-1.3,0.6l-2.9,0.7l-1.6,0.4l-3.7,0.4l-4.6,0l-0.4,0.1l-0.1,0.4l0.1,0.4l0.4,0.3Z" class="g3_213" />
<path d="M538.7,783.8l-0.4,0.7l0.2,0.6l0.7,1.1l0.8,0.5l0.7,0.8l1.8,0.9l1.1,0.4l1.3,0.5l3,0.7l1.8,0.4l1.8,0.2l2,0.2l2.2,0.3l2.6,0l0,-1.2l-4.8,0l-2,-0.2l-1.8,-0.2L548,789.1l-1.4,-0.3l-1.3,-0.4L544,787.8l-0.9,-0.3L542,786.9l-0.9,-0.3l-1.3,-1.3l-0.6,-1.1l-0.5,0.7l0.5,-0.7L539.1,784l-0.4,0l-0.4,0.2l0,0.3Z" class="g3_213" />
<path d="M578.1,784.5l-0.5,-0.7l-38.9,0l0,1.1l38.9,0l-0.4,-0.7l0.4,0.7l0.3,-0.2l0.2,-0.3L577.9,784l-0.3,-0.2Z" class="g3_213" />
<path fill-rule="evenodd" d="M627.6,863.4l-6.8,-32.5l-124.7,0l-5.8,32.5l0,3.5l136.9,0l0.4,-3.5Z" class="g1_213" />
<g clip-path="url(#c21_213)">
<path d="M620.8,831.5l-0.5,-0.6l6.6,32.7l1.3,-0.4l-6.8,-32.5l-0.6,-0.5l0.6,0.5l-0.2,-0.3l-0.6,-0.2l-0.3,0.7Z" class="g3_213" />
</g>
<path d="M496.7,830.9l-0.6,0.6l124.7,0l0,-1.3l-124.7,0l-0.7,0.5l0.7,-0.5l-0.5,0.2l-0.2,0.5l0.2,0.4l0.5,0.2Z" class="g3_213" />
<g clip-path="url(#c22_213)">
<path d="M490.8,863.4l0,0.2l5.9,-32.7l-1.3,-0.2l-5.9,32.5l0,0.2l0,-0.2l0.2,0.5l0.4,0.2l0.4,0l0.3,-0.3Z" class="g3_213" />
</g>
<g clip-path="url(#c23_213)">
<path d="M490.3,866.1l0.5,0.8l0,-3.5l-1.3,0l0,3.5l0.8,0.5l-0.8,-0.5l0.2,0.3l0.6,0.2l0.3,-0.2l0.2,-0.3Z" class="g3_213" />
</g>
<g clip-path="url(#c24_213)">
<path d="M626.5,866.9l0.7,-0.8l-136.9,0l0,1.3l136.9,0l0.6,-0.5l-0.6,0.5l0.6,-0.2l0,-0.9l-0.6,-0.2Z" class="g3_213" />
</g>
<g clip-path="url(#c25_213)">
<path d="M626.9,863.6l0,-0.2l-0.4,3.5l1.3,0l0.4,-3.5l0,-0.2l0,0.2l-0.6,-0.6l-0.4,0.2l-0.3,0.4Z" class="g3_213" />
</g>
<g clip-path="url(#c26_213)">
<path d="M490.3,862.8l-0.4,0.2l-0.2,0.4l0.2,0.3l0.4,0.2Z" class="g3_213" />
</g>
<path d="M627.6,863.4l0,-0.6l-137.3,0l0,1.1l137.3,0l0,-0.5Z" class="g3_213" />
<g clip-path="url(#c27_213)">
<path d="M627.6,863.9l0.2,-0.2l0.2,-0.3L627.8,863l-0.2,-0.2Z" class="g3_213" />
</g>
<path fill-rule="evenodd" d="M596.1,834.8l0.3,4.2l18.9,0l-0.9,-4.2l-18.3,0Z" class="g1_213" />
<path d="M596.4,838.4l0.4,0.6l-0.4,-4.2l-0.9,0l0.4,4.2l0.5,0.4L595.9,839l0.2,0.4l0.7,0l0,-0.4Z" class="g3_213" />
<path d="M615,839l0.3,-0.6l-18.9,0l0,1l18.9,0l0.6,-0.4l-0.6,0.4l0.4,0l0.2,-0.4l-0.2,-0.4l-0.4,-0.2Z" class="g3_213" />
<path d="M614.4,835.1L614,834.8l1,4.2l0.9,0L615,834.8l-0.6,-0.6l0.6,0.6l-0.2,-0.4l-0.4,-0.2l-0.2,0.2l-0.2,0.4Z" class="g3_213" />
<path d="M596.4,834.8l-0.3,0.3l18.3,0l0,-0.9l-18.3,0l-0.6,0.6l0.6,-0.6l-0.4,0.2l-0.2,0.4l0.2,0.3l0.4,0Z" class="g3_213" />
<path fill-rule="evenodd" d="M597.4,843l2.2,16l19,0l-2.5,-16l-18.7,0Z" class="g1_213" />
<path d="M599.6,858.6l0.5,0.4l-2.2,-16l-0.9,0l2.2,16l0.4,0.5L599.2,859l0,0.3l0.4,0.2l0.3,-0.2l0.2,-0.3Z" class="g3_213" />
<path d="M618.3,859l0.3,-0.4l-19,0l0,0.9l19,0l0.6,-0.5l-0.6,0.5l0.4,-0.2l0.2,-0.3L619,858.6l-0.4,0Z" class="g3_213" />
<path d="M616.1,843.4L615.5,843l2.8,16l0.9,0l-2.8,-16l-0.3,-0.5l0.3,0.5l0,-0.3l-0.3,-0.2l-0.4,0.2l-0.2,0.3Z" class="g3_213" />
<path d="M597.9,843l-0.5,0.4l18.7,0l0,-0.9l-18.7,0L597,843l0.4,-0.5l-0.2,0.2L597,843l0.4,0.4Z" class="g3_213" />
<path fill-rule="evenodd" d="M593.1,843l2.4,16l-6.9,0L588,855.7l-5.9,0l0.2,3.3l-59.8,0l0.2,-3.3l-6.4,0l-0.5,3.3l-6.5,0l2.1,-16l81.7,0Z" class="g1_213" />
<path d="M595.5,859.5l0.4,-0.5l-2.2,-16l-0.9,0l2.2,16l0.5,-0.4L595,859l0.2,0.3l0.3,0.2l0.4,-0.2l0,-0.3Z" class="g3_213" />
<path d="M588,859l0.6,0.5l6.9,0l0,-0.9l-6.9,0l0.3,0.4l-0.3,-0.4l-0.4,0L588,859l0.2,0.3l0.4,0.2Z" class="g3_213" />
<path d="M588,856l-0.4,-0.3L588,859l0.9,0l-0.3,-3.3L588,855.1l0.6,0.6l-0.2,-0.4L588,855.1l-0.2,0.2l-0.2,0.4Z" class="g3_213" />
<path d="M582.5,855.7l-0.4,0.3l5.9,0l0,-0.9l-5.9,0l-0.5,0.6l0.5,-0.6l-0.3,0.2l-0.2,0.4l0.2,0.3l0.3,0Z" class="g3_213" />
<path d="M582.3,859.5l0.6,-0.5l-0.4,-3.3l-0.9,0l0.2,3.3l0.5,-0.4l-0.5,0.4l0.2,0.3l0.3,0.2l0.4,-0.2l0.2,-0.3Z" class="g3_213" />
<path d="M522.2,859l0.4,0.5l59.7,0l0,-0.9l-59.7,0l0.5,0.4l-0.5,-0.4l-0.4,0l0,0.7l0.4,0.2Z" class="g3_213" />
<path d="M522.7,856l-0.3,-0.3l-0.2,3.3l0.9,0l0.2,-3.3l-0.6,-0.6l0.6,0.6l-0.2,-0.4l-0.4,-0.2l-0.1,0.2l-0.2,0.4Z" class="g3_213" />
<path d="M516.9,855.7l-0.6,0.3l6.4,0l0,-0.9l-6.4,0l-0.3,0.6l0.3,-0.6l-0.3,0.2l0,0.7l0.3,0Z" class="g3_213" />
<path d="M515.8,859.5l0.5,-0.5l0.6,-3.3l-1,0l-0.5,3.3l0.4,-0.4l-0.4,0.4l0,0.3l0.4,0.2l0.3,-0.2l0.2,-0.3Z" class="g3_213" />
<path d="M508.8,859l0.5,0.5l6.5,0l0,-0.9l-6.5,0l0.4,0.4l-0.4,-0.4l-0.3,0l-0.2,0.4l0.2,0.3l0.3,0.2Z" class="g3_213" />
<path d="M511.4,842.7L511,843l-2.2,16l0.9,0l2.2,-16l-0.5,0.6l0.5,-0.6l-0.2,-0.3l-0.7,0l0,0.3Z" class="g3_213" />
<path d="M593.7,843l-0.6,-0.3l-81.7,0l0,0.9l81.7,0L592.8,843l0.3,0.6l0.4,-0.2l0.2,-0.4l-0.2,-0.3l-0.4,0Z" class="g3_213" />
<path fill-rule="evenodd" d="M507.5,843l-2.2,16l-9,0l2.8,-16l8.4,0Z" class="g1_213" />
<path d="M505.3,859.5l0.4,-0.5l2.4,-16l-1,0l-2.3,16l0.5,-0.4l-0.5,0.4l0.1,0.3l0.4,0.2l0.4,-0.2l0,-0.3Z" class="g3_213" />
<path d="M496,859l0.3,0.5l9,0l0,-0.9l-9,0l0.6,0.4l-0.6,-0.4l-0.2,0L496,859l0.1,0.3l0.2,0.2Z" class="g3_213" />
<path d="M499.1,842.7l-0.6,0.3L496,859l0.9,0l2.5,-16l-0.3,0.6l0.3,-0.6l0,-0.3l-0.7,0l-0.2,0.3Z" class="g3_213" />
<path d="M508.1,843l-0.6,-0.3l-8.4,0l0,0.9l8.4,0L507.1,843l0.4,0.6l0.4,-0.2l0.2,-0.4l-0.2,-0.3l-0.4,0Z" class="g3_213" />
<path fill-rule="evenodd" d="M506.2,834.8l-0.7,4.2l-5.9,0l0.9,-4.2l5.7,0Z" class="g1_213" />
<path d="M505.5,839.4l0.4,-0.4l0.7,-4.2l-0.9,0l-0.8,4.2l0.6,-0.6l-0.6,0.6l0.2,0.4l0.6,0l0.2,-0.4Z" class="g3_213" />
<path d="M499.3,839l0.3,0.4l5.9,0l0,-1l-5.9,0l0.6,0.6l-0.6,-0.6l-0.3,0.2l0,0.8l0.3,0Z" class="g3_213" />
<path d="M500.5,834.2l-0.3,0.6l-0.9,4.2l0.9,0l0.9,-4.2l-0.6,0.3l0.6,-0.3l-0.2,-0.4l-0.4,-0.2l-0.3,0.2l0,0.4Z" class="g3_213" />
<path d="M506.6,834.8l-0.4,-0.6l-5.7,0l0,0.9l5.7,0l-0.5,-0.3l0.5,0.3l0.4,0l0,-0.7l-0.4,-0.2Z" class="g3_213" />
<path d="M498.5,840.6l-0.3,0.2l-0.2,0.4l0.2,0.4l0.3,0.1Z" class="g3_213" />
<path d="M617.5,841.2l0,-0.6l-119,0l0,1.1l119,0l0,-0.5Z" class="g3_213" />
<path d="M617.5,841.7l0.4,-0.1l0,-0.8l-0.4,-0.2Z" class="g3_213" />
<path d="M332.6,446.5l110,0l0,-82.5l-110,0l0,82.5Z" class="g1_213" />
<path d="M332.6,446.5l110,0l0,-82.5l-110,0l0,82.5Z" class="g2_213" />
<path fill-rule="evenodd" d="M410.3,392.4l0,-19.6c6.8,-3.7,14.9,-3.7,21.5,0l0,19.6c-6.6,3.6,-14.7,3.6,-21.5,0Z" class="g1_213" />
<path d="M410.3,392.4l0,-19.6c6.8,-3.7,14.9,-3.7,21.5,0l0,19.6c-6.6,3.6,-14.7,3.6,-21.5,0Z" class="g2_213" />
<path d="M410.3,372.8c6.8,3.4,14.9,3.4,21.5,0" class="g2_213" />
<path d="M387.6,446.5l197.8,74.8L540,491.2L737.8,566l-7.5,-67.3L720.4,518l-7.5,-67.3" class="g2_213" />
<path d="M607.1,710.5l77.2,-21.1l-23.5,-6.1l77,-21" class="g2_213" />
<path d="M650.9,450.7l123.7,0l0,-82.5l-123.7,0l0,82.5Z" class="g1_213" />
<path d="M774.6,450.7l-123.7,0l0,-82.5l123.7,0l0,82.5Z" class="g2_213" />
<path fill-rule="evenodd" d="M685.4,439.5l0,-21.1c-7.4,-3.8,-16,-3.8,-23.3,0l0,21.1c7.3,3.8,15.9,3.8,23.3,0Z" class="g1_213" />
<path d="M685.4,439.5l0,-21.1c-7.4,-3.8,-16,-3.8,-23.3,0l0,21.1c7.3,3.8,15.9,3.8,23.3,0Z" class="g2_213" />
<path d="M685.4,418.4c-7.4,3.9,-16,3.9,-23.3,0" class="g2_213" />
<path d="M696.5,662.2l82.5,0L779,566l-82.5,0l0,96.2Z" class="g1_213" />
<path d="M696.5,662.2l82.5,0L779,566l-82.5,0l0,96.2Z" class="g2_213" />
<path d="M593.3,208.5l55,0" class="g2_213" />
<path d="M455.8,758.5l55,0" class="g2_213" />
<path d="M510.8,714L421.3,693.8l27.9,-11.4L359.6,662.2" class="g2_213" />
<path d="M431.8,383.9l65.3,-3.4" class="g2_213" />
<path d="M586.5,383.9l75.6,5.2" class="g2_213" />
<path d="M318.3,662.2l82.5,0l0,-96.2l-82.5,0l0,96.2Z" class="g1_213" />
<path d="M318.3,662.2l82.5,0l0,-96.2l-82.5,0l0,96.2Z" class="g2_213" />
<path fill-rule="evenodd" d="M328.6,651.1l0,-21.5c6.4,-3.5,14.3,-3.5,20.7,0l0,21.5c-6.4,3.4,-14.3,3.4,-20.7,0Z" class="g1_213" />
<path d="M328.6,651.1l0,-21.5c6.4,-3.5,14.3,-3.5,20.7,0l0,21.5c-6.4,3.4,-14.3,3.4,-20.7,0Z" class="g2_213" />
<path d="M328.6,629.6c6.4,3.5,14.3,3.5,20.7,0" class="g2_213" />
<path d="M414.6,600.5l-67,29.1" class="g2_213" />
<path d="M751.5,642.4L600.3,634.7" class="g2_213" />
<path d="M607.1,579.7l-64.8,13.4l19.7,7.7l-64.9,13.4" class="g2_213" />
<path fill-rule="evenodd" d="M364.1,652.2l0,-21.7c6.3,-3.3,13.6,-3.3,19.7,0l0,21.7c-6.1,3.3,-13.4,3.3,-19.7,0Z" class="g1_213" />
<path d="M364.1,652.2l0,-21.7c6.3,-3.3,13.6,-3.3,19.7,0l0,21.7c-6.1,3.3,-13.4,3.3,-19.7,0Z" class="g2_213" />
<path d="M364.1,630.5c6.3,3.3,13.6,3.3,19.7,0" class="g2_213" />
<path d="M510.8,634.7l-127,7.9" class="g2_213" />
<path fill-rule="evenodd" d="M662.1,398.2l0,-21c7.3,-3.9,15.9,-3.9,23.3,0l0,21c-7.4,3.9,-16,3.9,-23.3,0Z" class="g1_213" />
<path d="M662.1,398.2l0,-21c7.3,-3.9,15.9,-3.9,23.3,0l0,21c-7.4,3.9,-16,3.9,-23.3,0Z" class="g2_213" />
<path d="M662.1,377.2c7.3,3.8,15.9,3.8,23.3,0" class="g2_213" />
<path fill-rule="evenodd" d="M410.7,436.2l0,-20.9c6.8,-3.7,14.9,-3.7,21.6,0l0,20.9c-6.7,3.7,-14.8,3.7,-21.6,0Z" class="g1_213" />
<path d="M410.7,436.2l0,-20.9c6.8,-3.7,14.9,-3.7,21.6,0l0,20.9c-6.7,3.7,-14.8,3.7,-21.6,0Z" class="g2_213" />
<path d="M410.7,415.3c6.8,3.5,14.9,3.5,21.6,0" class="g2_213" />
<path d="M432.3,427L504,421.7" class="g2_213" />
<path d="M593.3,421.7l68.8,8.6" class="g2_213" />
<path fill-rule="evenodd" d="M751.5,651.6l0,-21.1c6.5,-3.5,14.2,-3.5,20.6,0l0,21.1c-6.4,3.5,-14.1,3.5,-20.6,0Z" class="g1_213" />
<path d="M751.5,651.6l0,-21.1c6.5,-3.5,14.2,-3.5,20.6,0l0,21.1c-6.4,3.5,-14.1,3.5,-20.6,0Z" class="g2_213" />
<path d="M751.5,630.5c6.5,3.5,14.2,3.5,20.6,0" class="g2_213" />
</svg>