<?xml version="1.0" encoding="UTF-8" standalone="no"?>
<!DOCTYPE svg PUBLIC "-//W3C//DTD SVG 1.1//EN"
"http://www.w3.org/Graphics/SVG/1.1/DTD/svg11.dtd">
<svg viewBox="0 0 935 1210" version="1.1" xmlns="http://www.w3.org/2000/svg" xmlns:xlink="http://www.w3.org/1999/xlink">
<defs>
<style type="text/css"><![CDATA[
.g1_394{
}
]]></style>
</defs>
<path d="M191.8,302l1.4,0l0,-99.4l-1.4,0l0,99.4Z" class="g1_394" />
<path d="M342.8,303.4l0.8,0l0,-77l-0.8,0l0,77Z" class="g1_394" />
<path d="M528.7,302l1.5,0l0,-99.4l-1.5,0l0,99.4Z" class="g1_394" />
<path d="M191.8,202.6l338.6,0l0,-1.5l-338.6,0l0,1.5Z" class="g1_394" />
<path d="M191.8,227.9l338.6,0l0,-1.5l-338.6,0l0,1.5Z" class="g1_394" />
<path d="M191.8,252.6l338.6,0l0,-0.7l-338.6,0l0,0.7Z" class="g1_394" />
<path d="M191.8,277.9l338.6,0l0,-0.7l-338.6,0l0,0.7Z" class="g1_394" />
<path d="M191.8,303.4l338.6,0l0,-1.4l-338.6,0l0,1.4Z" class="g1_394" />
</svg>