<?xml version="1.0" encoding="UTF-8" standalone="no"?>
<!DOCTYPE svg PUBLIC "-//W3C//DTD SVG 1.1//EN"
"http://www.w3.org/Graphics/SVG/1.1/DTD/svg11.dtd">
<svg viewBox="0 0 935 1210" version="1.1" xmlns="http://www.w3.org/2000/svg" xmlns:xlink="http://www.w3.org/1999/xlink">
<defs>
<style type="text/css"><![CDATA[
.g1_392{
}
]]></style>
</defs>
<path d="M192.1,519.8l0.8,0l0,-312.4l-0.8,0l0,312.4Z" class="g1_392" />
<path d="M522.1,383.9l0.8,0l0,-177.3l-0.8,0l0,177.3Z" class="g1_392" />
<path d="M797.1,519.8l0.8,0l0,-312.4l-0.8,0l0,312.4Z" class="g1_392" />
<path d="M192.1,207.3l605.8,0l0,-0.7l-605.8,0l0,0.7Z" class="g1_392" />
<path d="M192.1,232.7l605.8,0l0,-0.8l-605.8,0l0,0.8Z" class="g1_392" />
<path d="M192.1,257.8l605.8,0l0,-0.8l-605.8,0l0,0.8Z" class="g1_392" />
<path d="M192.1,283.1l605.8,0l0,-0.8l-605.8,0l0,0.8Z" class="g1_392" />
<path d="M192.1,308.2l605.8,0l0,-0.8l-605.8,0l0,0.8Z" class="g1_392" />
<path d="M192.1,333.5l605.8,0l0,-0.7l-605.8,0l0,0.7Z" class="g1_392" />
<path d="M192.1,358.6l605.8,0l0,-0.7l-605.8,0l0,0.7Z" class="g1_392" />
<path d="M192.1,383.9l605.8,0l0,-0.7l-605.8,0l0,0.7Z" class="g1_392" />
<path d="M192.1,520.5l605.8,0l0,-0.7l-605.8,0l0,0.7Z" class="g1_392" />
<path d="M192.1,1056.2l0.8,0l0,-390.5l-0.8,0l0,390.5Z" class="g1_392" />
<path d="M522.1,867.4l0.8,0l0,-202.5l-0.8,0l0,202.5Z" class="g1_392" />
<path d="M797.1,1056.2l0.8,0l0,-390.5l-0.8,0l0,390.5Z" class="g1_392" />
<path d="M192.1,665.7l605.8,0l0,-0.7l-605.8,0l0,0.7Z" class="g1_392" />
<path d="M192.1,691l605.8,0l0,-0.7l-605.8,0l0,0.7Z" class="g1_392" />
<path d="M192.1,716.1l605.8,0l0,-0.7l-605.8,0l0,0.7Z" class="g1_392" />
<path d="M192.1,741.4l605.8,0l0,-0.7l-605.8,0l0,0.7Z" class="g1_392" />
<path d="M192.1,766.5l605.8,0l0,-0.7l-605.8,0l0,0.7Z" class="g1_392" />
<path d="M192.1,791.8l605.8,0l0,-0.7l-605.8,0l0,0.7Z" class="g1_392" />
<path d="M192.1,816.9l605.8,0l0,-0.7l-605.8,0l0,0.7Z" class="g1_392" />
<path d="M192.1,842.2l605.8,0l0,-0.7l-605.8,0l0,0.7Z" class="g1_392" />
<path d="M192.1,867.4l605.8,0l0,-0.8l-605.8,0l0,0.8Z" class="g1_392" />
<path d="M192.1,1056.9l605.8,0l0,-0.7l-605.8,0l0,0.7Z" class="g1_392" />
<path d="M53.5,514.1l1.5,0l0,-38.9l-1.5,0l0,38.9Z" class="g1_392" />
<path d="M53.5,1050.3l1.5,0l0,-38.8l-1.5,0l0,38.8Z" class="g1_392" />
</svg>