<?xml version="1.0" encoding="UTF-8" standalone="no"?>
<!DOCTYPE svg PUBLIC "-//W3C//DTD SVG 1.1//EN"
"http://www.w3.org/Graphics/SVG/1.1/DTD/svg11.dtd">
<svg viewBox="0 0 935 1210" version="1.1" xmlns="http://www.w3.org/2000/svg" xmlns:xlink="http://www.w3.org/1999/xlink">
<defs>
<style type="text/css"><![CDATA[
.g1_236{
}
]]></style>
</defs>
<path d="M224.4,144.6l-5.5,0.6l0.2,0l-5.1,1.6l-4.8,2.6l0.2,0l-4.1,3.3l0,-0.2l-3.3,4.2l-2.5,4.6l-1.7,5.2l0,-0.2l-0.5,5.5l0,147.7l0.5,5.6l1.7,5.1l0,-0.2l2.5,4.8l3.3,4l4.1,3.3l-0.2,-0.2l4.8,2.6l5.1,1.6l-0.2,0l5.5,0.6l541.2,0l5.5,-0.6l5.1,-1.6l-0.2,0l4.8,-2.6l0,0.2l4,-3.3l3.4,-4l-0.2,0l2.5,-4.8l0,0.2l1.7,-5.1l0.5,-5.6l0,-147.7l-0.5,-5.5l0,0.2l-1.7,-5.2l0.2,0l-2.5,-4.6l-3.4,-4.2l0,0.2l-4,-3.3L776,146.8l0.2,0l-5.1,-1.6l-5.5,-0.6l-541.2,0l0,-0.7l541.2,0l5.5,0.6l0.2,0l5.1,1.6l4.8,2.6l0.2,0.2l4,3.3l3.3,4.2l2.6,4.6l0,0.1l1.6,5.2l0.6,5.5l0,147.7l-0.6,5.6l0,0.1l-1.6,5.2l-2.6,4.7l0,0.2l-3.3,4l-4,3.4l-0.2,0l-4.8,2.5l-5.1,1.7l-0.2,0l-5.5,0.5l-541.2,0l-5.5,-0.5l-5.1,-1.7l-0.2,0l-4.8,-2.5l-4,-3.4l-3.3,-4l-0.2,-0.2l-2.6,-4.7l-1.6,-5.2l0,-0.1l-0.6,-5.6l0,-147.7l0.6,-5.5l1.6,-5.2l0.2,-0.1l2.6,-4.6l3.3,-4.2l4,-3.3l0,-0.2l4.8,-2.6l0.2,0l5.1,-1.6l5.5,-0.6Z" class="g1_236" />
<path d="M224.4,144.6l0,-0.7Z" class="g1_236" />
<path d="M224.4,744l-5.5,0.5l0.2,0L214,746l-4.8,2.5l0.2,0l-4.1,3.5l-3.3,4.1l0,-0.2l-2.5,4.6l-1.7,5.1l0,-0.2l-0.5,5.7l0,88l0.5,5.5l1.7,5.1l0,-0.2l2.5,4.8l3.3,4l4.1,3.3l-0.2,-0.1L214,884l5.1,1.7l-0.2,0l5.5,0.5l541.2,0l5.5,-0.5l5.1,-1.7l-0.2,0l4.8,-2.5l0,0.1l4,-3.3l3.4,-4l-0.2,0l2.5,-4.8l0,0.2l1.7,-5.1l0.5,-5.5l0,-88l-0.5,-5.7l0,0.2l-1.7,-5.1l0.2,0l-2.5,-4.6l0,0.2L784.8,752l-4,-3.5L776,746l0.2,0l-5.1,-1.5L765.6,744l-541.2,0l0,-0.8l541.2,0l5.5,0.6l0.2,0l5.1,1.4l4.8,2.6l0.2,0.2l4,3.5l3.3,4l2.6,4.6l0,0.2l1.6,5.1l0.6,5.7l0,88l-0.6,5.5l0,0.2l-1.6,5.1l-2.6,4.8l0,0.2l-3.3,4l-4,3.3l-0.2,0l-4.8,2.6l-5.1,1.6l-0.2,0l-5.5,0.6l-541.2,0l-5.5,-0.6l-5.1,-1.6l-0.2,0l-4.8,-2.6l-4,-3.3l-3.3,-4l-0.2,-0.2l-2.6,-4.8l-1.6,-5.1l0,-0.2l-0.6,-5.5l0,-88l0.6,-5.7l1.6,-5.1l0.2,-0.2l2.6,-4.6l3.3,-4l4,-3.5l0,-0.2l4.8,-2.6l0.2,0l5.1,-1.4l5.5,-0.6Z" class="g1_236" />
<path d="M224.4,744l0,-0.8Z" class="g1_236" />
</svg>