<?xml version="1.0" encoding="UTF-8" standalone="no"?>
<!DOCTYPE svg PUBLIC "-//W3C//DTD SVG 1.1//EN"
"http://www.w3.org/Graphics/SVG/1.1/DTD/svg11.dtd">
<svg viewBox="0 0 935 1210" version="1.1" xmlns="http://www.w3.org/2000/svg" xmlns:xlink="http://www.w3.org/1999/xlink">
<defs>
<style type="text/css"><![CDATA[
.g1_393{
}
]]></style>
</defs>
<path d="M137.5,815.5l0,-0.8Z" class="g1_393" />
<path d="M137.5,815.5l715,0l0,-0.8l-715,0l0,0.8Z" class="g1_393" />
<path d="M247.1,472.4l0.8,0l0,-49.6l-0.8,0l0,49.6Z" class="g1_393" />
<path d="M577.1,473.2l0.8,0l0,-51.2l-0.8,0l0,51.2Z" class="g1_393" />
<path d="M852.1,472.4l0.8,0l0,-49.6l-0.8,0l0,49.6Z" class="g1_393" />
<path d="M247.1,422.8l605.8,0l0,-0.8l-605.8,0l0,0.8Z" class="g1_393" />
<path d="M247.1,448.1l605.8,0l0,-0.8l-605.8,0l0,0.8Z" class="g1_393" />
<path d="M247.1,473.2l605.8,0l0,-0.8l-605.8,0l0,0.8Z" class="g1_393" />
<path d="M247.1,747.4l0.8,0l0,-129l-0.8,0l0,129Z" class="g1_393" />
<path d="M577.1,693.9l0.8,0l0,-76.2l-0.8,0l0,76.2Z" class="g1_393" />
<path d="M852.1,747.4l0.8,0l0,-129l-0.8,0l0,129Z" class="g1_393" />
<path d="M247.1,618.4l605.8,0l0,-0.7l-605.8,0l0,0.7Z" class="g1_393" />
<path d="M247.1,643.5l605.8,0l0,-0.7l-605.8,0l0,0.7Z" class="g1_393" />
<path d="M247.1,668.8l605.8,0l0,-0.7l-605.8,0l0,0.7Z" class="g1_393" />
<path d="M247.1,693.9l605.8,0l0,-0.7l-605.8,0l0,0.7Z" class="g1_393" />
<path d="M247.1,748.2l605.8,0l0,-0.7l-605.8,0l0,0.7Z" class="g1_393" />
<path d="M246.8,1138.1l1.4,0l0,-174.9l-1.4,0l0,174.9Z" class="g1_393" />
<path d="M461.1,1139.8l0.7,0l0,-178l-0.7,0l0,178Z" class="g1_393" />
<path d="M580.2,1114.1l0.8,0l0,-127.2l-0.8,0l0,127.2Z" class="g1_393" />
<path d="M711.5,1114.1l0.8,0l0,-127.2l-0.8,0l0,127.2Z" class="g1_393" />
<path d="M848.6,1138.1l1.5,0l0,-174.9l-1.5,0l0,174.9Z" class="g1_393" />
<path d="M246.8,963.2l603.5,0l0,-1.4l-603.5,0l0,1.4Z" class="g1_393" />
<path d="M246.8,988.5l603.5,0l0,-1.4l-603.5,0l0,1.4Z" class="g1_393" />
<path d="M246.8,1013.3l603.5,0l0,-0.7l-603.5,0l0,0.7Z" class="g1_393" />
<path d="M246.8,1038.6l603.5,0l0,-0.8l-603.5,0l0,0.8Z" class="g1_393" />
<path d="M246.8,1063.7l603.5,0l0,-0.7l-603.5,0l0,0.7Z" class="g1_393" />
<path d="M246.8,1089l603.5,0l0,-0.7l-603.5,0l0,0.7Z" class="g1_393" />
<path d="M246.8,1114.1l603.5,0l0,-0.7l-603.5,0l0,0.7Z" class="g1_393" />
<path d="M246.8,1139.8l603.5,0l0,-1.5l-603.5,0l0,1.5Z" class="g1_393" />
</svg>