<?xml version="1.0" encoding="UTF-8" standalone="no"?>
<!DOCTYPE svg PUBLIC "-//W3C//DTD SVG 1.1//EN"
"http://www.w3.org/Graphics/SVG/1.1/DTD/svg11.dtd">
<svg viewBox="0 0 935 1210" version="1.1" xmlns="http://www.w3.org/2000/svg" xmlns:xlink="http://www.w3.org/1999/xlink">
<defs>
<style type="text/css"><![CDATA[
.g1_88{
}
]]></style>
</defs>
<path d="M224.4,140.1l-5.5,0.5l0.2,0l-5.1,1.7l-4.8,2.5l0.2,0l-4.1,3.3l0,-0.2l-3.3,4.3l-2.5,4.5l-1.7,5.2l0,-0.2l-0.5,5.5l0,253l0.5,5.7l1.7,5.1l0,-0.2l2.5,4.6l3.3,4.2l4.1,3.3l-0.2,-0.2l4.8,2.6l5.1,1.5l-0.2,0l5.5,0.5l541.2,0l5.5,-0.5l5.1,-1.5l-0.2,0l4.8,-2.6l0,0.2l4,-3.3l3.4,-4.2l2.5,-4.6l-0.2,0.2l1.7,-5.1l0.5,-5.7l0,-253l-0.5,-5.5l0,0.2l-1.7,-5.2l0.2,0l-2.5,-4.5l-3.4,-4.3l0,0.2l-4,-3.3L776,142.3l0.2,0l-5.1,-1.7l-5.5,-0.5l-541.2,0l0,-0.8l541.2,0l5.5,0.6l0.2,0l5.1,1.6l4.8,2.6l0.2,0.2l4,3.3l3.3,4.2l2.6,4.6l0,0.2l1.6,5.1l0.6,5.5l0,253l-0.6,5.7l0,0.2l-1.6,5.1l-2.6,4.6l-3.3,4.2l0,0.2l-4,3.3l-0.2,0l-4.8,2.5l-5.1,1.5l-0.2,0l-5.5,0.6l-541.2,0l-5.5,-0.6L213.8,446l-0.2,0l-4.8,-2.5l-4,-3.3l0,-0.2l-3.3,-4.2l-2.6,-4.6l-0.2,0l-1.6,-5.1l0,-0.2l-0.6,-5.7l0,-253l0.6,-5.5l1.6,-5.1l0.2,-0.2l2.6,-4.6l3.3,-4.2l4,-3.3l0,-0.2l4.8,-2.6l0.2,0l5.1,-1.6l5.5,-0.6Z" class="g1_88" />
<path d="M224.4,140.1l0,-0.8Z" class="g1_88" />
</svg>