<?xml version="1.0" encoding="UTF-8" standalone="no"?>
<!DOCTYPE svg PUBLIC "-//W3C//DTD SVG 1.1//EN"
"http://www.w3.org/Graphics/SVG/1.1/DTD/svg11.dtd">
<svg viewBox="0 0 935 1210" version="1.1" xmlns="http://www.w3.org/2000/svg" xmlns:xlink="http://www.w3.org/1999/xlink">
<defs>
<style type="text/css"><![CDATA[
.g1_60{
}
]]></style>
</defs>
<path d="M191.8,1063.2l1.4,0l0,-246.8l-1.4,0l0,246.8Z" class="g1_60" />
<path d="M553.8,1063.2l1.5,0l0,-246.8l-1.5,0l0,246.8Z" class="g1_60" />
<path d="M191.8,816.4l363.5,0l0,-1.5l-363.5,0l0,1.5Z" class="g1_60" />
<path d="M191.8,835.1l363.5,0l0,-0.7l-363.5,0l0,0.7Z" class="g1_60" />
<path d="M191.8,854.3l363.5,0l0,-0.7l-363.5,0l0,0.7Z" class="g1_60" />
<path d="M191.8,873.4l363.5,0l0,-0.7l-363.5,0l0,0.7Z" class="g1_60" />
<path d="M191.8,892.5l363.5,0l0,-0.8l-363.5,0l0,0.8Z" class="g1_60" />
<path d="M191.8,911.5l363.5,0l0,-0.7l-363.5,0l0,0.7Z" class="g1_60" />
<path d="M191.8,930.6l363.5,0l0,-0.7l-363.5,0l0,0.7Z" class="g1_60" />
<path d="M191.8,949.7l363.5,0l0,-0.8l-363.5,0l0,0.8Z" class="g1_60" />
<path d="M191.8,968.9l363.5,0l0,-0.7l-363.5,0l0,0.7Z" class="g1_60" />
<path d="M191.8,988l363.5,0l0,-0.7l-363.5,0l0,0.7Z" class="g1_60" />
<path d="M191.8,1007.1l363.5,0l0,-0.8l-363.5,0l0,0.8Z" class="g1_60" />
<path d="M191.8,1026.1l363.5,0l0,-0.7l-363.5,0l0,0.7Z" class="g1_60" />
<path d="M191.8,1045.2l363.5,0l0,-0.8l-363.5,0l0,0.8Z" class="g1_60" />
<path d="M191.8,1064.6l363.5,0l0,-1.5l-363.5,0l0,1.5Z" class="g1_60" />
</svg>