<?xml version="1.0" encoding="UTF-8" standalone="no"?>
<!DOCTYPE svg PUBLIC "-//W3C//DTD SVG 1.1//EN"
"http://www.w3.org/Graphics/SVG/1.1/DTD/svg11.dtd">
<svg viewBox="0 0 935 1210" version="1.1" xmlns="http://www.w3.org/2000/svg" xmlns:xlink="http://www.w3.org/1999/xlink">
<defs>
<style type="text/css"><![CDATA[
.g1_90{
}
]]></style>
</defs>
<path d="M192.1,246.4l0.8,0l0,-125.4l-0.8,0l0,125.4Z" class="g1_90" />
<path d="M494.6,247.1l0.8,0l0,-126.8l-0.8,0l0,126.8Z" class="g1_90" />
<path d="M797.1,246.4l0.8,0l0,-125.4l-0.8,0l0,125.4Z" class="g1_90" />
<path d="M192.1,121l605.8,0l0,-0.7l-605.8,0l0,0.7Z" class="g1_90" />
<path d="M192.1,146.3l605.8,0l0,-0.7l-605.8,0l0,0.7Z" class="g1_90" />
<path d="M192.1,171.4l605.8,0l0,-0.7l-605.8,0l0,0.7Z" class="g1_90" />
<path d="M192.1,196.7l605.8,0l0,-0.7l-605.8,0l0,0.7Z" class="g1_90" />
<path d="M192.1,221.8l605.8,0l0,-0.7l-605.8,0l0,0.7Z" class="g1_90" />
<path d="M192.1,247.1l605.8,0l0,-0.7l-605.8,0l0,0.7Z" class="g1_90" />
</svg>