<?xml version="1.0" encoding="UTF-8" standalone="no"?>
<!DOCTYPE svg PUBLIC "-//W3C//DTD SVG 1.1//EN"
"http://www.w3.org/Graphics/SVG/1.1/DTD/svg11.dtd">
<svg viewBox="0 0 935 1210" version="1.1" xmlns="http://www.w3.org/2000/svg" xmlns:xlink="http://www.w3.org/1999/xlink">
<defs>
<style type="text/css"><![CDATA[
.g1_115{
}
]]></style>
</defs>
<path d="M247.1,530.9l0.8,0l0,-154.2l-0.8,0l0,154.2Z" class="g1_115" />
<path d="M504.5,531.7l0.8,0l0,-155.9l-0.8,0l0,155.9Z" class="g1_115" />
<path d="M620.6,531.7l0.7,0l0,-155.9l-0.7,0l0,155.9Z" class="g1_115" />
<path d="M774.8,530.9l0.7,0l0,-154.2l-0.7,0l0,154.2Z" class="g1_115" />
<path d="M247.1,376.6l528.4,0l0,-0.8l-528.4,0l0,0.8Z" class="g1_115" />
<path d="M247.1,430.8l528.4,0l0,-0.7l-528.4,0l0,0.7Z" class="g1_115" />
<path d="M247.1,456.1l528.4,0l0,-0.7l-528.4,0l0,0.7Z" class="g1_115" />
<path d="M247.1,481.3l528.4,0l0,-0.8l-528.4,0l0,0.8Z" class="g1_115" />
<path d="M247.1,506.6l528.4,0l0,-0.8l-528.4,0l0,0.8Z" class="g1_115" />
<path d="M247.1,531.7l528.4,0l0,-0.8l-528.4,0l0,0.8Z" class="g1_115" />
</svg>