<?xml version="1.0" encoding="UTF-8" standalone="no"?>
<!DOCTYPE svg PUBLIC "-//W3C//DTD SVG 1.1//EN"
"http://www.w3.org/Graphics/SVG/1.1/DTD/svg11.dtd">
<svg viewBox="0 0 935 1210" version="1.1" xmlns="http://www.w3.org/2000/svg" xmlns:xlink="http://www.w3.org/1999/xlink">
<defs>
<style type="text/css"><![CDATA[
.g1_35{
}
]]></style>
</defs>
<path d="M137.5,338.1l0,-0.8Z" class="g1_35" />
<path d="M137.5,338.1l715,0l0,-0.8l-715,0l0,0.8Z" class="g1_35" />
<path d="M279.4,662.7l-5.5,0.6l0.2,0l-5.1,1.5l-4.8,2.5l0.2,0l-4.1,3.3l0,-0.1l-3.3,4.2l-2.5,4.5l-1.7,5.2l0,-0.2l-0.5,5.7l0,191l0.5,5.7l1.7,5.1l0,-0.2l2.5,4.6l3.3,4.1l4.1,3.4l-0.2,-0.1L269,906l5.1,1.5l-0.2,0l5.5,0.5l541.2,0l5.5,-0.5l5.3,-1.5l-0.2,0.2l4.6,-2.6l4,-3.4l3.5,-4.1l-0.1,0l2.3,-4.6l0,0.2l1.7,-5.1l0.5,-5.7l0,-191l-0.5,-5.7l0,0.2l-1.7,-5.2l-2.3,-4.5l0.1,0.2l-3.5,-4.3l-4,-3.3l-4.6,-2.5l0.2,0l-5.3,-1.5l-5.5,-0.6l-541.2,0l0,-0.7l541.2,0l5.5,0.6l0.2,0l5.3,1.4l0,0.2l4.6,2.6l0.2,0l4,3.3l3.5,4.2l2.4,4.6l0,0.2l1.6,5.1l0.6,5.7l0,191l-0.6,5.7l0,0.2l-1.6,5.1l-2.4,4.6l0,0.2l-3.5,4l-4,3.5l-0.2,0l-4.6,2.6l-5.3,1.4l-0.2,0l-5.5,0.6l-541.2,0l-5.5,-0.6l-5.1,-1.4l-0.2,0l-4.8,-2.6l-4,-3.5l-3.3,-4l0,-0.2l-2.6,-4.6l-0.2,0l-1.6,-5.1l0,-0.2l-0.6,-5.7l0,-191l0.6,-5.7l1.6,-5.1l0.2,-0.2l2.6,-4.6l3.3,-4.2l4,-3.3l0,-0.2l4.8,-2.6l0.2,0l5.1,-1.4l5.5,-0.6Z" class="g1_35" />
<path d="M279.4,662.7l0,-0.7Z" class="g1_35" />
</svg>