<?xml version="1.0" encoding="UTF-8" standalone="no"?>
<!DOCTYPE svg PUBLIC "-//W3C//DTD SVG 1.1//EN"
"http://www.w3.org/Graphics/SVG/1.1/DTD/svg11.dtd">
<svg viewBox="0 0 935 1210" version="1.1" xmlns="http://www.w3.org/2000/svg" xmlns:xlink="http://www.w3.org/1999/xlink">
<defs>
<style type="text/css"><![CDATA[
.g1_341{
}
]]></style>
</defs>
<path d="M137.5,166.1l0,-0.7Z" class="g1_341" />
<path d="M137.5,166.1l715,0l0,-0.7l-715,0l0,0.7Z" class="g1_341" />
<path d="M247.1,709.3l0.8,0l0,-100.1l-0.8,0l0,100.1Z" class="g1_341" />
<path d="M700.9,710.1l0.7,0l0,-101.6l-0.7,0l0,101.6Z" class="g1_341" />
<path d="M852.1,709.3l0.8,0l0,-100.1l-0.8,0l0,100.1Z" class="g1_341" />
<path d="M247.1,609.2l605.8,0l0,-0.7l-605.8,0l0,0.7Z" class="g1_341" />
<path d="M247.1,634.3l605.8,0l0,-0.7l-605.8,0l0,0.7Z" class="g1_341" />
<path d="M247.1,659.6l605.8,0l0,-0.7l-605.8,0l0,0.7Z" class="g1_341" />
<path d="M247.1,684.8l605.8,0l0,-0.8l-605.8,0l0,0.8Z" class="g1_341" />
<path d="M247.1,710.1l605.8,0l0,-0.8l-605.8,0l0,0.8Z" class="g1_341" />
</svg>