<?xml version="1.0" encoding="UTF-8" standalone="no"?>
<!DOCTYPE svg PUBLIC "-//W3C//DTD SVG 1.1//EN"
"http://www.w3.org/Graphics/SVG/1.1/DTD/svg11.dtd">
<svg viewBox="0 0 935 1210" version="1.1" xmlns="http://www.w3.org/2000/svg" xmlns:xlink="http://www.w3.org/1999/xlink">
<defs>
<clipPath id="c0_283"><path d="M247.5,758.5l0,-148.9l605,0l0,148.9Z" /></clipPath>
<style type="text/css"><![CDATA[
.g1_283{
}
]]></style>
</defs>
<path d="M137.5,149.2l0,-0.7Z" class="g1_283" />
<path d="M137.5,149.2l715,0l0,-0.7l-715,0l0,0.7Z" class="g1_283" />
<g clip-path="url(#c0_283)">
<path d="M279.4,619.1l-5.5,0.6l0.2,0l-5.1,1.6l-4.8,2.6l0.2,0l-4.1,3.3l-3.3,4l0,-0.2l-2.5,4.8l-1.7,5.1l0,-0.2l-0.5,5.6l0,98.9l0.5,5.7l1.7,5.2l0,-0.2l2.5,4.6l3.3,4.2l4.1,3.3l-0.2,-0.2l4.8,2.6l5.1,1.4l-0.2,0l5.5,0.6l541.2,0l5.5,-0.6l5.3,-1.4l-0.2,0.1l4.6,-2.5l4,-3.3l3.5,-4.2l-0.1,0l2.3,-4.6l0,0.2l1.7,-5.2l0.5,-5.7l0,-98.9l-0.5,-5.6l0,0.2l-1.7,-5.1L843.2,631l0.1,0.2l-3.5,-4l-4,-3.3l-4.6,-2.6l0.2,0l-5.3,-1.6l-5.5,-0.6l-541.2,0l0,-0.7l541.2,0l5.5,0.5l0.2,0l5.3,1.7l0,0.2l4.6,2.5l0.2,0l4,3.3l3.5,4.1l2.4,4.7l0,0.2l1.6,5.1l0.6,5.6l0,98.9l-0.6,5.7l0,0.2l-1.6,5.2l-2.4,4.5l0,0.2l-3.5,4.2l-4,3.3l-0.2,0l-4.6,2.6l-5.3,1.5l-0.2,0l-5.5,0.5l-541.2,0l-5.5,-0.5l-5.1,-1.5l-0.2,0l-4.8,-2.6l-4,-3.3l0,-0.2l-3.3,-4.2l-2.6,-4.5l-0.2,0l-1.6,-5.2l0,-0.2l-0.6,-5.7l0,-98.9l0.6,-5.6l1.6,-5.1l0,-0.2l2.6,-4.7l0.2,0l3.3,-4.1l4,-3.3l0,-0.1l4.8,-2.6l0.2,0l5.1,-1.7l5.5,-0.5Z" class="g1_283" />
</g>
<path d="M279.4,619.1l0,-0.7Z" class="g1_283" />
</svg>