<?xml version="1.0" encoding="UTF-8" standalone="no"?>
<!DOCTYPE svg PUBLIC "-//W3C//DTD SVG 1.1//EN"
"http://www.w3.org/Graphics/SVG/1.1/DTD/svg11.dtd">
<svg viewBox="0 0 935 1210" version="1.1" xmlns="http://www.w3.org/2000/svg" xmlns:xlink="http://www.w3.org/1999/xlink">
<defs>
<style type="text/css"><![CDATA[
.g1_70{
}
]]></style>
</defs>
<path d="M192.1,950.6l0.8,0l0,-215.4l-0.8,0l0,215.4Z" class="g1_70" />
<path d="M272.8,951.5l0.7,0l0,-217.1l-0.7,0l0,217.1Z" class="g1_70" />
<path d="M795.7,950.6l0.7,0l0,-215.4l-0.7,0l0,215.4Z" class="g1_70" />
<path d="M192.1,735.2l604.3,0l0,-0.8l-604.3,0l0,0.8Z" class="g1_70" />
<path d="M192.1,760.5l604.3,0l0,-0.8l-604.3,0l0,0.8Z" class="g1_70" />
<path d="M192.1,785.6l604.3,0l0,-0.7l-604.3,0l0,0.7Z" class="g1_70" />
<path d="M192.1,810.9l604.3,0l0,-0.7l-604.3,0l0,0.7Z" class="g1_70" />
<path d="M192.1,836l604.3,0l0,-0.7l-604.3,0l0,0.7Z" class="g1_70" />
<path d="M192.1,861.3l604.3,0l0,-0.7l-604.3,0l0,0.7Z" class="g1_70" />
<path d="M192.1,886.4l604.3,0l0,-0.7l-604.3,0l0,0.7Z" class="g1_70" />
<path d="M192.1,926.2l604.3,0l0,-0.7l-604.3,0l0,0.7Z" class="g1_70" />
<path d="M192.1,951.5l604.3,0l0,-0.7l-604.3,0l0,0.7Z" class="g1_70" />
<path d="M53.5,779.2l1.5,0l0,-13l-1.5,0l0,13Z" class="g1_70" />
</svg>