<?xml version="1.0" encoding="UTF-8" standalone="no"?>
<!DOCTYPE svg PUBLIC "-//W3C//DTD SVG 1.1//EN"
"http://www.w3.org/Graphics/SVG/1.1/DTD/svg11.dtd">
<svg viewBox="0 0 935 1210" version="1.1" xmlns="http://www.w3.org/2000/svg" xmlns:xlink="http://www.w3.org/1999/xlink">
<defs>
<clipPath id="c0_254"><path d="M193.6,977.2l0,-276.7l602.8,0l0,276.7Z" /></clipPath>
<style type="text/css"><![CDATA[
.g1_254{
fill: #FFFFFF;
}
.g2_254{
}
]]></style>
</defs>
<g clip-path="url(#c0_254)">
<path d="M193.6,977.2l602.8,0l0,-276.7l-602.8,0l0,276.7Z" class="g1_254" />
</g>
<path d="M225,707.5l-5.5,0.5l0.1,0l-5.1,1.7l-4.8,2.5l0.2,0l-4,3.3l-3.3,4.1l0,-0.2l-2.6,4.8l-1.6,5.1l0,-0.2l-0.6,5.5l0,196.9l0.6,5.5l1.6,5.1l0,-0.1l2.6,4.7l3.3,4.1l4,3.3l-0.2,-0.2l4.8,2.5l5.1,1.7l-0.1,0l5.5,0.5l541.1,0l5.6,-0.5l5.3,-1.7l-0.2,0.2l4.6,-2.5l4,-3.3l3.5,-4.1l-0.2,0l2.4,-4.7l0,0.1l1.6,-5.1l0.6,-5.5l0,-196.9l-0.6,-5.5l0,0.2l-1.6,-5.1l-2.4,-4.8l0.2,0.2l-3.5,-4.1l-4,-3.3l-4.6,-2.5l0.2,0L771.7,708l-5.6,-0.5l-541.1,0l0,-0.8l541.1,0l5.6,0.6l0.1,0l5.3,1.6l0,0.2l4.6,2.6l0.2,0L786,715l3.4,4l2.4,4.8l0,0.2l1.7,5.1l0.5,5.5l0,196.9l-0.5,5.5l0,0.2l-1.7,5.1l-2.4,4.8l0,0.2l-3.4,4l-4.1,3.3l-0.2,0l-4.6,2.6l-5.3,1.6l-0.1,0l-5.6,0.6l-541.1,0l-5.5,-0.6l-5.2,-1.6l-0.2,0l-4.7,-2.6l-4.1,-3.3l-3.3,-4l-0.1,-0.2l-2.6,-4.8l-1.7,-5.1l0,-0.2l-0.5,-5.5l0,-196.9l0.5,-5.5l1.7,-5.1l0,-0.2l2.6,-4.8l0.1,0l3.3,-4l4.1,-3.3l0,-0.2l4.7,-2.6l0.2,0l5.2,-1.6l5.5,-0.6Z" class="g2_254" />
<path d="M225,707.5l0,-0.8Z" class="g2_254" />
</svg>