<?xml version="1.0" encoding="UTF-8" standalone="no"?>
<!DOCTYPE svg PUBLIC "-//W3C//DTD SVG 1.1//EN"
"http://www.w3.org/Graphics/SVG/1.1/DTD/svg11.dtd">
<svg viewBox="0 0 935 1210" version="1.1" xmlns="http://www.w3.org/2000/svg" xmlns:xlink="http://www.w3.org/1999/xlink">
<defs>
<style type="text/css"><![CDATA[
.g1_390{
}
]]></style>
</defs>
<path d="M82.5,352l0,-0.7Z" class="g1_390" />
<path d="M82.5,352l715,0l0,-0.7l-715,0l0,0.7Z" class="g1_390" />
<path d="M191.8,158l1.4,0l0,-36.6l-1.4,0l0,36.6Z" class="g1_390" />
<path d="M624.4,159.7l0.8,0l0,-39.8l-0.8,0l0,39.8Z" class="g1_390" />
<path d="M719.2,159.7l0.8,0L720,139l-0.8,0l0,20.7Z" class="g1_390" />
<path d="M795.3,158l1.5,0l0,-36.6l-1.5,0l0,36.6Z" class="g1_390" />
<path d="M191.8,121.4l605,0l0,-1.5l-605,0l0,1.5Z" class="g1_390" />
<path d="M191.8,140.4l605,0l0,-1.4l-605,0l0,1.4Z" class="g1_390" />
<path d="M191.8,159.7l605,0l0,-1.5l-605,0l0,1.5Z" class="g1_390" />
<path d="M192.1,970.7l0.8,0l0,-255.7l-0.8,0l0,255.7Z" class="g1_390" />
<path d="M191.8,1124.8l1.4,0l0,-153.1l-1.4,0l0,153.1Z" class="g1_390" />
<path d="M551.3,971.7l0.7,0l0,-257.6l-0.7,0l0,257.6Z" class="g1_390" />
<path d="M797.1,970.7l0.8,0l0,-255.7l-0.8,0l0,255.7Z" class="g1_390" />
<path d="M796.8,1124.8l1.4,0l0,-153.1l-1.4,0l0,153.1Z" class="g1_390" />
<path d="M192.1,715l605.8,0l0,-0.7l-605.8,0l0,0.7Z" class="g1_390" />
<path d="M192.1,740.1l605.8,0l0,-0.7l-605.8,0l0,0.7Z" class="g1_390" />
<path d="M192.1,837.8l605.8,0l0,-0.7l-605.8,0l0,0.7Z" class="g1_390" />
<path d="M192.1,892.1l605.8,0l0,-0.7l-605.8,0l0,0.7Z" class="g1_390" />
<path d="M192.1,931.9l605.8,0l0,-0.7l-605.8,0l0,0.7Z" class="g1_390" />
<path d="M191.8,971.7l606.4,0l0,-0.8l-606.4,0l0,0.8Z" class="g1_390" />
<path d="M191.8,1126.2l606.4,0l0,-1.4l-606.4,0l0,1.4Z" class="g1_390" />
</svg>