<?xml version="1.0" encoding="UTF-8" standalone="no"?>
<!DOCTYPE svg PUBLIC "-//W3C//DTD SVG 1.1//EN"
"http://www.w3.org/Graphics/SVG/1.1/DTD/svg11.dtd">
<svg viewBox="0 0 935 1210" version="1.1" xmlns="http://www.w3.org/2000/svg" xmlns:xlink="http://www.w3.org/1999/xlink">
<defs>
<style type="text/css"><![CDATA[
.g1_416{
}
]]></style>
</defs>
<path d="M194.7,141L796,141l0,-1.5l-601.3,0l0,1.5Z" class="g1_416" />
<path d="M794.6,280.3l1.4,0l0,-140.1l-1.4,0l0,140.1Z" class="g1_416" />
<path d="M194,280.3l601.3,0l0,-1.5l-601.3,0l0,1.5Z" class="g1_416" />
<path d="M194,279.6l1.4,0l0,-140.1l-1.4,0l0,140.1Z" class="g1_416" />
<path d="M53.5,330l1.5,0L55,103l-1.5,0l0,227Z" class="g1_416" />
<path d="M53.5,375.8l1.5,0l0,-21.4l-1.5,0l0,21.4Z" class="g1_416" />
<path d="M53.5,881.7l1.5,0L55,392l-1.5,0l0,489.7Z" class="g1_416" />
<path d="M53.5,927.5l1.5,0L55,906l-1.5,0l0,21.5Z" class="g1_416" />
<path d="M53.5,1116.9l1.5,0L55,939.6l-1.5,0l0,177.3Z" class="g1_416" />
</svg>