<?xml version="1.0" encoding="UTF-8" standalone="no"?>
<!DOCTYPE svg PUBLIC "-//W3C//DTD SVG 1.1//EN"
"http://www.w3.org/Graphics/SVG/1.1/DTD/svg11.dtd">
<svg viewBox="0 0 935 1210" version="1.1" xmlns="http://www.w3.org/2000/svg" xmlns:xlink="http://www.w3.org/1999/xlink">
<defs>
<style type="text/css"><![CDATA[
.g1_342{
}
]]></style>
</defs>
<path d="M82.5,105.1l0,-0.8Z" class="g1_342" />
<path d="M82.5,105.1l715,0l0,-0.8l-715,0l0,0.8Z" class="g1_342" />
<path d="M192.1,387.7l0.8,0l0,-125.4l-0.8,0l0,125.4Z" class="g1_342" />
<path d="M645.9,388.5l0.7,0l0,-126.9l-0.7,0l0,126.9Z" class="g1_342" />
<path d="M797.1,387.7l0.8,0l0,-125.4l-0.8,0l0,125.4Z" class="g1_342" />
<path d="M192.1,262.3l605.8,0l0,-0.7l-605.8,0l0,0.7Z" class="g1_342" />
<path d="M192.1,287.7l605.8,0l0,-0.8l-605.8,0l0,0.8Z" class="g1_342" />
<path d="M192.1,312.8l605.8,0l0,-0.8l-605.8,0l0,0.8Z" class="g1_342" />
<path d="M192.1,338.1l605.8,0l0,-0.8l-605.8,0l0,0.8Z" class="g1_342" />
<path d="M192.1,363.2l605.8,0l0,-0.8l-605.8,0l0,0.8Z" class="g1_342" />
<path d="M192.1,388.5l605.8,0l0,-0.7l-605.8,0l0,0.7Z" class="g1_342" />
<path d="M192.1,778.1l0.8,0l0,-175.8l-0.8,0l0,175.8Z" class="g1_342" />
<path d="M645.9,778.8l0.7,0l0,-177.3l-0.7,0l0,177.3Z" class="g1_342" />
<path d="M797.1,778.1l0.8,0l0,-175.8l-0.8,0l0,175.8Z" class="g1_342" />
<path d="M192.1,602.3l605.8,0l0,-0.8l-605.8,0l0,0.8Z" class="g1_342" />
<path d="M192.1,627.6l605.8,0l0,-0.8l-605.8,0l0,0.8Z" class="g1_342" />
<path d="M192.1,652.7l605.8,0l0,-0.8l-605.8,0l0,0.8Z" class="g1_342" />
<path d="M192.1,678l605.8,0l0,-0.8l-605.8,0l0,0.8Z" class="g1_342" />
<path d="M192.1,703.1l605.8,0l0,-0.7l-605.8,0l0,0.7Z" class="g1_342" />
<path d="M192.1,728.4l605.8,0l0,-0.7l-605.8,0l0,0.7Z" class="g1_342" />
<path d="M192.1,753.5l605.8,0l0,-0.7l-605.8,0l0,0.7Z" class="g1_342" />
<path d="M192.1,778.8l605.8,0l0,-0.7l-605.8,0l0,0.7Z" class="g1_342" />
</svg>