<?xml version="1.0" encoding="UTF-8" standalone="no"?>
<!DOCTYPE svg PUBLIC "-//W3C//DTD SVG 1.1//EN"
"http://www.w3.org/Graphics/SVG/1.1/DTD/svg11.dtd">
<svg viewBox="0 0 935 1210" version="1.1" xmlns="http://www.w3.org/2000/svg" xmlns:xlink="http://www.w3.org/1999/xlink">
<defs>
<style type="text/css"><![CDATA[
.g1_50{
}
]]></style>
</defs>
<path d="M191.8,1125.9l1.4,0l0,-74.1l-1.4,0l0,74.1Z" class="g1_50" />
<path d="M342.8,1127.3l0.8,0l0,-77.2l-0.8,0l0,77.2Z" class="g1_50" />
<path d="M493.4,1125.9l1.4,0l0,-74.1l-1.4,0l0,74.1Z" class="g1_50" />
<path d="M191.8,1051.8l303,0l0,-1.5l-303,0l0,1.5Z" class="g1_50" />
<path d="M191.8,1076.9l303,0l0,-1.5l-303,0l0,1.5Z" class="g1_50" />
<path d="M191.8,1101.8l303,0l0,-0.7l-303,0l0,0.7Z" class="g1_50" />
<path d="M191.8,1127.3l303,0l0,-1.4l-303,0l0,1.4Z" class="g1_50" />
<path d="M53.5,193.2l1.5,0l0,-30.6l-1.5,0l0,30.6Z" class="g1_50" />
<path d="M53.5,1095.2l1.5,0l0,-13l-1.5,0l0,13Z" class="g1_50" />
</svg>