<?xml version="1.0" encoding="UTF-8" standalone="no"?>
<!DOCTYPE svg PUBLIC "-//W3C//DTD SVG 1.1//EN"
"http://www.w3.org/Graphics/SVG/1.1/DTD/svg11.dtd">
<svg viewBox="0 0 935 1210" version="1.1" xmlns="http://www.w3.org/2000/svg" xmlns:xlink="http://www.w3.org/1999/xlink">
<defs>
<style type="text/css"><![CDATA[
.g1_51{
}
]]></style>
</defs>
<path d="M246.8,203.1l1.4,0l0,-99.1l-1.4,0l0,99.1Z" class="g1_51" />
<path d="M397.8,204.8l0.8,0l0,-102.5l-0.8,0l0,102.5Z" class="g1_51" />
<path d="M548.4,203.1l1.4,0l0,-99.1l-1.4,0l0,99.1Z" class="g1_51" />
<path d="M246.8,103.8l303,0l0,-1.5l-303,0l0,1.5Z" class="g1_51" />
<path d="M246.8,129.1l303,0l0,-1.5l-303,0l0,1.5Z" class="g1_51" />
<path d="M246.8,153.8l303,0l0,-0.7l-303,0l0,0.7Z" class="g1_51" />
<path d="M246.8,179.1l303,0l0,-0.7l-303,0l0,0.7Z" class="g1_51" />
<path d="M246.8,204.6l303,0l0,-1.5l-303,0l0,1.5Z" class="g1_51" />
</svg>