<?xml version="1.0" encoding="UTF-8" standalone="no"?>
<!DOCTYPE svg PUBLIC "-//W3C//DTD SVG 1.1//EN"
"http://www.w3.org/Graphics/SVG/1.1/DTD/svg11.dtd">
<svg viewBox="0 0 935 1210" version="1.1" xmlns="http://www.w3.org/2000/svg" xmlns:xlink="http://www.w3.org/1999/xlink">
<defs>
<style type="text/css"><![CDATA[
.g1_391{
}
]]></style>
</defs>
<path d="M247.1,210.5l0.8,0l0,-89.5l-0.8,0l0,89.5Z" class="g1_391" />
<path d="M246.8,364.3l1.4,0l0,-153.1l-1.4,0l0,153.1Z" class="g1_391" />
<path d="M606.3,211.2l0.7,0l0,-90.9l-0.7,0l0,90.9Z" class="g1_391" />
<path d="M852.1,210.5l0.8,0l0,-89.5l-0.8,0l0,89.5Z" class="g1_391" />
<path d="M851.8,364.3l1.4,0l0,-153.1l-1.4,0l0,153.1Z" class="g1_391" />
<path d="M247.1,121l605.8,0l0,-0.7l-605.8,0l0,0.7Z" class="g1_391" />
<path d="M247.1,146.3l605.8,0l0,-0.7l-605.8,0l0,0.7Z" class="g1_391" />
<path d="M247.1,171.4l605.8,0l0,-0.7l-605.8,0l0,0.7Z" class="g1_391" />
<path d="M246.8,211.2l606.4,0l0,-0.7l-606.4,0l0,0.7Z" class="g1_391" />
<path d="M246.8,365.9l606.4,0l0,-1.4l-606.4,0l0,1.4Z" class="g1_391" />
<path d="M247.1,795.7l0.8,0l0,-301.8l-0.8,0l0,301.8Z" class="g1_391" />
<path d="M577.1,670.3l0.8,0l0,-177.1l-0.8,0l0,177.1Z" class="g1_391" />
<path d="M852.1,795.7l0.8,0l0,-301.8l-0.8,0l0,301.8Z" class="g1_391" />
<path d="M247.1,493.9l605.8,0l0,-0.7l-605.8,0l0,0.7Z" class="g1_391" />
<path d="M247.1,519l605.8,0l0,-0.7l-605.8,0l0,0.7Z" class="g1_391" />
<path d="M247.1,544.3l605.8,0l0,-0.7l-605.8,0l0,0.7Z" class="g1_391" />
<path d="M247.1,569.4l605.8,0l0,-0.7l-605.8,0l0,0.7Z" class="g1_391" />
<path d="M247.1,594.7l605.8,0l0,-0.7l-605.8,0l0,0.7Z" class="g1_391" />
<path d="M247.1,619.9l605.8,0l0,-0.8l-605.8,0l0,0.8Z" class="g1_391" />
<path d="M247.1,645.2l605.8,0l0,-0.8l-605.8,0l0,0.8Z" class="g1_391" />
<path d="M247.1,670.3l605.8,0l0,-0.8l-605.8,0l0,0.8Z" class="g1_391" />
<path d="M247.1,796.4l605.8,0l0,-0.7l-605.8,0l0,0.7Z" class="g1_391" />
<path d="M108.5,789.8l1.5,0l0,-44.9l-1.5,0l0,44.9Z" class="g1_391" />
</svg>