<?xml version="1.0" encoding="UTF-8" standalone="no"?>
<!DOCTYPE svg PUBLIC "-//W3C//DTD SVG 1.1//EN"
"http://www.w3.org/Graphics/SVG/1.1/DTD/svg11.dtd">
<svg viewBox="0 0 935 1210" version="1.1" xmlns="http://www.w3.org/2000/svg" xmlns:xlink="http://www.w3.org/1999/xlink">
<defs>
<style type="text/css"><![CDATA[
.g1_206{
}
]]></style>
</defs>
<path d="M82.5,551.8l0,-0.7Z" class="g1_206" />
<path d="M82.5,551.8l715,0l0,-0.7l-715,0l0,0.7Z" class="g1_206" />
<path d="M82.1,239.4l0.8,0L82.9,121l-0.8,0l0,118.4Z" class="g1_206" />
<path d="M372.4,240.2l0.7,0l0,-119.9l-0.7,0l0,119.9Z" class="g1_206" />
<path d="M420.4,240.2l0.7,0l0,-119.9l-0.7,0l0,119.9Z" class="g1_206" />
<path d="M468.2,240.2l0.8,0l0,-119.9l-0.8,0l0,119.9Z" class="g1_206" />
<path d="M516.3,240.2l0.7,0l0,-119.9l-0.7,0l0,119.9Z" class="g1_206" />
<path d="M564.1,240.2l0.7,0l0,-119.9l-0.7,0l0,119.9Z" class="g1_206" />
<path d="M628.1,240.2l0.7,0l0,-119.9l-0.7,0l0,119.9Z" class="g1_206" />
<path d="M718.1,240.2l0.7,0l0,-119.9l-0.7,0l0,119.9Z" class="g1_206" />
<path d="M795.7,239.4l0.7,0l0,-118.4l-0.7,0l0,118.4Z" class="g1_206" />
<path d="M82.1,121l714.3,0l0,-0.7l-714.3,0l0,0.7Z" class="g1_206" />
<path d="M82.1,175.3l714.3,0l0,-0.8l-714.3,0l0,0.8Z" class="g1_206" />
<path d="M82.1,215.1l714.3,0l0,-0.8l-714.3,0l0,0.8Z" class="g1_206" />
<path d="M82.1,240.2l714.3,0l0,-0.8l-714.3,0l0,0.8Z" class="g1_206" />
</svg>