<?xml version="1.0" encoding="UTF-8" standalone="no"?>
<!DOCTYPE svg PUBLIC "-//W3C//DTD SVG 1.1//EN"
"http://www.w3.org/Graphics/SVG/1.1/DTD/svg11.dtd">
<svg viewBox="0 0 935 1210" version="1.1" xmlns="http://www.w3.org/2000/svg" xmlns:xlink="http://www.w3.org/1999/xlink">
<defs>
<style type="text/css"><![CDATA[
.g1_284{
}
]]></style>
</defs>
<path d="M82.5,831.6l0,-0.7Z" class="g1_284" />
<path d="M82.5,831.6l715,0l0,-0.7l-715,0l0,0.7Z" class="g1_284" />
<path d="M224.4,531.3l-5.5,0.5l0.2,0l-5.1,1.7l-4.8,2.4l0.2,0l-4.1,3.5l-3.3,4l0,-0.2l-2.5,4.6l-1.7,5.3l0,-0.2l-0.5,5.5l0,207.9l0.5,5.5l1.7,5.2l0,-0.2l2.5,4.6l3.3,4.2l4.1,3.3l-0.2,-0.2l4.8,2.6l5.1,1.6l-0.2,0l5.5,0.6l541.2,0l5.5,-0.6l5.1,-1.6l-0.2,0l4.8,-2.6l0,0.2l4,-3.3l3.4,-4.2l2.5,-4.6l-0.2,0.2l1.7,-5.2l0.5,-5.5l0,-207.9l-0.5,-5.5l0,0.2l-1.7,-5.3l0.2,0l-2.5,-4.6l0,0.2l-3.4,-4l-4,-3.5L776,533.5l0.2,0l-5.1,-1.7l-5.5,-0.5l-541.2,0l0,-0.7l541.2,0l5.5,0.5l0.2,0l5.1,1.7l4.8,2.4l0.2,0.1l4,3.5l3.3,4.1l2.6,4.5l0,0.2l1.6,5.3l0.6,5.5l0,207.9l-0.6,5.5l0,0.2l-1.6,5.1l-2.6,4.6l-3.3,4.3l0,0.1l-4,3.3l-0.2,0l-4.8,2.6l-5.1,1.7l-0.2,0l-5.5,0.5l-541.2,0l-5.5,-0.5L213.8,792l-0.2,0l-4.8,-2.6l-4,-3.3l0,-0.1l-3.3,-4.3l-2.6,-4.6l-0.2,0L197.1,772l0,-0.2l-0.6,-5.5l0,-207.9l0.6,-5.5l1.6,-5.3l0.2,-0.2l2.6,-4.5l3.3,-4.1l4,-3.5l0,-0.1l4.8,-2.4l0.2,0l5.1,-1.7l5.5,-0.5Z" class="g1_284" />
<path d="M224.4,531.3l0,-0.7Z" class="g1_284" />
</svg>