<?xml version="1.0" encoding="UTF-8" standalone="no"?>
<!DOCTYPE svg PUBLIC "-//W3C//DTD SVG 1.1//EN"
"http://www.w3.org/Graphics/SVG/1.1/DTD/svg11.dtd">
<svg viewBox="0 0 935 1210" version="1.1" xmlns="http://www.w3.org/2000/svg" xmlns:xlink="http://www.w3.org/1999/xlink">
<defs>
<style type="text/css"><![CDATA[
.g1_331{
}
]]></style>
</defs>
<path d="M247.1,1131.4l0.8,0l0,-521.8l-0.8,0l0,521.8Z" class="g1_331" />
<path d="M610.1,1132.1l0.8,0l0,-523.4l-0.8,0l0,523.4Z" class="g1_331" />
<path d="M731.1,1132.1l0.8,0l0,-523.4l-0.8,0l0,523.4Z" class="g1_331" />
<path d="M852.1,1131.4l0.8,0l0,-521.8l-0.8,0l0,521.8Z" class="g1_331" />
<path d="M247.1,609.4l605.8,0l0,-0.7l-605.8,0l0,0.7Z" class="g1_331" />
<path d="M247.1,634.7l605.8,0l0,-0.7l-605.8,0l0,0.7Z" class="g1_331" />
<path d="M247.1,660l605.8,0l0,-0.7l-605.8,0l0,0.7Z" class="g1_331" />
<path d="M247.1,699.6l605.8,0l0,-0.7l-605.8,0l0,0.7Z" class="g1_331" />
<path d="M247.1,724.9l605.8,0l0,-0.7l-605.8,0l0,0.7Z" class="g1_331" />
<path d="M247.1,750l605.8,0l0,-0.7l-605.8,0l0,0.7Z" class="g1_331" />
<path d="M247.1,775.3l605.8,0l0,-0.7l-605.8,0l0,0.7Z" class="g1_331" />
<path d="M247.1,800.4l605.8,0l0,-0.7l-605.8,0l0,0.7Z" class="g1_331" />
<path d="M247.1,825.7l605.8,0l0,-0.7l-605.8,0l0,0.7Z" class="g1_331" />
<path d="M247.1,850.9l605.8,0l0,-0.8l-605.8,0l0,0.8Z" class="g1_331" />
<path d="M247.1,876.2l605.8,0l0,-0.8l-605.8,0l0,0.8Z" class="g1_331" />
<path d="M247.1,901.3l605.8,0l0,-0.8l-605.8,0l0,0.8Z" class="g1_331" />
<path d="M247.1,926.6l605.8,0l0,-0.8l-605.8,0l0,0.8Z" class="g1_331" />
<path d="M247.1,951.7l605.8,0l0,-0.7l-605.8,0l0,0.7Z" class="g1_331" />
<path d="M247.1,977l605.8,0l0,-0.7l-605.8,0l0,0.7Z" class="g1_331" />
<path d="M247.1,1002.1l605.8,0l0,-0.7l-605.8,0l0,0.7Z" class="g1_331" />
<path d="M247.1,1041.9l605.8,0l0,-0.8l-605.8,0l0,0.8Z" class="g1_331" />
<path d="M247.1,1081.7l605.8,0l0,-0.8l-605.8,0l0,0.8Z" class="g1_331" />
<path d="M247.1,1106.8l605.8,0l0,-0.7l-605.8,0l0,0.7Z" class="g1_331" />
<path d="M247.1,1132.1l605.8,0l0,-0.8l-605.8,0l0,0.8Z" class="g1_331" />
</svg>