<?xml version="1.0" encoding="UTF-8" standalone="no"?>
<!DOCTYPE svg PUBLIC "-//W3C//DTD SVG 1.1//EN"
"http://www.w3.org/Graphics/SVG/1.1/DTD/svg11.dtd">
<svg viewBox="0 0 935 1210" version="1.1" xmlns="http://www.w3.org/2000/svg" xmlns:xlink="http://www.w3.org/1999/xlink">
<defs>
<clipPath id="c0_259"><path d="M248.6,594.7l0,-250.9l602.8,0l0,250.9Z" /></clipPath>
<clipPath id="c1_259"><path d="M248.6,984.7l0,-248.6l602.8,0l0,248.6Z" /></clipPath>
<style type="text/css"><![CDATA[
.g1_259{
fill: #FFFFFF;
}
.g2_259{
}
]]></style>
</defs>
<path d="M248.6,343.8l602.8,0l0,250.9l-602.8,0Z" class="g1_259" />
<g clip-path="url(#c0_259)">
<path d="M280,350.7l-5.5,0.6l0.1,0l-5.1,1.6l-4.8,2.6l0.2,0l-4,3.3l-3.3,4l0,-0.2l-2.6,4.8l-1.6,5.1l0,-0.2l-0.6,5.6l0,256.1l0.6,5.5l1.6,5.1l0,-0.2l2.6,4.6l3.3,4.2l4,3.3l-0.2,-0.2l4.8,2.6l5.1,1.5l5.5,0.7l-0.1,0l541.1,0l5.6,-0.7l5.3,-1.5l-0.2,0.2l4.6,-2.6l4,-3.3l3.5,-4.2l-0.2,0l2.4,-4.6l0,0.2l1.6,-5.1l0.6,-5.5l0,-256.1l-0.6,-5.6l0,0.2l-1.6,-5.1l-2.4,-4.8l0.2,0.2l-3.5,-4l-4,-3.3l-4.6,-2.6l0.2,0l-5.3,-1.6l-5.6,-0.6l-541.1,0l0,-0.7l541.1,0l5.6,0.5l0.1,0l5.3,1.7l0,0.2l4.6,2.5l0.2,0l4.1,3.3l3.4,4.1l2.4,4.7l0,0.2l1.7,5.1l0.5,5.6L849,634l-0.5,5.5l0,0.1l-1.7,5.2l-2.4,4.6l0,0.2l-3.4,4.2l-4.1,3.3l-0.2,0l-4.6,2.5l-5.3,1.5l-5.5,0.7l-541.3,0l-5.5,-0.7l-5.2,-1.5l-0.2,0l-4.7,-2.5l-4.1,-3.3l0,-0.2L257,649.4l-2.5,-4.6l-0.2,0l-1.7,-5.2l0,-0.1L252.1,634l0,-256.1l0.5,-5.6l1.7,-5.1l0,-0.2l2.6,-4.7l0.1,0l3.3,-4.1l4.1,-3.3l0,-0.1l4.7,-2.6l0.2,0l5.2,-1.7L280,350Z" class="g2_259" />
</g>
<path d="M280,350.7l0,-0.7Z" class="g2_259" />
<path d="M248.6,736.1l602.8,0l0,248.6l-602.8,0Z" class="g1_259" />
<g clip-path="url(#c1_259)">
<path d="M280,740.7l-5.5,0.5l0.1,0l-5.1,1.7l-4.8,2.5l0.2,0l-4,3.3l0,-0.2l-3.3,4.3l-2.6,4.6l-1.6,5.1l0,-0.2l-0.6,5.5l0,256.1l0.6,5.5l1.6,5.1l0,-0.1l2.6,4.7l3.3,4.1l4,3.3l-0.2,-0.2l4.8,2.5l5.1,1.7l-0.1,0l5.5,0.5l541.1,0l5.6,-0.5l5.3,-1.7l-0.2,0.2l4.6,-2.5l4,-3.3l3.5,-4.1l-0.2,0l2.4,-4.7l0,0.1l1.6,-5.1l0.6,-5.5l0,-256.1l-0.6,-5.5l0,0.2l-1.6,-5.1l-2.4,-4.6l0.2,0.2l-3.5,-4.3l-4,-3.3l-4.6,-2.5l0.2,0l-5.3,-1.7l-5.6,-0.5l-541.1,0l0,-0.8l541.1,0l5.6,0.6l0.1,0l5.3,1.6l0,0.2l4.6,2.6l0.2,0l4.1,3.3l3.4,4.2l2.4,4.6l0,0.2l1.7,5.1l0.5,5.5l0,256.1l-0.5,5.5l0,0.2l-1.7,5.1l-2.4,4.8l0,0.2l-3.4,4l-4.1,3.3l-0.2,0l-4.6,2.6l-5.3,1.6l-0.1,0l-5.6,0.6l-541.1,0l-5.5,-0.6l-5.2,-1.6l-0.2,0l-4.7,-2.6l-4.1,-3.3l-3.3,-4l-0.1,-0.2l-2.6,-4.8l-1.7,-5.1l0,-0.2l-0.5,-5.5l0,-256.1l0.5,-5.5l1.7,-5.1l0.2,-0.2l2.5,-4.6l3.3,-4.2l4.1,-3.3l0,-0.2l4.7,-2.6l0.2,0l5.2,-1.6l5.5,-0.6Z" class="g2_259" />
</g>
<path d="M280,740.7l0,-0.8Z" class="g2_259" />
</svg>