<?xml version="1.0" encoding="UTF-8" standalone="no"?>
<!DOCTYPE svg PUBLIC "-//W3C//DTD SVG 1.1//EN"
"http://www.w3.org/Graphics/SVG/1.1/DTD/svg11.dtd">
<svg viewBox="0 0 935 1210" version="1.1" xmlns="http://www.w3.org/2000/svg" xmlns:xlink="http://www.w3.org/1999/xlink">
<defs>
<style type="text/css"><![CDATA[
.g1_45{
fill: #FFFFFF;
}
.g2_45{
}
]]></style>
</defs>
<path d="M248.6,477.4l602.8,0l0,353.8l-602.8,0Z" class="g1_45" />
<path d="M280.9,484.4l-5.5,0.5l0.2,0l-5.2,1.7l-4.8,2.5l0.2,0l-4,3.3l0,-0.1l-3.3,4.2l-2.6,4.6l-1.6,5.1l0,-0.2l-0.6,5.5l0,283.4l0.6,5.5l1.6,5.2l0,-0.2l2.6,4.8l3.3,4l4,3.3l-0.2,-0.2l4.8,2.6l5.2,1.6l-0.2,0l5.5,0.6l541.2,0l5.6,-0.6l5.2,-1.6l-0.2,0.2l4.6,-2.6l4.2,-3.3l3.3,-4l-0.2,0l2.6,-4.8l0,0.2l1.4,-5.2l0.6,-5.5l0,-283.4L848.6,506l0,0.2l-1.4,-5.1l0.2,0l-2.6,-4.6l-3.3,-4.2l0,0.1l-4.2,-3.3l-4.6,-2.5l0.2,0l-5.2,-1.7l-5.6,-0.5l-541.2,0l0,-0.8l541.2,0l5.6,0.6l0.2,0l5.2,1.6l0,0.2l4.6,2.6l4.2,3.3l0.2,0l3.3,4.2l2.5,4.6l0,0.2l1.5,5.1l0.5,5.5l0,283.4l-0.5,5.5l0,0.2l-1.5,5.2l-2.5,4.7l0,0.2l-3.3,4l-0.2,0l-4.2,3.3l-4.6,2.6l-5.2,1.7l-0.2,0l-5.6,0.5l-541.2,0l-5.5,-0.5l-5.2,-1.7l-0.2,0L265.3,818l-4,-3.3l-3.4,-4l-0.1,-0.2l-2.6,-4.7l-1.7,-5.2l0,-0.2L253,794.9l0,-283.4l0.5,-5.5l1.7,-5.1l0.2,-0.2l2.5,-4.6l3.4,-4.2l4,-3.3l0,-0.2l4.7,-2.6l0.2,0l5.2,-1.6l5.5,-0.6Z" class="g2_45" />
<path d="M280.9,484.4l0,-0.8Z" class="g2_45" />
</svg>