<?xml version="1.0" encoding="UTF-8" standalone="no"?>
<!DOCTYPE svg PUBLIC "-//W3C//DTD SVG 1.1//EN"
"http://www.w3.org/Graphics/SVG/1.1/DTD/svg11.dtd">
<svg viewBox="0 0 935 1210" version="1.1" xmlns="http://www.w3.org/2000/svg" xmlns:xlink="http://www.w3.org/1999/xlink">
<defs>
<style type="text/css"><![CDATA[
.g1_240{
fill: #FFFFFF;
}
.g2_240{
}
]]></style>
</defs>
<path d="M193.6,434.3l602.8,0l0,-299.2l-602.8,0l0,299.2Z" class="g1_240" />
<path d="M225,142.3l-5.5,0.5l0.1,0l-5.1,1.5l-4.8,2.5l0.2,0l-4,3.5l-3.3,4.1l0,-0.2l-2.6,4.6l-1.6,5.1l0,-0.2l-0.6,5.7l0,231.6l0.6,5.4l1.6,5.2l0,-0.2l2.6,4.6l3.3,4.2l4,3.3l-0.2,-0.2l4.8,2.6l5.1,1.6l-0.1,0l5.5,0.6l541.1,0l5.6,-0.6l5.3,-1.6l-0.2,0.2l4.6,-2.6l4,-3.3l3.5,-4.2l-0.2,0l2.4,-4.6l0,0.2l1.6,-5.2l0.6,-5.4l0,-231.6l-0.6,-5.7l0,0.2l-1.6,-5.1l-2.4,-4.6l0.2,0.2l-3.5,-4.1l-4,-3.5l-4.6,-2.5l0.2,0l-5.3,-1.5l-5.6,-0.5l-541.1,0l0,-0.8l541.1,0l5.6,0.6l0.1,0l5.3,1.5l0,0.1l4.6,2.6l0.2,0l4.1,3.5l3.4,4l2.4,4.6l0,0.2l1.7,5.1l0.5,5.7L794,401l-0.5,5.4l0,0.2l-1.7,5.2l-2.4,4.6l0,0.1l-3.4,4.3l-4.1,3.2l-0.2,0l-4.6,2.6l-5.3,1.7l-0.1,0l-5.6,0.5l-541.1,0l-5.5,-0.5l-5.2,-1.7l-0.2,0L209.4,424l-4.1,-3.2l0,-0.2L202,416.4l-2.5,-4.6l-0.2,0l-1.7,-5.2l0,-0.2L197.1,401l0,-231.6l0.5,-5.7l1.7,-5.1l0.2,-0.2l2.5,-4.6l3.3,-4l4.1,-3.5l0,-0.2l4.7,-2.5l0.2,0l5.2,-1.5l5.5,-0.6Z" class="g2_240" />
<path d="M225,142.3l0,-0.8Z" class="g2_240" />
</svg>