<?xml version="1.0" encoding="UTF-8" standalone="no"?>
<!DOCTYPE svg PUBLIC "-//W3C//DTD SVG 1.1//EN"
"http://www.w3.org/Graphics/SVG/1.1/DTD/svg11.dtd">
<svg viewBox="0 0 935 1210" version="1.1" xmlns="http://www.w3.org/2000/svg" xmlns:xlink="http://www.w3.org/1999/xlink">
<defs>
<clipPath id="c0_212"><path d="M438.4,637.7l0,-4.7l6.8,0l0,4.7Z" /></clipPath>
<clipPath id="c1_212"><path d="M444.3,633.9l0,-0.9l87.6,0l0,0.9Z" /></clipPath>
<clipPath id="c2_212"><path d="M531,637.7l0,-4.7l5.3,0l0,4.7Z" /></clipPath>
<clipPath id="c3_212"><path d="M550.8,794.5l0,-33.8l7.5,0l0,33.8Z" /></clipPath>
<clipPath id="c4_212"><path d="M420.8,794.7l0,-33.4l6.8,0l0,33.4Z" /></clipPath>
<clipPath id="c5_212"><path d="M420.8,798l0,-4.1l0.9,0l0,4.1Z" /></clipPath>
<clipPath id="c6_212"><path d="M557,797.6l0,-4.2l1.3,0l0,4.2Z" /></clipPath>
<clipPath id="c7_212"><path d="M420.8,794.7l0,-1.3l0.2,0l0,1.3Z" /></clipPath>
<clipPath id="c8_212"><path d="M558.1,794.7l0,-1.3l0.2,0l0,1.3Z" /></clipPath>
<style type="text/css"><![CDATA[
.g1_212{
fill: #FFFFFF;
}
.g2_212{
fill: none;
stroke: #000000;
stroke-width: 0.36666667;
stroke-linecap: round;
stroke-linejoin: round;
}
.g3_212{
}
.g4_212{
fill: #252525;
}
.g5_212{
fill: #D8D8D8;
}
.g6_212{
fill: #A5A5A5;
}
.g7_212{
fill: #999999;
}
.g8_212{
fill: #323232;
}
]]></style>
</defs>
<path d="M247.1,798l481.1,0l0,-523.2l-481.1,0l0,523.2Z" class="g1_212" />
<path d="M386.3,613.5l206.3,0l0,-130.7l-206.3,0l0,130.7Z" class="g1_212" />
<path d="M386.3,613.5l206.3,0l0,-130.7l-206.3,0l0,130.7Z" class="g2_212" />
<path d="M537.6,414.1l178.7,0l0,-137.6l-178.7,0l0,137.6Z" class="g1_212" />
<path d="M537.6,414.1l178.7,0l0,-137.6l-178.7,0l0,137.6Z" class="g2_212" />
<path d="M248.8,414.1l165,0l0,-137.6l-165,0l0,137.6Z" class="g1_212" />
<path d="M248.8,414.1l165,0l0,-137.6l-165,0l0,137.6Z" class="g2_212" />
<path fill-rule="evenodd" d="M434.6,763.9l0,-30.7l0.1,-0.9l0.4,-0.3l1.5,-0.4l104.1,0l0.9,0.2l0.9,0.3l0.4,0.6l0.2,1.3l0,31.1l-0.2,0.4l-0.5,0.2l-106.7,0l-0.6,-0.4l-0.4,-0.5l-0.1,-0.9Z" class="g1_212" />
<path d="M434,733.2l0,30.7l1.1,0l0,-30.7l-0.2,-0.3l-0.3,-0.2l-0.4,0.2l-0.2,0.3Z" class="g3_212" />
<path d="M436.6,731l-0.9,0l-0.8,0.4l-0.9,0.7l0,1.1l1.1,0l0.2,-0.5l0,-0.4l0.7,0l0.6,-0.2l0.3,-0.1l0.2,-0.4l-0.2,-0.4L436.6,731Z" class="g3_212" />
<path d="M540.7,731l-104.1,0l0,1.1l104.1,0l0.6,-0.5L540.7,731Z" class="g3_212" />
<path d="M543.6,734l-0.1,-1.3l-0.6,-1.1L541.8,731l-1.1,0l0,1.1l0.9,0.2l0.6,0.2l0.2,0.4l0.1,1.1l0.2,0.3l0.8,0l0.1,-0.3Z" class="g3_212" />
<path d="M543.6,764.4l0,-30.4l-1.1,0l0,30.4l0.2,0.4l0.4,0.2l0.4,-0.2l0.1,-0.4Z" class="g3_212" />
<path d="M541.6,766.4l0.9,0l0.6,-0.3l0.5,-0.8l0,-0.9l-1.1,0l0,0.6l-0.3,0.1l-0.6,0l-0.3,0.2l0,0.8l0.3,0.3Z" class="g3_212" />
<path d="M436.4,766.4l105.2,0l0,-1.3l-105.2,0l-0.4,0.2l0,0.8l0.4,0.3Z" class="g3_212" />
<path d="M434,763.9l0,1.1l0.7,0.9l1,0.3l0.7,0.2l0,-1.3L435.8,765l-0.3,0l-0.2,-0.2l-0.2,-0.9l-0.2,-0.4l-0.3,-0.2l-0.4,0.2l-0.2,0.4Z" class="g3_212" />
<path fill-rule="evenodd" d="M434.6,732.3l0.5,-0.5l0.9,-1.7l1.7,-2l1.8,-2.2l1.7,-2.2l1.8,-1.8l1.1,-1.5l0.5,-0.4l87.7,0l0.5,0.4l1.5,1.5l1.6,2l1.9,2.2l2,2.2l3.3,4.4l0,1.3l-0.2,-1.3l-0.4,-0.6l-0.9,-0.3l-0.9,-0.2l-104.1,0l-1.5,0.4l-0.4,0.3l-0.1,0.9l0,-0.9Z" class="g1_212" />
<path d="M444.6,719.3l-0.9,0.7l-1.3,1.5l-1.6,1.8l-1.7,2.2l-2,2.4l-1.4,1.9l-1.1,1.6l-0.6,0.9l1.1,0l0.4,-0.2l1.1,-1.6l1.4,-2l2.1,-2.2l1.6,-2.2l1.7,-1.9l1.1,-1.4l0.1,-0.2l0.4,-0.2l0.2,-0.4L445,719.7l-0.4,-0.4Z" class="g3_212" />
<path d="M532.3,719.3l-87.7,0l0,1.3l87.7,0l0.3,-0.2l0.2,-0.4l-0.2,-0.3l-0.3,-0.4Z" class="g3_212" />
<path d="M543.6,732.7l-0.5,-1.1l-1.3,-1.5l-1.5,-2.2l-2,-2.2l-1.8,-2.2l-1.8,-2L533.2,720l-0.9,-0.7l0,1.3l0.3,0.2l1.1,1.4l1.9,2.1l1.8,2.2l2,2.2l1.5,2.2l1.3,1.4l0.3,0.4l0.2,0.4l0.4,0.1l0.4,-0.1l0.1,-0.4Z" class="g3_212" />
<path d="M542.5,734l1.1,0l0,-1.3l-1.1,0l0,1.3l1.1,0l-1.1,0l0.2,0.3l0.8,0l0.1,-0.3Z" class="g3_212" />
<path d="M540.7,732.1l0.9,0.2l0.6,0.2l0.2,0.4l0.1,1.1l1.1,0l-0.1,-1.3l-0.6,-1.1L541.8,731l-1.1,0l-0.4,0.2l-0.1,0.4l0.1,0.4l0.4,0.1Z" class="g3_212" />
<path d="M436.6,732.1l104.1,0l0,-1.1l-104.1,0l-0.4,0.2l0,0.8l0.4,0.1Z" class="g3_212" />
<path d="M434,733.2l1.1,0l0.2,-0.5l0,-0.4l0.7,0l0.6,-0.2l0,-1.1l-0.9,0l-0.8,0.4l-0.9,0.7l0,1.1l1.1,0l-1.1,0l0.2,0.4l0.4,0.2l0.3,-0.2l0.2,-0.4Z" class="g3_212" />
<path d="M434,732.3l0,0.9l1.1,0l0,-0.9l-0.5,-0.5l-0.6,0.5Z" class="g3_212" />
<path fill-rule="evenodd" d="M436.2,751.4l0,-17.6l0.4,-0.4l0.5,-0.3l102.9,0l0.7,0.3l0.6,0.6l0,18.5l-0.2,0.4l-0.4,0.1l-103.6,0l-0.5,-0.1l-0.4,-0.6l0,-0.9Z" class="g1_212" />
<path d="M435.3,734.3l0,17.1l1.6,0l0,-17.1l-0.1,-0.5l-0.6,-0.2l-0.5,0.2l-0.4,0.5Z" class="g3_212" />
<path d="M438,732.1l-0.9,0.2l-0.9,0.4l-0.5,0.7l-0.4,0.9l1.6,0l0,-0.3l0.4,0l0.7,-0.2l0.6,-0.2l0.2,-0.5l-0.2,-0.8L438,732.1Z" class="g3_212" />
<path d="M539.1,732.1l-101.1,0l0,1.7l101.1,0l0.5,-0.2l0.2,-0.5l-0.2,-0.8l-0.5,-0.2Z" class="g3_212" />
<path d="M542.2,735.1L542,733.8l-0.7,-1.1l-1.1,-0.4l-1.1,-0.2l0,1.7L540,734l0.3,0l0,0.2l0.2,0.9l0.2,0.5l0.6,0.2l0.5,-0.2l0.4,-0.5Z" class="g3_212" />
<path d="M542.2,751.9l0,-16.8l-1.7,0l0,16.8l0.2,0.6l0.6,0.2l0.5,-0.2l0.4,-0.6Z" class="g3_212" />
<path d="M540,754l0.7,0l0.9,-0.6l0.6,-0.7l0,-0.8l-1.7,0l0,0.4l0.2,0l-0.7,0l-0.6,0.2l-0.3,0.5l0.3,0.6L540,754Z" class="g3_212" />
<path d="M437.9,754L540,754l0,-1.7l-102.1,0l-0.8,0.2l-0.2,0.5l0.2,0.6l0.8,0.4Z" class="g3_212" />
<path d="M435.3,751.4l0.2,1.3l0.7,0.7l0.7,0.6l1,0l0,-1.7l-0.8,0l0,-0.2l-0.2,-0.7l-0.1,-0.6l-0.6,-0.1l-0.5,0.1l-0.4,0.6Z" class="g3_212" />
<path d="M524,733.1l-0.2,-0.8l-0.5,-0.2l-0.7,0.2l-0.2,0.8Z" class="g3_212" />
<path d="M523.3,753l0.7,0l0,-19.9l-1.6,0l0,19.9l0.9,0Z" class="g3_212" />
<path d="M522.4,753l0.2,0.6l0.7,0.4l0.5,-0.4L524,753Z" class="g3_212" />
<path d="M492.9,733.1l-0.4,-0.8l-0.6,-0.2l-0.5,0.2l-0.2,0.8Z" class="g3_212" />
<path d="M491.9,753l1,0l0,-19.9l-1.7,0l0,19.9l0.7,0Z" class="g3_212" />
<path d="M491.2,753l0.2,0.6l0.5,0.4l0.6,-0.4l0.4,-0.6Z" class="g3_212" />
<path d="M461.3,733.1l-0.2,-0.8l-0.7,-0.2l-0.5,0.2l-0.2,0.8Z" class="g3_212" />
<path d="M460.4,753l0.9,0l0,-19.9l-1.6,0l0,19.9l0.7,0Z" class="g3_212" />
<path d="M459.7,753l0.2,0.6l0.5,0.4l0.7,-0.4l0.2,-0.6Z" class="g3_212" />
<path fill-rule="evenodd" d="M447.8,743.3l1.2,-0.2l1.1,-0.9l0.8,-1.1l0.2,-1.3l-0.2,-1.4l-0.8,-1.1L449,736.5l-1.2,-0.1l-4.6,0l-0.8,0.1l-1.1,0.8l-0.7,1.1l-0.4,1.4l0.2,0.8l0.2,0.5l0.4,0.8l0.9,0.9l0.5,0.3l0.8,0l0.5,0.2l4.1,0Z" class="g3_212" />
<path d="M436.2,745.5l-0.4,0.2l-0.1,0.4l0.1,0.3l0.4,0.2Z" class="g3_212" />
<path d="M482.2,746.1l0.6,-0.6l-46.6,0l0,1.1l46.6,0l0.5,-0.5l-0.5,0.5l0.3,-0.2l0.2,-0.3l-0.2,-0.4l-0.3,-0.2Z" class="g3_212" />
<path d="M482.8,743.5l-0.6,0.6l0,2l1.1,0l0,-2l-0.5,0.7l0.5,-0.7l-0.5,-0.6l-0.6,0.6Z" class="g3_212" />
<path d="M490.3,744.1l-0.6,-0.6l-6.9,0l0,1.3l6.9,0l-0.5,-0.7l0.5,0.7l0.4,-0.4l0.2,-0.3l-0.6,-0.6Z" class="g3_212" />
<path d="M489.7,745.5l0.6,0.6l0,-2l-1.1,0l0,2l0.5,0.5l-0.5,-0.5l0.2,0.3l0.7,0l0.2,-0.3Z" class="g3_212" />
<path d="M541.3,746.1l0,-0.6l-51.6,0l0,1.1l51.6,0l0,-0.5Z" class="g3_212" />
<path d="M541.3,746.6l0.3,-0.2l0.2,-0.3l-0.2,-0.4l-0.3,-0.2Z" class="g3_212" />
<path d="M483.1,747.9l6.3,0l0,-3.3l-6.3,0l0,3.3Z" class="g4_212" />
<path fill-rule="evenodd" d="M489.9,743.1l-8.6,0l0,1.1l-10.3,0l0,-1.2l-8.6,0l0,-1.9l8.6,0l0,-1.4l10.3,0l0,1.2l8.6,0l0,2.2Z" class="g3_212" />
<path d="M530.3,745.5l4.4,0l0,-7.3l-4.4,0l0,7.3Z" class="g3_212" />
<path d="M436,763.9l104.9,0l0,-7.4l-104.9,0l0,7.4Z" class="g5_212" />
<path fill-rule="evenodd" d="M439.1,709.8l0,-73.5l0.6,-1.1l0.5,-0.8l1.5,-1.1l0.9,-0.2l0.8,-0.1l88.5,0l0.9,0.1l0.8,0.2l0.7,0.6l0.4,0.3L535,635l0.4,0.9l0,73.3L535,710l-0.3,0.9l-0.4,0.5l-0.6,0.6l-0.7,0.5l-0.5,0.2l-0.8,0.2l-89.4,0l-1.5,-0.4L439.7,712l-0.6,-0.9l0,-1.3Z" class="g1_212" />
<path d="M438.4,637.5l0,72.3l1.3,0l0,-72.3l-0.4,-0.3l-0.2,-0.4l-0.7,0.7Z" class="g3_212" />
<g clip-path="url(#c0_212)">
<path d="M444.3,632.2l-1.9,0.4l-1.8,0.7l-0.7,0.8l-0.8,0.9l-0.3,1.1l-0.4,1.4l1.3,0l0,-1.1l0.4,-0.9l0.5,-0.7l0.6,-0.6l0.7,-0.3l0.9,-0.4l0.6,-0.2l0.9,0.2l0.5,-0.5l-0.2,-0.4l-0.3,-0.4Z" class="g3_212" />
</g>
<g clip-path="url(#c1_212)">
<path d="M531,632.2l-86.7,0l0,1.3l86.7,0l0.4,-0.4l0.3,-0.1L531,632.2Z" class="g3_212" />
</g>
<g clip-path="url(#c2_212)">
<path d="M535.9,636.8l-0.1,-0.9l-0.2,-1.1l-0.4,-0.7l-0.5,-0.6l-1,-0.5L533,632.6l-1.1,-0.2L531,632.2l0,1.3l0.9,-0.2l0.9,0.2l1.1,0.7l0.4,0.4l0.4,0.6l0.1,0.7l0,0.9l0.2,0.4l0.4,0.2l0.4,-0.2l0.1,-0.4Z" class="g3_212" />
</g>
<path d="M535.9,708.5l0,-71.7l-1.1,0l0,71.7l0.2,0.4l0.8,0l0.1,-0.4Z" class="g3_212" />
<path d="M531.7,713.4l0.9,-0.3l0.6,-0.2l0.9,-0.6l0.6,-0.5l0.5,-0.7l0.4,-1l0.2,-0.7l0.1,-0.9l-1.1,0l0,0.7l-0.1,0.8l-0.8,1.1l-0.5,0.5l-0.6,0.4l-0.5,0.2l-0.6,0l-0.3,0.3l0,0.6l0.3,0.3Z" class="g3_212" />
<path d="M442.3,713.4l89.4,0l0,-1.2l-89.4,0l-0.4,0.3l0,0.6l0.4,0.3Z" class="g3_212" />
<path d="M438.4,709.8l0.4,1.4l0.5,1.1l1.3,0.8l1.7,0.3l0,-1.2l-1.3,0l-0.9,-0.6l-0.4,-0.7l0,-1.1l-0.6,-0.6l-0.3,0.2l-0.4,0.4Z" class="g3_212" />
<path fill-rule="evenodd" d="M441.3,707.9l0,-68.9l0.2,-1.1l0.4,-0.9l0.5,-0.9l0.8,-0.6l0.7,-0.3l0.9,-0.4l0.8,-0.2l84.5,0l0.5,0.2l0.8,0.4l0.5,0.3l0.6,0.6l0.3,0.5l0.4,1.9l0,68.2l-0.2,0.7l-0.2,0.7l-0.3,0.8l-0.6,0.7l-0.9,0.9l-0.7,0.2l-0.6,0.2l-85.2,0L443,710.5L442.1,710l-0.6,-0.8l-0.2,-1.3Z" class="g6_212" />
<path d="M440.8,639l0,68.9l1.1,0l0,-68.9l-0.6,-0.5l-0.5,0.5Z" class="g3_212" />
<path d="M446.3,634.1l-0.7,0.1l-1.9,0.4l-0.7,0.6l-0.9,0.7l-0.8,0.9l-0.3,0.9l-0.2,1.3l1.1,0l0,-0.9l0.4,-0.9l0.5,-0.8l0.6,-0.3l0.7,-0.6l0.9,-0.2l0.6,-0.1l0.7,0l0.4,-0.2l0.1,-0.4l-0.1,-0.4l-0.4,-0.1Z" class="g3_212" />
<path d="M529.2,634.1l-82.9,0l0,1.1l82.9,0l0.3,-0.2l0.2,-0.4l-0.2,-0.4l-0.3,-0.1Z" class="g3_212" />
<path d="M533.7,638.5l-0.1,-1l-0.4,-1.1l-0.4,-0.5l-0.5,-0.7l-0.6,-0.6l-0.9,-0.2l-0.7,-0.2l-0.9,-0.1l0,1.1l0.9,0l1.1,0.3l0.5,0.4l0.2,0.4l0.4,0.5l0.3,0.7l0,1l0.2,0.3l0.8,0l0.1,-0.3Z" class="g3_212" />
<path d="M533.7,706.7l0,-68.2l-1.1,0l0,68.2l0.2,0.3l0.8,0l0.1,-0.3Z" class="g3_212" />
<path d="M529.7,711.4l0.7,-0.2l0.8,-0.3l0.7,-0.6l0.4,-0.3l0.5,-1l0.8,-1.4l0.1,-0.9l-1.1,0l0,0.5l-0.7,1.5l-0.2,0.5l-1.1,0.8l-0.5,0.1l-0.4,0l-0.4,0.4l-0.1,0.4l0.1,0.3l0.4,0.2Z" class="g3_212" />
<path d="M444.5,711.4l85.2,0l0,-1.3l-85.2,0l-0.4,0.4l0,0.7l0.4,0.2Z" class="g3_212" />
<path d="M440.8,707.9l0.2,1.3l0.7,1.1l1.1,0.8l1.7,0.3l0,-1.3l-1.3,0l-0.8,-0.5L441.9,709l0,-1.1l-0.2,-0.3l-0.4,-0.4l-0.3,0.4l-0.2,0.3Z" class="g3_212" />
<path fill-rule="evenodd" d="M456.6,696.2l0,-47.8l0.3,-1.3l0.8,-0.9l1.2,-0.6l58,0l0.7,0.6l0.7,0.7l0.2,0.9l0,47.5l-0.2,1.1l-0.7,0.7l-0.5,0.8l-1,0.3l-57.5,0L457.7,698l-0.6,-0.3l-0.4,-0.8l-0.1,-0.7Z" class="g3_212" />
<path fill-rule="evenodd" d="M513.9,714.9l0.6,-2l-52.8,0l0.5,2l51.7,0Z" class="g7_212" />
<path d="M514.5,713.4l-0.6,-0.7l-0.5,2l0.9,0.4l0.6,-2.2l-0.4,-0.7l0.4,0.7l0,-0.4l-0.4,-0.2l-0.2,0l-0.4,0.4Z" class="g3_212" />
<path d="M462.1,712.7l-0.4,0.7l52.8,0l0,-1.2l-52.8,0l-0.6,0.7l0.6,-0.7l-0.4,0.3l-0.2,0.4l0.6,0.5Z" class="g3_212" />
<path d="M462.2,714.4l0.4,0.3l-0.5,-2l-1,0.2l0.6,2.2l0.5,0.4l-0.5,-0.4l0.7,0.4l0.2,-0.4l0,-0.4Z" class="g3_212" />
<path d="M513.4,714.7l0.5,-0.3l-51.7,0l0,1.1l51.7,0l0.4,-0.4l-0.4,0.4l0.4,-0.2l0.2,-0.4l-0.2,-0.4l-0.4,-0.1Z" class="g3_212" />
<path d="M459.3,727.4l56.8,0l0,-5.2l-56.8,0l0,5.2Z" class="g7_212" />
<path d="M516.1,723l-0.5,-0.8l0,5.2l1.1,0l0,-5.2l-0.6,-0.5l0.6,0.5l-0.2,-0.3l-0.4,-0.2l-0.3,0.2l-0.2,0.3Z" class="g3_212" />
<path d="M459.9,722.2l-0.6,0.8l56.8,0l0,-1.3l-56.8,0l-0.5,0.5l0.5,-0.5l-0.4,0.2l0,0.7l0.4,0.4Z" class="g3_212" />
<path d="M459.3,726.8l0.6,0.6l0,-5.2l-1.1,0l0,5.2l0.5,0.5l-0.5,-0.5l0.1,0.3l0.4,0.2l0.4,-0.2l0.2,-0.3Z" class="g3_212" />
<path d="M515.6,727.4l0.5,-0.6l-56.8,0l0,1.1l56.8,0l0.6,-0.5l-0.6,0.5l0.4,-0.2l0.2,-0.3L516.5,727l-0.4,-0.2Z" class="g3_212" />
<path fill-rule="evenodd" d="M461.7,717.1l52.2,0l2.2,5.1l-56.8,0l2.4,-5.1Z" class="g8_212" />
<path d="M514.3,716.7l-0.4,-0.3l-52.2,0l0,1.3l52.2,0l-0.5,-0.4l0.5,0.4l0.4,-0.2l0.2,-0.4l-0.2,-0.4l-0.4,-0.3Z" class="g3_212" />
<path d="M516.1,723l0.6,-0.9l-2.4,-5.4l-0.9,0.6l2.4,5.3l0.3,-0.9l-0.3,0.9l0.2,0.2l0.3,0l0.4,-0.4l0,-0.3Z" class="g3_212" />
<path d="M458.9,722.1l0.4,0.9l56.8,0l0,-1.3l-56.8,0l0.6,0.9l-0.6,-0.9l-0.4,0.2l0,0.7l0.4,0.4Z" class="g3_212" />
<path d="M461.7,716.4l-0.6,0.3l-2.2,5.4l1,0.5l2.2,-5.3l-0.4,0.4l0.4,-0.4l0,-0.4l-0.2,-0.3l-0.4,0l-0.4,0.1Z" class="g3_212" />
<path fill-rule="evenodd" d="M508.1,714.9l-0.2,0.6l-0.4,0.5l-0.9,0.9l-1.5,1.1l-0.9,0.4l-1.1,0.5l-1.3,0.4l-2.9,0.7l-1.8,0.4l-1.9,0.2l-1.8,0.4l-9.3,0L482,720.6l-1.8,-0.2l-3.3,-0.7l-2.6,-0.8l-1.1,-0.5L472.3,718l-0.9,-0.5l-0.7,-0.6L469.8,716l-0.2,-0.5l-0.4,-0.6l38.9,0Z" class="g8_212" />
<path d="M488.8,721.7l2.4,0l2.2,-0.4l3.7,-0.3l2,-0.4l1.5,-0.4l1.2,-0.3l1.3,-0.6l1.3,-0.4l0.9,-0.5l0.9,-0.4l1.9,-1.8l0.2,-0.6l0.3,-0.5l-0.9,-0.4l-0.4,0.4l-0.1,0.7l-0.4,0.2l-1.1,1.1l-0.7,0.4l-1,0.5l-1.1,0.4l-1.2,0.5l-3,0.8l-1.6,0.3l-3.7,0.4l-4.6,0l-0.3,0.2l-0.2,0.4l0.2,0.3l0.3,0.4Z" class="g3_212" />
<path d="M469.2,714.4l-0.4,0.7l0.2,0.5l0.8,1.1l0.7,0.6l0.7,0.7l1.9,0.9l1.1,0.4l1.2,0.6l3,0.7l1.8,0.4l1.8,0.1l2.1,0.2l2.2,0.4l2.5,0l0,-1.3l-4.7,0L482,720.2L480.2,720l-1.6,-0.3l-1.5,-0.4l-1.3,-0.4l-1.3,-0.5L473.6,718l-1.1,-0.5l-0.9,-0.4l-1.3,-1.3l-0.5,-1.1l-0.6,0.8l0.6,-0.8l-0.2,-0.2l-0.4,0l-0.4,0.2l0,0.4Z" class="g3_212" />
<path d="M508.6,715.1l-0.5,-0.7l-38.9,0l0,1.1l38.9,0l-0.4,-0.8l0.4,0.8l0.3,-0.2l0.2,-0.4l-0.2,-0.4l-0.3,-0.1Z" class="g3_212" />
<path fill-rule="evenodd" d="M558.1,793.9l-6.8,-32.4l-124.6,0l-5.9,32.4l0,3.5l137,0l0.3,-3.5Z" class="g1_212" />
<g clip-path="url(#c3_212)">
<path d="M551.3,762l-0.5,-0.5l6.6,32.6l1.3,-0.4l-6.8,-32.4l-0.6,-0.6l0.6,0.6l-0.2,-0.4l-0.5,-0.2l-0.4,0.8Z" class="g3_212" />
</g>
<path d="M427.2,761.5l-0.5,0.5l124.6,0l0,-1.3l-124.6,0l-0.8,0.6l0.8,-0.6l-0.6,0.2l-0.2,0.6l0.2,0.3l0.6,0.2Z" class="g3_212" />
<g clip-path="url(#c4_212)">
<path d="M421.4,793.9l0,0.2l5.8,-32.6l-1.3,-0.2l-5.8,32.4l0,0.2l0,-0.2l0.2,0.6l0.3,0.2l0.4,0l0.4,-0.4Z" class="g3_212" />
</g>
<g clip-path="url(#c5_212)">
<path d="M420.8,796.7l0.6,0.7l0,-3.5l-1.3,0l0,3.5l0.7,0.6l-0.7,-0.6l0.2,0.4l0.5,0.2l0.4,-0.2l0.2,-0.4Z" class="g3_212" />
</g>
<path d="M557,797.4l0.8,-0.7l-137,0l0,1.3l137,0l0.5,-0.6l-0.5,0.6l0.5,-0.2l0,-0.9l-0.5,-0.2Z" class="g3_212" />
<g clip-path="url(#c6_212)">
<path d="M557.4,794.1l0,-0.2l-0.4,3.5l1.3,0l0.4,-3.5l0,-0.2l0,0.2l-0.6,-0.5l-0.3,0.2l-0.4,0.3Z" class="g3_212" />
</g>
<g clip-path="url(#c7_212)">
<path d="M420.8,793.4l-0.4,0.2l-0.1,0.3l0.1,0.4l0.4,0.2Z" class="g3_212" />
</g>
<path d="M558.1,793.9l0,-0.5l-137.3,0l0,1.1l137.3,0l0,-0.6Z" class="g3_212" />
<g clip-path="url(#c8_212)">
<path d="M558.1,794.5l0.2,-0.2l0.2,-0.4l-0.2,-0.3l-0.2,-0.2Z" class="g3_212" />
</g>
<path fill-rule="evenodd" d="M526.6,765.3l0.4,4.2l18.8,0l-0.9,-4.2l-18.3,0Z" class="g1_212" />
<path d="M527,769l0.3,0.5L527,765.3l-1,0l0.4,4.2l0.6,0.4l-0.6,-0.4l0.2,0.4l0.7,0l0,-0.4Z" class="g3_212" />
<path d="M545.5,769.5l0.3,-0.5L527,769l0,0.9l18.8,0l0.6,-0.4l-0.6,0.4l0.4,0l0.2,-0.4l-0.2,-0.3L545.8,769Z" class="g3_212" />
<path d="M544.9,765.7l-0.3,-0.4l0.9,4.2l0.9,0l-0.9,-4.2l-0.6,-0.5l0.6,0.5L545.3,765l-0.4,-0.2l-0.2,0.2l-0.1,0.3Z" class="g3_212" />
<path d="M527,765.3l-0.4,0.4l18.3,0l0,-0.9l-18.3,0l-0.6,0.5l0.6,-0.5l-0.4,0.2l-0.2,0.3l0.2,0.4l0.4,0Z" class="g3_212" />
<path fill-rule="evenodd" d="M527.9,773.6l2.2,15.9l19,0l-2.5,-15.9l-18.7,0Z" class="g1_212" />
<path d="M530.1,789.2l0.5,0.3l-2.2,-15.9l-0.9,0l2.2,15.9l0.4,0.6l-0.4,-0.6l0,0.4l0.4,0.2l0.3,-0.2l0.2,-0.4Z" class="g3_212" />
<path d="M548.8,789.5l0.3,-0.3l-19,0l0,0.9l19,0l0.6,-0.6l-0.6,0.6l0.4,-0.2l0.2,-0.4l-0.2,-0.3l-0.4,0Z" class="g3_212" />
<path d="M546.6,773.9L546,773.6l2.8,15.9l0.9,0l-2.8,-15.9L546.6,773l0.3,0.6l0,-0.4L546.6,773l-0.4,0.2l-0.2,0.4Z" class="g3_212" />
<path d="M528.4,773.6l-0.5,0.3l18.7,0l0,-0.9l-18.7,0l-0.4,0.6l0.4,-0.6l-0.2,0.2l-0.2,0.4l0.4,0.3Z" class="g3_212" />
<path fill-rule="evenodd" d="M523.7,773.6l2.3,15.9l-6.9,0l-0.6,-3.3l-5.8,0l0.1,3.3l-59.7,0l0.2,-3.3l-6.5,0l-0.5,3.3l-6.4,0l2,-15.9l81.8,0Z" class="g1_212" />
<path d="M526,790.1l0.4,-0.6l-2.2,-15.9l-0.9,0l2.2,15.9l0.5,-0.3l-0.5,0.3l0.2,0.4l0.3,0.2l0.4,-0.2l0,-0.4Z" class="g3_212" />
<path d="M518.5,789.5l0.6,0.6l6.9,0l0,-0.9l-6.9,0l0.3,0.3l-0.3,-0.3l-0.4,0l-0.2,0.3l0.2,0.4l0.4,0.2Z" class="g3_212" />
<path d="M518.5,786.6l-0.3,-0.4l0.3,3.3l0.9,0l-0.3,-3.3l-0.6,-0.5l0.6,0.5l-0.2,-0.3l-0.4,-0.2l-0.2,0.2l-0.1,0.3Z" class="g3_212" />
<path d="M513,786.2l-0.3,0.4l5.8,0l0,-0.9l-5.8,0l-0.6,0.5l0.6,-0.5l-0.4,0.2l-0.2,0.3l0.2,0.4l0.4,0Z" class="g3_212" />
<path d="M512.8,790.1l0.6,-0.6L513,786.2l-0.9,0l0.2,3.3l0.5,-0.3l-0.5,0.3l0.2,0.4l0.3,0.2l0.4,-0.2l0.2,-0.4Z" class="g3_212" />
<path d="M452.7,789.5l0.4,0.6l59.7,0l0,-0.9l-59.7,0l0.5,0.3l-0.5,-0.3l-0.4,0l0,0.7l0.4,0.2Z" class="g3_212" />
<path d="M453.3,786.6l-0.4,-0.4l-0.2,3.3l0.9,0l0.2,-3.3l-0.5,-0.5l0.5,0.5l-0.2,-0.3l-0.3,-0.2l-0.2,0.2l-0.2,0.3Z" class="g3_212" />
<path d="M447.4,786.2l-0.6,0.4l6.5,0l0,-0.9l-6.5,0l-0.3,0.5l0.3,-0.5l-0.3,0.2l0,0.7l0.3,0Z" class="g3_212" />
<path d="M446.3,790.1l0.5,-0.6l0.6,-3.3l-0.9,0l-0.6,3.3l0.4,-0.3l-0.4,0.3l0,0.4l0.4,0.2l0.4,-0.2l0.1,-0.4Z" class="g3_212" />
<path d="M439.3,789.5l0.6,0.6l6.4,0l0,-0.9l-6.4,0l0.3,0.3l-0.3,-0.3l-0.4,0l-0.2,0.3l0.2,0.4l0.4,0.2Z" class="g3_212" />
<path d="M441.9,773.2l-0.4,0.4l-2.2,15.9l0.9,0l2.2,-15.9l-0.5,0.5l0.5,-0.5l-0.1,-0.4l-0.8,0l0,0.4Z" class="g3_212" />
<path d="M524.2,773.6l-0.5,-0.4l-81.8,0l0,0.9l81.8,0l-0.4,-0.5l0.4,0.5l0.3,-0.2l0.2,-0.3L524,773.2l-0.3,0Z" class="g3_212" />
<path fill-rule="evenodd" d="M438,773.6l-2.2,15.9l-8.9,0l2.7,-15.9l8.4,0Z" class="g1_212" />
<path d="M435.8,790.1l0.4,-0.6l2.4,-15.9l-0.9,0l-2.4,15.9l0.5,-0.3l-0.5,0.3l0.2,0.4l0.3,0.2l0.4,-0.2l0,-0.4Z" class="g3_212" />
<path d="M426.5,789.5l0.4,0.6l8.9,0l0,-0.9l-8.9,0l0.5,0.3l-0.5,-0.3l-0.2,0l-0.2,0.3l0.2,0.4l0.2,0.2Z" class="g3_212" />
<path d="M429.6,773.2l-0.5,0.4l-2.6,15.9l0.9,0L430,773.6l-0.4,0.5l0.4,-0.5l0,-0.4l-0.8,0l-0.1,0.4Z" class="g3_212" />
<path d="M438.6,773.6L438,773.2l-8.4,0l0,0.9l8.4,0l-0.3,-0.5l0.3,0.5l0.4,-0.2l0.2,-0.3l-0.2,-0.4l-0.4,0Z" class="g3_212" />
<path fill-rule="evenodd" d="M436.8,765.3l-0.8,4.2l-5.8,0l0.9,-4.2l5.7,0Z" class="g1_212" />
<path d="M436,769.9l0.4,-0.4l0.7,-4.2l-0.9,0l-0.7,4.2L436,769l-0.5,0.5l0.2,0.4l0.5,0l0.2,-0.4Z" class="g3_212" />
<path d="M429.8,769.5l0.4,0.4l5.8,0l0,-0.9l-5.8,0l0.5,0.5L430.2,769l-0.4,0.2l0,0.7l0.4,0Z" class="g3_212" />
<path d="M431.1,764.8l-0.4,0.5l-0.9,4.2l0.9,0l0.9,-4.2l-0.5,0.4l0.5,-0.4L431.4,765l-0.3,-0.2l-0.4,0.2l0,0.3Z" class="g3_212" />
<path d="M437.1,765.3l-0.3,-0.5l-5.7,0l0,0.9l5.7,0l-0.6,-0.4l0.6,0.4l0.3,0l0,-0.7l-0.3,-0.2Z" class="g3_212" />
<path d="M429.1,771.2l-0.4,0.2l-0.2,0.3l0.2,0.4l0.4,0.2Z" class="g3_212" />
<path d="M548,771.7l0,-0.5l-118.9,0l0,1.1l118.9,0l0,-0.6Z" class="g3_212" />
<path d="M548,772.3l0.4,-0.2l0,-0.7L548,771.2Z" class="g3_212" />
<path d="M263.1,377l110,0l0,-82.5l-110,0l0,82.5Z" class="g1_212" />
<path d="M263.1,377l110,0l0,-82.5l-110,0l0,82.5Z" class="g2_212" />
<path fill-rule="evenodd" d="M331,366.2l0,-37.4c9.7,-5.1,21.2,-5.1,30.9,0l0,37.4c-9.7,5.1,-21.2,5.1,-30.9,0Z" class="g1_212" />
<path d="M331,366.2l0,-37.4c9.7,-5.1,21.2,-5.1,30.9,0l0,37.4c-9.7,5.1,-21.2,5.1,-30.9,0Z" class="g2_212" />
<path d="M331,328.8c9.7,5.1,21.2,5.1,30.9,0" class="g2_212" />
<path d="M318.1,377l94.1,72.8L395.5,421.6l94.1,72.8l96,-59.4l-31,5.1l96.1,-59.4" class="g2_212" />
<path d="M482.6,633l10.8,-31.2l-14.7,6.4l10.9,-31.3" class="g2_212" />
<path d="M595.7,380.7l110,0l0,-89.3l-110,0l0,89.3Z" class="g1_212" />
<path d="M705.7,380.7l-110,0l0,-89.3l110,0l0,89.3Z" class="g2_212" />
<path fill-rule="evenodd" d="M633.1,369.1l0,-35.7c-9.3,-5,-20.3,-5,-29.7,0l0,35.7c9.4,5,20.4,5,29.7,0Z" class="g1_212" />
<path d="M633.1,369.1l0,-35.7c-9.3,-5,-20.3,-5,-29.7,0l0,35.7c9.4,5,20.4,5,29.7,0Z" class="g2_212" />
<path d="M633.1,333.4c-9.3,4.9,-20.3,4.9,-29.7,0" class="g2_212" />
<path d="M434.6,576.9l110,0l0,-82.5l-110,0l0,82.5Z" class="g1_212" />
<path d="M434.6,576.9l110,0l0,-82.5l-110,0l0,82.5Z" class="g2_212" />
<path fill-rule="evenodd" d="M503.3,568.4l0,-37.4c9.7,-5.1,21.3,-5.1,31,0l0,37.4c-9.7,5.2,-21.3,5.2,-31,0Z" class="g1_212" />
<path d="M503.3,568.4l0,-37.4c9.7,-5.1,21.3,-5.1,31,0l0,37.4c-9.7,5.2,-21.3,5.2,-31,0Z" class="g2_212" />
<path d="M503.3,531c9.7,5.2,21.3,5.2,31,0" class="g2_212" />
<path fill-rule="evenodd" d="M448.3,569l0,-38c9.7,-5.1,21.3,-5.1,31,0l0,38c-9.7,5.1,-21.3,5.1,-31,0Z" class="g1_212" />
<path d="M448.3,569l0,-38c9.7,-5.1,21.3,-5.1,31,0l0,38c-9.7,5.1,-21.3,5.1,-31,0Z" class="g2_212" />
<path d="M448.3,531c9.7,5.2,21.3,5.2,31,0" class="g2_212" />
<path d="M386.3,689.1l55,0" class="g2_212" />
<path d="M379.5,535.6l55.1,0" class="g2_212" />
<path d="M544.6,535.6l55,0" class="g2_212" />
<path d="M359,330.3L441.3,304" class="g2_212" />
<path d="M509.9,312.8L603,353.7" class="g2_212" />
</svg>