<?xml version="1.0" encoding="UTF-8" standalone="no"?>
<!DOCTYPE svg PUBLIC "-//W3C//DTD SVG 1.1//EN"
"http://www.w3.org/Graphics/SVG/1.1/DTD/svg11.dtd">
<svg viewBox="0 0 935 1210" version="1.1" xmlns="http://www.w3.org/2000/svg" xmlns:xlink="http://www.w3.org/1999/xlink">
<defs>
<clipPath id="c0_237"><path d="M247.5,316.8l0,-181.7l605,0l0,181.7Z" /></clipPath>
<clipPath id="c1_237"><path d="M247.5,919.4l0,-181.7l605,0l0,181.7Z" /></clipPath>
<style type="text/css"><![CDATA[
.g1_237{
}
]]></style>
</defs>
<g clip-path="url(#c0_237)">
<path d="M279.4,144.6l-5.5,0.6l0.2,0l-5.1,1.6l-4.8,2.6l0.2,0l-4.1,3.3l0,-0.2l-3.3,4.2l-2.5,4.6l-1.7,5.2l0,-0.2l-0.5,5.5l0,130.7l0.5,5.5l1.7,5.1l0,-0.2l2.5,4.8l3.3,4l4.1,3.4l-0.2,-0.2l4.8,2.5l5.1,1.7l-0.2,0l5.5,0.5l541.2,0l5.5,-0.5l5.3,-1.7l-0.2,0.2l4.6,-2.5l4,-3.4l3.5,-4l-0.1,0l2.3,-4.8l0,0.2l1.7,-5.1l0.5,-5.5l0,-130.7l-0.5,-5.5l0,0.2l-1.7,-5.2l-2.3,-4.6l0.1,0.2l-3.5,-4.2l-4,-3.3l-4.6,-2.6l0.2,0l-5.3,-1.6l-5.5,-0.6l-541.2,0l0,-0.7l541.2,0l5.5,0.6l0.2,0l5.3,1.6l0,0.2l4.6,2.6l0.2,0l4,3.3l3.5,4.2l2.4,4.6l0,0.1l1.6,5.2l0.6,5.5l0,130.7l-0.6,5.5l0,0.2l-1.6,5.1l-2.4,4.8l0,0.2l-3.5,4l-4,3.3l-0.2,0l-4.6,2.6l-5.3,1.6l-0.2,0l-5.5,0.6l-541.2,0l-5.5,-0.6l-5.1,-1.6l-0.2,0l-4.8,-2.6l-4,-3.3l-3.3,-4l-0.2,-0.2l-2.6,-4.8l-1.6,-5.1l0,-0.2l-0.6,-5.5l0,-130.7l0.6,-5.5l1.6,-5.2l0.2,-0.1l2.6,-4.6l3.3,-4.2l4,-3.3l0,-0.2l4.8,-2.6l0.2,0l5.1,-1.6l5.5,-0.6Z" class="g1_237" />
</g>
<path d="M279.4,144.6l0,-0.7Z" class="g1_237" />
<g clip-path="url(#c1_237)">
<path d="M279.4,747.3l-5.5,0.5l0.2,0l-5.1,1.7l-4.8,2.5l0.2,0l-4.1,3.3l-3.3,4.1l0,-0.2l-2.5,4.8l-1.7,5.1l0,-0.2l-0.5,5.5l0,130.7l0.5,5.5l1.7,5.1l0,-0.1l2.5,4.7l3.3,4.1l4.1,3.3l-0.2,-0.2L269,930l5.1,1.7l-0.2,0l5.5,0.6l541.2,0l5.5,-0.6l5.3,-1.7l-0.2,0.2l4.6,-2.5l4,-3.3l3.5,-4.1l-0.1,0l2.3,-4.7l0,0.1l1.7,-5.1l0.5,-5.5l0,-130.7l-0.5,-5.5l0,0.2L845.5,764l-2.3,-4.8l0.1,0.2l-3.5,-4.1l-4,-3.3l-4.6,-2.5l0.2,0l-5.3,-1.7l-5.5,-0.5l-541.2,0l0,-0.8l541.2,0l5.5,0.6l0.2,0l5.3,1.6l0,0.2l4.6,2.6l0.2,0l4,3.3l3.5,4l2.4,4.8l0,0.2l1.6,5.1l0.6,5.5l0,130.7l-0.6,5.5l0,0.2l-1.6,5.1l-2.4,4.8l0,0.2l-3.5,4l-4,3.3l-0.2,0l-4.6,2.6l-5.3,1.6l-0.2,0l-5.5,0.6l-541.2,0l-5.5,-0.6l-5.1,-1.6l-0.2,0l-4.8,-2.6l-4,-3.3l-3.3,-4l-0.2,-0.2l-2.6,-4.8l-1.6,-5.1l0,-0.2l-0.6,-5.5l0,-130.7l0.6,-5.5l1.6,-5.1l0,-0.2l2.6,-4.8l0.2,0l3.3,-4l4,-3.3l0,-0.2l4.8,-2.6l0.2,0l5.1,-1.6l5.5,-0.6Z" class="g1_237" />
</g>
<path d="M279.4,747.3l0,-0.8Z" class="g1_237" />
</svg>