<?xml version="1.0" encoding="UTF-8" standalone="no"?>
<!DOCTYPE svg PUBLIC "-//W3C//DTD SVG 1.1//EN"
"http://www.w3.org/Graphics/SVG/1.1/DTD/svg11.dtd">
<svg viewBox="0 0 935 1210" version="1.1" xmlns="http://www.w3.org/2000/svg" xmlns:xlink="http://www.w3.org/1999/xlink">
<defs>
<style type="text/css"><![CDATA[
.g1_389{
}
]]></style>
</defs>
<path d="M137.5,319.7l0,-0.7Z" class="g1_389" />
<path d="M137.5,319.7l715,0l0,-0.7l-715,0l0,0.7Z" class="g1_389" />
<path d="M246.8,1122.2l1.4,0l0,-242.9l-1.4,0l0,242.9Z" class="g1_389" />
<path d="M679.4,1123.7l0.8,0l0,-245.9l-0.8,0l0,245.9Z" class="g1_389" />
<path d="M774.2,1123.7l0.7,0l0,-192.9l-0.7,0l0,192.9Z" class="g1_389" />
<path d="M850.3,1122.2l1.5,0l0,-242.9l-1.5,0l0,242.9Z" class="g1_389" />
<path d="M246.8,879.3l605,0l0,-1.5l-605,0l0,1.5Z" class="g1_389" />
<path d="M246.8,898.3l605,0l0,-1.4l-605,0l0,1.4Z" class="g1_389" />
<path d="M246.8,931.5l605,0l0,-0.7l-605,0l0,0.7Z" class="g1_389" />
<path d="M246.8,950.6l605,0l0,-0.7l-605,0l0,0.7Z" class="g1_389" />
<path d="M246.8,969.8l605,0l0,-0.7l-605,0l0,0.7Z" class="g1_389" />
<path d="M246.8,989.6l605,0l0,-0.7l-605,0l0,0.7Z" class="g1_389" />
<path d="M246.8,1008.7l605,0l0,-0.7l-605,0l0,0.7Z" class="g1_389" />
<path d="M246.8,1027.8l605,0l0,-0.8l-605,0l0,0.8Z" class="g1_389" />
<path d="M246.8,1046.8l605,0l0,-0.7l-605,0l0,0.7Z" class="g1_389" />
<path d="M246.8,1066.1l605,0l0,-0.8l-605,0l0,0.8Z" class="g1_389" />
<path d="M246.8,1085.2l605,0l0,-0.8l-605,0l0,0.8Z" class="g1_389" />
<path d="M246.8,1104.2l605,0l0,-0.7l-605,0l0,0.7Z" class="g1_389" />
<path d="M246.8,1123.7l605,0l0,-1.5l-605,0l0,1.5Z" class="g1_389" />
</svg>