<?xml version="1.0" encoding="UTF-8" standalone="no"?>
<!DOCTYPE svg PUBLIC "-//W3C//DTD SVG 1.1//EN"
"http://www.w3.org/Graphics/SVG/1.1/DTD/svg11.dtd">
<svg viewBox="0 0 935 1210" version="1.1" xmlns="http://www.w3.org/2000/svg" xmlns:xlink="http://www.w3.org/1999/xlink">
<defs>
<clipPath id="c0_304"><path d="M193.6,418.7l0,-222.3l602.8,0l0,222.3Z" /></clipPath>
<style type="text/css"><![CDATA[
.g1_304{
fill: #FFFFFF;
}
.g2_304{
}
]]></style>
</defs>
<path d="M193.6,418.7l602.8,0l0,-222.3l-602.8,0l0,222.3Z" class="g1_304" />
<g clip-path="url(#c0_304)">
<path d="M225,203.3l-5.5,0.6l0.1,0l-5.1,1.6l-4.8,2.6l0.2,0l-4,3.3l-3.3,4l0,-0.2L200,220l-1.6,5.1l0,-0.2l-0.6,5.6l0,255.9l0.6,5.7l1.6,5.1l0,-0.2l2.6,4.6l3.3,4l4,3.5l-0.2,-0.2l4.8,2.6l5.1,1.5l-0.1,0l5.5,0.5l541.1,0l5.6,-0.5l5.3,-1.5l-0.2,0.2l4.6,-2.6l4,-3.5l3.5,-4l-0.2,0l2.4,-4.6l0,0.2l1.6,-5.1l0.6,-5.7l0,-255.9l-0.6,-5.6l0,0.2L791.1,220l-2.4,-4.8l0.2,0.2l-3.5,-4l-4,-3.3l-4.6,-2.6l0.2,0l-5.3,-1.6l-5.6,-0.6l-541.1,0l0,-0.7l541.1,0l5.6,0.5l0.1,0l5.3,1.7l0,0.2l4.6,2.5l0.2,0l4.1,3.3l3.4,4.1l2.4,4.7l0,0.2l1.7,5.1l0.5,5.6l0,255.9l-0.5,5.7l0,0.2l-1.7,5.1l-2.4,4.6l0,0.2l-3.4,4l-4.1,3.5l-0.2,0l-4.6,2.5l-5.3,1.5l-0.1,0l-5.6,0.6l-541.1,0l-5.5,-0.6l-5.2,-1.5l-0.2,0l-4.7,-2.5l-4.1,-3.5l-3.3,-4l0,-0.2l-2.5,-4.6l-0.2,0l-1.7,-5.1l0,-0.2l-0.5,-5.7l0,-255.9l0.5,-5.6l1.7,-5.1l0,-0.2l2.6,-4.7l0.1,0l3.3,-4.1l4.1,-3.3l0,-0.1l4.7,-2.6l0.2,0l5.2,-1.7l5.5,-0.5Z" class="g2_304" />
</g>
<path d="M225,203.3l0,-0.7Z" class="g2_304" />
</svg>