<?xml version="1.0" encoding="UTF-8" standalone="no"?>
<!DOCTYPE svg PUBLIC "-//W3C//DTD SVG 1.1//EN"
"http://www.w3.org/Graphics/SVG/1.1/DTD/svg11.dtd">
<svg viewBox="0 0 935 1210" version="1.1" xmlns="http://www.w3.org/2000/svg" xmlns:xlink="http://www.w3.org/1999/xlink">
<defs>
<style type="text/css"><![CDATA[
.g1_38{
}
]]></style>
</defs>
<path d="M82.5,192.1l0,-0.7Z" class="g1_38" />
<path d="M82.5,192.1l715,0l0,-0.7l-715,0l0,0.7Z" class="g1_38" />
<path d="M82.5,671.4l0,-0.8Z" class="g1_38" />
<path d="M82.5,671.4l715,0l0,-0.8l-715,0l0,0.8Z" class="g1_38" />
<path d="M224.4,347.2l-5.5,0.6l0.2,0l-5.1,1.5l-4.8,2.5l0.2,0l-4.1,3.5l-3.3,4l0,-0.1l-2.5,4.5l-1.7,5.2l0,-0.2l-0.5,5.7l0,235.4l0.5,5.5l1.7,5.1l0,-0.2L202,625l3.3,4l4.1,3.3l-0.2,-0.2l4.8,2.6l5.1,1.7l-0.2,0l5.5,0.5l541.2,0l5.5,-0.5l5.1,-1.7l-0.2,0l4.8,-2.6l0,0.2l4,-3.3l3.4,-4l-0.2,0l2.5,-4.8l0,0.2l1.7,-5.1l0.5,-5.5l0,-235.4l-0.5,-5.7l0,0.2l-1.7,-5.2l0.2,0l-2.5,-4.5l0,0.1l-3.4,-4l-4,-3.5L776,349.3l0.2,0l-5.1,-1.5l-5.5,-0.6l-541.2,0l0,-0.7l541.2,0l5.5,0.6l0.2,0l5.1,1.4l4.8,2.6l0.2,0.2l4,3.5l3.3,4l2.6,4.6l0,0.2l1.6,5.1l0.6,5.7l0,235.4l-0.6,5.5l0,0.2l-1.6,5.1l-2.6,4.8l0,0.1l-3.3,4.1l-4,3.3l-0.2,0l-4.8,2.5l-5.1,1.7l-0.2,0l-5.5,0.5l-541.2,0l-5.5,-0.5l-5.1,-1.7l-0.2,0l-4.8,-2.5l-4,-3.3l-3.3,-4.1l-0.2,-0.1l-2.6,-4.8l-1.6,-5.1l0,-0.2l-0.6,-5.5l0,-235.4l0.6,-5.7l1.6,-5.1l0.2,-0.2l2.6,-4.6l3.3,-4l4,-3.5l0,-0.2l4.8,-2.6l0.2,0l5.1,-1.4l5.5,-0.6Z" class="g1_38" />
<path d="M224.4,347.2l0,-0.7Z" class="g1_38" />
<path d="M53.5,133.6l1.5,0L55,103l-1.5,0l0,30.6Z" class="g1_38" />
</svg>