<?xml version="1.0" encoding="UTF-8" standalone="no"?>
<!DOCTYPE svg PUBLIC "-//W3C//DTD SVG 1.1//EN"
"http://www.w3.org/Graphics/SVG/1.1/DTD/svg11.dtd">
<svg viewBox="0 0 935 1210" version="1.1" xmlns="http://www.w3.org/2000/svg" xmlns:xlink="http://www.w3.org/1999/xlink">
<defs>
<clipPath id="c0_93"><path d="M247.5,1141.3l0,-1000.7l605,0l0,1000.7Z" /></clipPath>
<style type="text/css"><![CDATA[
.g1_93{
}
]]></style>
</defs>
<path d="M250.3,415.8l600.2,0l0,-1.5l-600.2,0l0,1.5Z" class="g1_93" />
<path d="M849,596.6l1.5,0l0,-181.5l-1.5,0l0,181.5Z" class="g1_93" />
<path d="M249.5,596.6l600.3,0l0,-1.5l-600.3,0l0,1.5Z" class="g1_93" />
<path d="M249.5,595.8l1.5,0l0,-181.5l-1.5,0l0,181.5Z" class="g1_93" />
<g clip-path="url(#c0_93)">
<path d="M247.9,833.2l604.6,0l0,-1.4l-604.6,0l0,1.4Z" class="g1_93" />
<path d="M851.4,1015.9l1.1,0l0,-183.4l-1.1,0l0,183.4Z" class="g1_93" />
<path d="M247.3,1015.9l604.8,0l0,-1.5l-604.8,0l0,1.5Z" class="g1_93" />
<path d="M247.3,1015.1l1.3,0l0,-183.3l-1.3,0l0,183.3Z" class="g1_93" />
</g>
</svg>